<svg xmlns="http://www.w3.org/2000/svg" width="330.92" height="344.46" viewBox="0 0 330.92 344.46">
  <defs>
    <style>
      .a {
        fill: #fff;
      }

      .b {
        fill: #d1d3d4;
      }
    </style>
  </defs>
  <title>Asset 1</title>
  <g>
    <path class="a" d="M15.29,259.81,0,312.37H14.58l3-12.17H31.11l3.35,12.17H49.67L34,259.81Zm4.13,30,2.26-9.44c.78-3,1.56-7.25,2.34-10.37h.16c.78,3.12,1.79,7.41,2.57,10.37l2.42,9.44Zm44.89,45.24c0,4.87-2.14,7.05-5.4,7.05-3,0-5.17-2.11-5.17-7.05V321.9h-2.9V335c0,6.92,3.42,9.48,8,9.48,4.81,0,8.4-2.77,8.4-9.58v-13h-2.9Zm79-75.26v52.56h24l3.42-11.78H157.38V259.8H143.27ZM7.77,331.51c-3.06-1.18-4.41-2.2-4.41-4.25,0-1.52,1.15-3.33,4.18-3.33A8.29,8.29,0,0,1,11.72,325l.79-2.37a10.35,10.35,0,0,0-4.87-1.05c-4.31,0-7.18,2.57-7.18,6,0,3.09,2.24,5,5.86,6.25,3,1.12,4.18,2.34,4.18,4.41,0,2.24-1.71,3.75-4.64,3.75a10,10,0,0,1-5.1-1.42L0,343a11.46,11.46,0,0,0,5.66,1.45c5.24,0,7.74-3,7.74-6.39S11.53,333,7.77,331.51Zm67.54-7.18h6.75v19.76H85V324.33h6.78v-2.44H75.31Zm163.26-12V259.81H224.45v52.56Zm22.85-52.95a104.6,104.6,0,0,0-16.77,1.17v51.47a85.23,85.23,0,0,0,14,.94c10.29,0,18.95-1.95,24.72-6.47,5.07-4,9.12-10.92,9.12-21.68,0-9.67-3.74-16.22-9.51-20.2C277.88,261.05,271.48,259.42,261.42,259.42Zm.32,42.65a16.93,16.93,0,0,1-3-.16V270.48a21.71,21.71,0,0,1,4.29-.31c8.42,0,14.58,4.84,14.58,15.13C277.65,297.16,270.86,302.23,261.74,302.07ZM138,271.35V259.81H103.8v52.56h35.25V300.83H117.92v-9.67h18.87V279.77H117.92v-8.42ZM32.14,321.54c-5.93,0-10.27,4.61-10.27,11.66,0,6.72,4.08,11.26,10,11.26h0c5.63,0,10.27-4.08,10.27-11.69C42.15,326.18,38.23,321.54,32.14,321.54ZM32,342.12h0c-4.51,0-7.08-4.31-7.08-9s2.37-9.25,7.15-9.25,7.08,4.61,7.08,9C39.12,337.93,36.55,342.12,32,342.12ZM319.88,321.9l-7.54,22.19h3l2.3-7h7.87l2.37,7h3.06l-7.57-22.19Zm-1.68,13,2.17-6.42c.43-1.35.79-2.73,1.09-4h.1c.33,1.28.66,2.6,1.12,4.05l2.21,6.39Zm-110-10.54h6.75v19.76h2.9V324.33h6.78v-2.44H208.16Zm53.47-2.43-7.54,22.19h3l2.3-7h7.87l2.37,7h3.06l-7.57-22.19Zm-1.68,13,2.17-6.42c.43-1.35.79-2.73,1.09-4h.1c.33,1.28.66,2.6,1.12,4.05l2.21,6.39Zm-17.71-1.35v-.1a5.84,5.84,0,0,0,4.18-5.63,5.51,5.51,0,0,0-1.75-4.21c-1.38-1.25-3.39-1.84-6.45-1.84a29.58,29.58,0,0,0-5.5.5V344.1h2.86v-9.62h2.7c2.6.1,3.82,1.25,4.48,4.31a27.66,27.66,0,0,0,1.45,5.3h3a39.54,39.54,0,0,1-1.68-6.09C244.94,335.69,243.92,334.11,242.24,333.52Zm-3.72-1.22h-2.93v-8.07a12.13,12.13,0,0,1,2.83-.26c3,0,5.1,1.25,5.1,4.12C243.52,330.62,241.58,332.3,238.52,332.3Zm45.27-10.4h-2.9v22.19h12.38v-2.4h-9.48Zm26-21.07v-9.67h18.87V279.77H309.78v-8.42h20V259.81H295.66v52.56h35.25V300.83Zm-8.67,43.26H304V321.9h-2.9ZM144.18,321.9l-7.54,22.19h3l2.31-7h7.87l2.37,7h3.06l-7.57-22.19Zm-1.68,13,2.17-6.42c.43-1.35.79-2.73,1.09-4h.1c.33,1.28.66,2.6,1.12,4.05l2.21,6.39ZM91.17,264.64c-5.15-3.59-11.54-5.23-21.6-5.23a104.6,104.6,0,0,0-16.77,1.17v51.47a85.23,85.23,0,0,0,14,.94c10.29,0,19-1.95,24.72-6.47,5.07-4,9.12-10.92,9.12-21.68C100.68,275.17,96.94,268.62,91.17,264.64ZM69.88,302.07a16.93,16.93,0,0,1-3-.16V270.48a21.71,21.71,0,0,1,4.29-.31c8.42,0,14.58,4.84,14.58,15.13C85.79,297.16,79,302.23,69.88,302.07Zm106,33c0,4.87-2.14,7.05-5.4,7.05-3,0-5.17-2.11-5.17-7.05V321.9h-2.9V335c0,6.92,3.42,9.48,8,9.48,4.81,0,8.4-2.77,8.4-9.58v-13h-2.9v13.17Zm-62.45-3.89H102.74v-9.29h-2.9v22.19h2.9v-10.4h10.73v10.4h2.9V321.89h-2.9Zm82,.33c-3.06-1.18-4.41-2.2-4.41-4.25,0-1.52,1.15-3.33,4.18-3.33A8.29,8.29,0,0,1,199.4,325l.79-2.37a10.35,10.35,0,0,0-4.87-1.05c-4.31,0-7.18,2.57-7.18,6,0,3.09,2.24,5,5.86,6.25,3,1.12,4.18,2.34,4.18,4.41,0,2.24-1.71,3.75-4.64,3.75a10,10,0,0,1-5.1-1.42l-.76,2.37a11.46,11.46,0,0,0,5.66,1.45c5.24,0,7.74-3,7.74-6.39S199.2,333,195.45,331.51Zm10.21-71.7H186.94l-15.29,52.56h14.58l3-12.17h13.57l3.35,12.17h15.21Zm-14.58,30,2.26-9.44c.78-3,1.56-7.25,2.34-10.37h.16c.78,3.12,1.79,7.41,2.57,10.37l2.42,9.44ZM147.28,5.34,0,97.36,43.81,232.19l72.84-45.51V108h97.62V223.39l58.08,22.29,58.57-125.6Zm57.94,214.58V117H125.71v72.39l4.07,1.56V127h0v-.75h59.66v87.56Zm-24.83-9.53v-75H138.83v9.3h29v60.92Z"/>
    <polygon class="b" points="272.34 0 238.58 62.39 330.91 120.09 272.34 0"/>
  </g>
</svg>
