<svg xmlns="http://www.w3.org/2000/svg" width="73.19" height="65.35" viewBox="0 0 73.19 65.35">
  <defs>
    <style>
      .a {
        isolation: isolate;
      }

      .b {
        mix-blend-mode: multiply;
      }

      .c {
        fill: #333;
      }
    </style>
  </defs>
  <title>Asset 7</title>
  <g class="a">
    <g class="b">
      <g>
        <path class="c" d="M65.19,22.55A1.13,1.13,0,1,0,64,21.42a1.19,1.19,0,0,0,1.22,1.13"/>
        <path class="c" d="M10.17,9.25A1.18,1.18,0,0,0,11.4,8.12,1.23,1.23,0,0,0,9,8.12a1.17,1.17,0,0,0,1.22,1.13"/>
        <path class="c" d="M30.86,21.68A3.47,3.47,0,0,0,27.27,25a3.61,3.61,0,0,0,7.19,0,3.47,3.47,0,0,0-3.6-3.32"/>
        <path class="c" d="M52.62,49.58a2.9,2.9,0,1,0-3.13-2.89,3,3,0,0,0,3.13,2.89"/>
        <g>
          <path class="c" d="M64.1,17.24c-5,0-9.08,3.77-9.08,8.4a7.58,7.58,0,0,0,.15,1.51L42.88,29.38a11.76,11.76,0,0,0-7.14-9.29L38.41,9.83h.14a5.13,5.13,0,0,0,5.32-4.91A5.13,5.13,0,0,0,38.55,0a5.13,5.13,0,0,0-5.32,4.92,5,5,0,0,0,3.54,4.63l-2.6,10a12.55,12.55,0,0,0-3.32-.45,12.35,12.35,0,0,0-8.26,3.14l-6.21-4.9a8,8,0,0,0,1.79-5c0-4.63-4.08-8.4-9.09-8.4S0,7.71,0,12.34s4.08,8.39,9.08,8.39a9.45,9.45,0,0,0,6.19-2.25l6.2,4.9a11.32,11.32,0,0,0,.14,15,12,12,0,0,0,4.32,3.11l-4.31,5A12.11,12.11,0,0,0,14.27,44C7.89,44,2.72,48.77,2.72,54.67S7.89,65.35,14.27,65.35s11.56-4.78,11.56-10.68a10.17,10.17,0,0,0-3-7.17L27.56,42l0,0a12.64,12.64,0,0,0,3.34.45,12.37,12.37,0,0,0,6.47-1.81,12.84,12.84,0,0,0,1.14-.79l5.87,5.46.62-.57a9.85,9.85,0,0,0-.38,13.54,10.54,10.54,0,0,0,2.43,2,10.71,10.71,0,0,0,5.6,1.56,10.82,10.82,0,0,0,5.63-1.57,10.57,10.57,0,0,0,2.42-2,9.86,9.86,0,0,0,2.5-6.55A10.37,10.37,0,0,0,52.6,41.55a10.74,10.74,0,0,0-7.1,2.66l-5.84-5.44c.15-.15.3-.31.44-.47A11.36,11.36,0,0,0,43,30.94l12.66-2.3A9.11,9.11,0,0,0,64.1,34c5,0,9.09-3.76,9.09-8.39S69.11,17.24,64.1,17.24Zm-55,2.32a7.73,7.73,0,0,1-1-.06.69.69,0,0,0,.45-.56l.36-3.67c.14-.55.45-.16.48,0L10,19a.69.69,0,0,0,.35.48A7.63,7.63,0,0,1,9.08,19.56Zm6.29-3L14.29,17.7h0a8,8,0,0,1-2.93,1.54.67.67,0,0,0,.11-.48l-.71-4.31.29-2.71c0-.41.26-.09.26-.08l1.15,2.25a.53.53,0,0,0,.48.29.59.59,0,0,0,.22-.05.47.47,0,0,0,.25-.65l-1.72-3.4a.51.51,0,0,0-.39-.27L8.68,9.43,6.24,6.84a.58.58,0,0,0-.75,0,.47.47,0,0,0,0,.7l2.17,2.3A2.1,2.1,0,0,1,8,11.1L7.56,14v0l-.47,4.79a.66.66,0,0,0,.24.57,7.38,7.38,0,0,1-6.06-7c0-4,3.5-7.22,7.81-7.22s7.82,3.23,7.82,7.22a6.84,6.84,0,0,1-1.48,4.23ZM22.16,53a.78.78,0,0,1,0,.22c.06.12.17.24.14.33s-.17.12-.29.17a2.44,2.44,0,0,1-.14.28c0,.11.06.23,0,.3s-.19.06-.31.08a3,3,0,0,1-.26.24c0,.11,0,.22-.09.27a.59.59,0,0,1-.32,0,1.66,1.66,0,0,1-.33.15c-.05.1-.1.21-.18.24s-.21,0-.32-.1l-.33,0a.77.77,0,0,1-.22.19,6.68,6.68,0,0,1,0,.89,3.76,3.76,0,0,1-1.27,2.56,3.09,3.09,0,0,1-1.74.75,9.89,9.89,0,0,1-1.21.11c-.89,0-1.78,0-2.67,0a3.59,3.59,0,0,1-2.41-.89A3.86,3.86,0,0,1,9.13,57a3.38,3.38,0,0,1-.08-1.45c-.15,0-.27-.26-.42-.28s-.35.2-.49.16S8,55.1,7.84,55s-.41.09-.53,0,0-.36-.15-.45-.41,0-.5-.14.07-.35,0-.47-.38-.15-.42-.27.19-.32.17-.45-.32-.24-.32-.38.29-.24.32-.37-.22-.32-.17-.45.36-.15.42-.27-.09-.36,0-.47.39,0,.5-.14,0-.37.15-.45.39.07.53,0,.16-.35.3-.39.35.18.49.15.27-.28.42-.28.28.26.42.28.36-.19.5-.15.17.33.3.39.4-.09.52,0,.05.36.16.45.41,0,.5.14,0,.28,0,.41l.13.15c.12,0,.28.09.31.18s0,.1,0,.16a.71.71,0,0,1,.07.09,6.46,6.46,0,0,1,4.72,0l.09-.11c-.06-.1-.14-.2-.11-.28s.36-.15.43-.27-.09-.37,0-.47.4,0,.51-.14,0-.38.15-.46.4.07.53,0,.16-.35.3-.39.35.18.5.15.27-.28.43-.28.27.26.42.28.36-.19.5-.15.17.33.3.39.41-.09.53,0,0,.36.15.46.42,0,.51.14-.08.35,0,.47.39.14.43.27-.19.32-.17.45.32.24.32.38S22.25,52.94,22.16,53Zm26,6.29a7.41,7.41,0,0,1-.67-.4c.69-2,1.44-4.09,1.69-4.61l0-.1a2,2,0,0,1,.75-1Zm8.93,0-1.82-6.08a2,2,0,0,1,.75,1l.05.1c.25.52,1,2.61,1.69,4.6A7.41,7.41,0,0,1,57.08,59.31ZM52.6,43a8.91,8.91,0,0,1,9.07,8.74,8.5,8.5,0,0,1-1.58,4.94c-.52-1.48-1.06-2.95-1.32-3.48l0-.08C58,51.54,56.9,50,52.73,50h-.22c-4.17,0-5.26,1.5-6,3.05l0,.08c-.26.54-.8,2-1.32,3.5a8.49,8.49,0,0,1-1.61-5A8.91,8.91,0,0,1,52.6,43ZM25.72,39.52c-.26-.14-.52-.3-.77-.46.79-2.29,1.66-4.71,1.95-5.31l.06-.1a2.38,2.38,0,0,1,.86-1.14Zm10.27,0-2.09-7a2.47,2.47,0,0,1,.87,1.14l0,.1c.29.6,1.15,3,2,5.29C36.52,39.21,36.26,39.36,36,39.51Zm3.46-3.07c-.6-1.7-1.22-3.38-1.51-4l0-.1c-.86-1.77-2.11-3.5-6.9-3.5h-.26c-4.79,0-6,1.73-6.9,3.5l0,.1c-.3.61-.93,2.31-1.53,4a9.74,9.74,0,0,1-1.84-5.7,10.25,10.25,0,0,1,10.43-10A10.24,10.24,0,0,1,41.27,30.77,9.7,9.7,0,0,1,39.45,36.44ZM63.14,32.8a.72.72,0,0,0,.45-.56L64,28.56c.14-.55.45-.16.48,0l.6,3.71a.69.69,0,0,0,.36.47,7.83,7.83,0,0,1-1.29.11C63.78,32.86,63.46,32.83,63.14,32.8Zm3.24-.26a.6.6,0,0,0,.12-.47l-.7-4.31.28-2.71c0-.41.26-.09.26-.09l1.15,2.26a.53.53,0,0,0,.48.28.57.57,0,0,0,.22,0,.49.49,0,0,0,.26-.66l-1.73-3.39a.49.49,0,0,0-.39-.27l-2.63-.41-2.44-2.59a.57.57,0,0,0-.75-.05.47.47,0,0,0,0,.69l2.18,2.31a2.18,2.18,0,0,1,.4,1.3l-.46,2.89v0l-.47,4.79a.65.65,0,0,0,.25.56,7.37,7.37,0,0,1-6.07-7c0-4,3.5-7.22,7.81-7.22a8,8,0,0,1,6.48,3.18,6.82,6.82,0,0,1,1.34,4A7.31,7.31,0,0,1,66.38,32.54Z"/>
          <path class="c" d="M12.29,54.17a.59.59,0,0,0-.63.58.61.61,0,0,0,.64.56.61.61,0,0,0,.63-.59A.59.59,0,0,0,12.29,54.17Z"/>
          <path class="c" d="M16.56,54.16a.59.59,0,0,0-.62.55.57.57,0,0,0,.61.58.6.6,0,0,0,.63-.57A.59.59,0,0,0,16.56,54.16Z"/>
          <path class="c" d="M14.88,55.15a.92.92,0,0,0-1.13,0,1.63,1.63,0,0,0-.4.43,3.29,3.29,0,0,0-.4,2.59,1,1,0,0,0,.82.75,3.85,3.85,0,0,0,1,0,1,1,0,0,0,.92-.75c.07-.26.09-.53.14-.79a4.1,4.1,0,0,0-.39-1.61A1.85,1.85,0,0,0,14.88,55.15Z"/>
        </g>
      </g>
    </g>
  </g>
</svg>
