<svg xmlns="http://www.w3.org/2000/svg" width="66.37" height="65.93" viewBox="0 0 66.37 65.93">
  <defs>
    <style>
      .a {
        fill: #c2ccca;
      }

      .b {
        fill: #333;
      }
    </style>
  </defs>
  <title>connect</title>
  <g>
    <path class="a" d="M32.36,36.5A4.42,4.42,0,1,1,36.7,32a4.41,4.41,0,0,1-4.34,4.5" transform="translate(-6.83 -6.64)"/>
    <path class="a" d="M69,7.6C48.46,6.68,44.2,22.38,43.51,25.92c9,.22,15.87-1.9,20.28-6.32A18.48,18.48,0,0,0,69,7.6Z" transform="translate(-6.83 -6.64)"/>
    <path class="b" d="M54.24,12.24A3.74,3.74,0,1,0,58,16,3.75,3.75,0,0,0,54.24,12.24Z" transform="translate(-6.83 -6.64)"/>
    <path class="b" d="M61.16,18.44a2.1,2.1,0,1,1,2.1-2.1A2.1,2.1,0,0,1,61.16,18.44Zm0-3.75a1.66,1.66,0,1,0,1.66,1.65A1.66,1.66,0,0,0,61.16,14.69Z" transform="translate(-6.83 -6.64)"/>
    <path class="b" d="M58.47,49.24a3.43,3.43,0,1,1,3.43-3.43A3.44,3.44,0,0,1,58.47,49.24Zm0-6.14a2.71,2.71,0,1,0,2.71,2.71A2.71,2.71,0,0,0,58.47,43.1Z" transform="translate(-6.83 -6.64)"/>
    <path class="b" d="M50.73,49.09A1.93,1.93,0,1,0,52.66,51,1.92,1.92,0,0,0,50.73,49.09Z" transform="translate(-6.83 -6.64)"/>
    <path class="b" d="M66.42,44.72a1.73,1.73,0,1,0,1.73,1.73A1.73,1.73,0,0,0,66.42,44.72Z" transform="translate(-6.83 -6.64)"/>
    <path class="b" d="M24.35,31.14H24.3A2.77,2.77,0,0,0,21.58,34a2.77,2.77,0,0,0,2.77,2.73h0a2.78,2.78,0,0,0,1.94-.85,2.73,2.73,0,0,0,.78-2A2.77,2.77,0,0,0,24.35,31.14Z" transform="translate(-6.83 -6.64)"/>
    <path class="a" d="M26.06,43.34s-.09-5.18,5.1-5.28l1.73,0s5.19-.09,5.28,5.1l.06,1.61Z" transform="translate(-6.83 -6.64)"/>
    <path class="b" d="M17.24,31.14a2.44,2.44,0,0,1-1.72-.69,2.47,2.47,0,0,1-.76-1.75,2.44,2.44,0,0,1,.69-1.76,2.47,2.47,0,0,1,1.75-.76,2.37,2.37,0,0,1,1.76.7,2.48,2.48,0,0,1,.07,3.5,2.47,2.47,0,0,1-1.75.76h0Zm0-4.44h0a1.93,1.93,0,0,0-1.38.6,2,2,0,0,0-.55,1.39,1.93,1.93,0,0,0,.6,1.38,2,2,0,0,0,1.39.55h0a2,2,0,0,0,1.33-3.37A2,2,0,0,0,17.24,26.7Z" transform="translate(-6.83 -6.64)"/>
    <path class="b" d="M72.86,39.66a12.56,12.56,0,0,0-10.29-2.38C54.26,39,47.17,48.2,44.26,52.5V26.85h.84c8.51,0,15-2.18,19.32-6.5A18.92,18.92,0,0,0,69.84,7.27l0-.54-.54,0C48.66,5.47,43.42,21.93,42.47,26.1v11A20.89,20.89,0,0,0,38,29.32c-6-6.61-16.25-10-30.44-10H6.83L7,20c.1.56,2.55,13.69,13.09,20.8A26.06,26.06,0,0,0,35,45.18a38.53,38.53,0,0,0,7.51-.79V68c-12.36-2.08-20.88.92-21.28,1.06a.89.89,0,0,0,.61,1.68c.11,0,10.65-3.76,25.05,0a44.53,44.53,0,0,0,10.93,1.77,11.81,11.81,0,0,0,5.8-1.28,3.3,3.3,0,0,1,1.4-.46A.9.9,0,1,0,65,69a4.9,4.9,0,0,0-2.17.63c-1.76.84-4.69,2.24-15.51-.6-1-.28-2-.51-3-.71V55.88a27,27,0,0,0,7.82,1.27,19.48,19.48,0,0,0,9-2.11c8.75-4.46,11.88-14.3,12-14.72l.13-.41ZM36.18,32a3.89,3.89,0,0,1-3.83,4h0a3.81,3.81,0,0,1-2.77-1.1,3.9,3.9,0,0,1,2.64-6.7h.07A3.91,3.91,0,0,1,36.18,32ZM14.44,33.78a2.15,2.15,0,0,1,2.24-1.85h.87a2.27,2.27,0,0,1,2.39,2.3l0,5.08A26.49,26.49,0,0,1,14.44,33.78ZM28,43.12l0-3,0-.28a4.43,4.43,0,0,1,3.25-1.26l1.73,0c.19,0,4.67,0,4.75,4.59v.73A28.94,28.94,0,0,1,28,43.12Zm14.26.11c-1.21.24-2.38.41-3.53.54v-.65c-.1-5.64-5.76-5.6-5.81-5.6l-1.73,0a5.52,5.52,0,0,0-3.51,1.14,2.8,2.8,0,0,0-1.36-1.35,3.9,3.9,0,0,0-1.6-.37h-1a2.91,2.91,0,0,0-2.78,1.67,3.7,3.7,0,0,0-.33,1.12l-.11-.09,0-5.47a2.83,2.83,0,0,0-2.92-2.81h-.87A2.61,2.61,0,0,0,14,33.26,37.72,37.72,0,0,1,8.29,20.54c11.56.11,20.33,2.51,26.17,7.13a4.91,4.91,0,0,0-5.73,1,4.94,4.94,0,0,0,.13,7A4.86,4.86,0,0,0,32.28,37h.09a4.85,4.85,0,0,0,3.46-1.5,4.88,4.88,0,0,0,.61-6.06c.22.21.44.43.65.65A19.55,19.55,0,0,1,42.23,43.23Zm16.9-20.51A3.69,3.69,0,0,0,59,22.3V21.09a1.94,1.94,0,0,1,2-2h.73a1.8,1.8,0,0,1,1.56.71A18.32,18.32,0,0,1,59.13,22.72ZM68.64,7.86a18.48,18.48,0,0,1-.9,4.8,1.85,1.85,0,0,0-1.23-.46,1.87,1.87,0,0,0-.22,3.73,1.71,1.71,0,0,1-.13.23,2.08,2.08,0,0,0-2,2.17v.58c-.18.2-.36.41-.56.6a2.24,2.24,0,0,0-1.9-.85H61a2.39,2.39,0,0,0-2.43,2.43v.51a4,4,0,0,0-3.35-1.5H53.86s-4.33,0-4.33,4.33v1a42.79,42.79,0,0,1-5.65.23C44.55,22.22,48.68,7,68.64,7.86ZM60.53,54a17.94,17.94,0,0,1-5.64,1.78V53.57a3.16,3.16,0,0,1,3.24-3.25h1.21a3,3,0,0,1,3.15,2.49A18.11,18.11,0,0,1,60.53,54Zm6.71-5.58a1.72,1.72,0,0,0-.37,0h-.61a2,2,0,0,0-2,2v1.12c-.36.32-.75.62-1.15.91a3.61,3.61,0,0,0-3.77-2.78H58.13s-4,0-4,4v2.26l-.69.06v-.51a2.2,2.2,0,0,0-2.24-2.23h-.67a2.19,2.19,0,0,0-2.23,2.23v.24a27.84,27.84,0,0,1-4-1c1.8-2.84,9.59-14.37,18.54-16.21a11.28,11.28,0,0,1,9,1.92A29.13,29.13,0,0,1,67.24,48.4Z" transform="translate(-6.83 -6.64)"/>
  </g>
</svg>
