<svg xmlns="http://www.w3.org/2000/svg" xmlns:xlink="http://www.w3.org/1999/xlink" width="70.69" height="44.07" viewBox="0 0 70.69 44.07">
  <defs>
    <style>
      .a, .g, .h {
        fill: none;
      }

      .b {
        isolation: isolate;
      }

      .c {
        mix-blend-mode: multiply;
      }

      .d {
        clip-path: url(#a);
      }

      .e {
        fill: #c2ccca;
      }

      .f {
        fill: #333;
      }

      .g, .h {
        stroke: #333;
      }

      .g {
        stroke-linecap: round;
        stroke-width: 1.41px;
      }

      .h {
        stroke-width: 1.88px;
      }
    </style>
    <clipPath id="a" transform="translate(-1 -1)">
      <rect class="a" width="72.69" height="46.06"/>
    </clipPath>
  </defs>
  <title>educate</title>
  <g class="b">
    <g class="c">
      <g class="d">
        <path class="e" d="M63.18,14.2c-.07-.8-.14-1.59-.22-2.39a3.88,3.88,0,0,0-.14-.66,2,2,0,0,0-2.21-1.62,3.18,3.18,0,0,0-1,.13c-1.62.62-3.25,1.24-4.85,1.91a1.36,1.36,0,0,1-1.49-.08,10.2,10.2,0,0,0-1.06-.63,11.5,11.5,0,0,0-6.77-1.65,13.07,13.07,0,0,0-5.85,2.27,1.39,1.39,0,0,1-1.48.09A36,36,0,0,0,33.4,9.7c-2.1-.6-3.22.13-3.47,2.24a30.69,30.69,0,0,0-.19,3.19,6,6,0,0,0,4.44,6.07,1.36,1.36,0,0,1,1,1.09,13.88,13.88,0,0,0,4.89,7.63,10.06,10.06,0,0,0,12.29.32,13.61,13.61,0,0,0,5.3-7.91,1.48,1.48,0,0,1,1.11-1.15A7.25,7.25,0,0,0,61,20a6.34,6.34,0,0,0,2.2-5.8" transform="translate(-1 -1)"/>
        <path class="f" d="M63.15,14.17c-.07-.79-.13-1.59-.22-2.39a3.88,3.88,0,0,0-.14-.66A2,2,0,0,0,60.58,9.5a3.12,3.12,0,0,0-1,.13c-1.63.62-3.25,1.24-4.86,1.91a1.37,1.37,0,0,1-1.49-.08,10.06,10.06,0,0,0-1-.63,11.54,11.54,0,0,0-6.77-1.65,13.15,13.15,0,0,0-5.86,2.27,1.39,1.39,0,0,1-1.48.09,35.49,35.49,0,0,0-4.73-1.87c-2.1-.59-3.21.13-3.46,2.24a28.31,28.31,0,0,0-.2,3.19,6,6,0,0,0,4.45,6.07,1.35,1.35,0,0,1,1,1.09,13.94,13.94,0,0,0,4.89,7.63,10.06,10.06,0,0,0,12.3.32,13.65,13.65,0,0,0,5.3-7.91,1.47,1.47,0,0,1,1.1-1.14A7.78,7.78,0,0,0,61,20a6.33,6.33,0,0,0,2.19-5.81M28,14.45c.12-1.08.17-2.17.37-3.24.49-2.62,2.32-3.92,4.93-3.28a39.2,39.2,0,0,1,5,1.79,1.08,1.08,0,0,0,1.07-.06A13.54,13.54,0,0,1,47,7.45a13.46,13.46,0,0,1,6.3,2.08,1.51,1.51,0,0,0,1.56.06,40.4,40.4,0,0,1,4.74-1.67A5.16,5.16,0,0,1,62,8a3.14,3.14,0,0,1,2.3,2.35,13.28,13.28,0,0,1,.27,6.82A7.43,7.43,0,0,1,59.8,22.6a1,1,0,0,0-.65.71,15.19,15.19,0,0,1-6.57,8.77,11.66,11.66,0,0,1-14-1.18,15.72,15.72,0,0,1-4.85-7.35,1.49,1.49,0,0,0-.91-1A7.68,7.68,0,0,1,28,15.69c0-.12,0-.25,0-.37,0-.29,0-.58,0-.86H28" transform="translate(-1 -1)"/>
        <path class="f" d="M55.11,19.8A1.2,1.2,0,0,1,53.85,21a1.17,1.17,0,0,1-1.11-1.17,1.19,1.19,0,1,1,2.37,0" transform="translate(-1 -1)"/>
        <path class="f" d="M40.11,19.78A1.21,1.21,0,0,1,38.85,21a1.14,1.14,0,0,1-1.11-1.15,1.2,1.2,0,0,1,1.2-1.22,1.26,1.26,0,0,1,1.17,1.2" transform="translate(-1 -1)"/>
        <path class="f" d="M43.55,24.57c0,1.72.51,2.55,1.73,2.72a9.08,9.08,0,0,0,2.55-.05,1.77,1.77,0,0,0,1.59-1.71,6.6,6.6,0,0,0-1.7-5.11,1.49,1.49,0,0,0-2.49,0,3,3,0,0,0-.32.39,7.21,7.21,0,0,0-1.36,3.75m3.21,3.84a7.13,7.13,0,0,1-1.86-.21,2.8,2.8,0,0,1-2.33-2.85,7.68,7.68,0,0,1,1.84-5.48,2.56,2.56,0,0,1,4.21,0,7.7,7.7,0,0,1,1.81,5.49,3,3,0,0,1-2.93,3l-.74.06" transform="translate(-1 -1)"/>
        <line class="g" x1="22.64" y1="43.06" x2="33.23" y2="29.14"/>
        <path class="e" d="M24.05,45.05l-.12-6.68s0-9.42-9.42-9.42H11.36s-9.42,0-9.42,9.42V45" transform="translate(-1 -1)"/>
        <path class="h" d="M24.05,45.05l-.12-6.68s0-9.42-9.42-9.42H11.36s-9.42,0-9.42,9.42V45" transform="translate(-1 -1)"/>
        <path class="e" d="M12.29,24.84a8,8,0,1,0-8-8,8,8,0,0,0,8,8" transform="translate(-1 -1)"/>
        <path class="h" d="M12.29,24.84a8,8,0,1,0-8-8A8,8,0,0,0,12.29,24.84Z" transform="translate(-1 -1)"/>
        <path class="f" d="M67.8,27.46a1.46,1.46,0,0,0-1.07-1.1,2.41,2.41,0,0,0-1.1,0,19.11,19.11,0,0,0-2.2.77.69.69,0,0,1-.73,0,6.21,6.21,0,0,0-2.93-1,6.29,6.29,0,0,0-3.6,1,.48.48,0,0,1-.5,0,17.56,17.56,0,0,0-2.3-.83,1.75,1.75,0,0,0-2.3,1.53l-.13,1.51v.57a3.59,3.59,0,0,0,2.24,3.19.7.7,0,0,1,.43.46A7.31,7.31,0,0,0,55.86,37a5.41,5.41,0,0,0,6.49.55,7,7,0,0,0,3.06-4.07.42.42,0,0,1,.3-.33,3.47,3.47,0,0,0,2.22-2.52A6.1,6.1,0,0,0,67.8,27.46Z" transform="translate(-1 -1)"/>
        <path class="e" d="M63.53,31.84a.56.56,0,0,1-.59.54.55.55,0,1,1,.59-.54" transform="translate(-1 -1)"/>
        <path class="e" d="M56.55,31.83a.56.56,0,0,1-.58.55.54.54,0,0,1-.52-.54.55.55,0,1,1,1.1,0" transform="translate(-1 -1)"/>
        <path class="e" d="M58.15,34.06c0,.8.24,1.19.81,1.26a3.89,3.89,0,0,0,1.18,0,.81.81,0,0,0,.74-.79,3,3,0,0,0-.79-2.38.69.69,0,0,0-1.15,0,1.29,1.29,0,0,0-.16.17,3.53,3.53,0,0,0-.63,1.75m1.5,1.81c-.29,0-.59-.06-.87-.12a1.31,1.31,0,0,1-1.08-1.33,3.57,3.57,0,0,1,.85-2.54,1.19,1.19,0,0,1,2,0,3.54,3.54,0,0,1,.84,2.55A1.39,1.39,0,0,1,60,35.81c-.11,0-.23,0-.34,0v0" transform="translate(-1 -1)"/>
        <path class="h" d="M24.51,44.11H65.58s5.17,0,5.17-5.18V7.11s0-5.17-5.17-5.17H17s-5.18,0-5.18,5.17v1.7" transform="translate(-1 -1)"/>
      </g>
    </g>
  </g>
</svg>
