<svg xmlns="http://www.w3.org/2000/svg" width="73.64" height="55.27" viewBox="0 0 73.64 55.27">
  <defs>
    <style>
      .a {
        isolation: isolate;
      }

      .b {
        mix-blend-mode: multiply;
      }

      .c {
        fill: #333;
      }
    </style>
  </defs>
  <title>Asset 4</title>
  <g class="a">
    <g class="b">
      <g>
        <path class="c" d="M52.09,0h3.55c.78.09,1.56.21,2.35.27a6.28,6.28,0,0,1,5.68,4.18c1.76,4.22,3.47,8.45,5.21,12.67q2.37,5.74,4.76,11.49v1a2,2,0,0,1-2.41.91,33,33,0,0,0-8.82-.17,42.78,42.78,0,0,0-11.24,2.85C46.62,35,42.12,37,37.59,38.86c-7.07,2.93-14.31,4.82-22.05,3.87A6.44,6.44,0,0,1,10,38.52Q5,26.46,0,14.38v-1a1.92,1.92,0,0,1,2.27-.93c1.15.15,2.3.3,3.45.36A39.25,39.25,0,0,0,22,10c4.5-1.75,8.93-3.72,13.38-5.58A56.31,56.31,0,0,1,48.13.49c1.31-.2,2.64-.33,4-.49M36.43,9.74C30.54,9.74,25.5,15,25.49,21.19A12.11,12.11,0,0,0,37.05,33.28c5.28.13,11.06-4.76,11.09-11.56a12,12,0,0,0-11.71-12"/>
        <path class="c" d="M73.64,40.89v1a2,2,0,0,1-2.22.9,34.08,34.08,0,0,0-9.3-.15A47.2,47.2,0,0,0,49.63,46c-4.51,1.86-9,3.82-13.5,5.67a45.75,45.75,0,0,1-11.63,3.2c-1.17.15-2.33.26-3.5.39H18.41c-.9-.1-1.79-.21-2.69-.28a6.34,6.34,0,0,1-5.78-4.23c-.6-1.43-1.18-2.86-1.77-4.29L0,26.66V25.54c.05,0,.12-.07.15-.12.43-.75,1.14-.74,1.85-.72s.62.61.78,1c2.45,5.91,4.86,11.83,7.32,17.74a5.9,5.9,0,0,0,4.52,3.82,30.43,30.43,0,0,0,5,.41A37.9,37.9,0,0,0,30.3,46.11a109.94,109.94,0,0,0,13.89-5.4C50.28,38,56.42,35.53,63.11,35a34.61,34.61,0,0,1,7.68.15.8.8,0,0,1,.71.6c.7,1.73,1.42,3.45,2.14,5.17"/>
        <path class="c" d="M37.12,23.18c-.93,0-1.86.06-2.78,0A3.62,3.62,0,0,1,31.09,21a4.21,4.21,0,0,1,.49-4.28,1.44,1.44,0,0,1,.22-.27,1.89,1.89,0,0,0,.61-2.5c-.41-1,.89-.87,1.41-1.27s.71-.09.91.35c.49,1.05.5,1,1.62.75a6.16,6.16,0,0,1,1.53-.23.88.88,0,0,1,.65.52,12.42,12.42,0,0,1,.33,1.84c.07.45-.09.64-.56.73a17.35,17.35,0,0,0-2.75.71c-.52.19-1.12.54-1,1.23s.82.7,1.36.76.9-.07,1.35-.06a14.55,14.55,0,0,1,2.57.15,4.11,4.11,0,0,1,2.07,6.72,1.24,1.24,0,0,1-.18.21,1.68,1.68,0,0,0-.56,2.56.62.62,0,0,1-.37.95l-.5.23c-1.16.54-1.18.55-1.67-.68a.75.75,0,0,0-1.05-.53c-.81.2-1.64.32-2.46.45-.47.07-.73-.2-.81-.66-.1-.61-.2-1.23-.31-1.85s.14-.7.67-.76a18.44,18.44,0,0,0,2.85-.57c1.09-.31,1.65-1,1.54-1.59s-.64-.81-1.9-.74"/>
      </g>
    </g>
  </g>
</svg>
