<svg xmlns="http://www.w3.org/2000/svg" width="55.32" height="41.83" viewBox="0 0 55.32 41.83">
  <defs>
    <style>
      .a {
        fill: #fff;
      }
    </style>
  </defs>
  <title>Asset 1</title>
  <g>
    <path class="a" d="M11.34,35.9a5.44,5.44,0,0,0,1.37-.22V33.4H11v.67h.9v1.1a2.18,2.18,0,0,1-.56.06,1.39,1.39,0,0,1-1.43-1.51,1.43,1.43,0,0,1,1.53-1.52,2.79,2.79,0,0,1,1.09.22l.05-.72a4.47,4.47,0,0,0-1.24-.17A2.1,2.1,0,0,0,9,33.79a2,2,0,0,0,2.32,2.11"/>
    <path class="a" d="M15.13,35.89a1.54,1.54,0,0,0,1.64-1.6,1.56,1.56,0,0,0-1.64-1.65,1.55,1.55,0,0,0-1.62,1.65,1.53,1.53,0,0,0,1.62,1.6m0-2.62a.81.81,0,0,1,.79.92c0,.52-.16,1.08-.79,1.08s-.78-.56-.78-1.08a.82.82,0,0,1,.78-.92"/>
    <polygon class="a" points="20.48 32.71 19.68 32.71 18.93 34.98 18.91 34.98 18.14 32.71 17.27 32.71 18.42 35.82 19.34 35.82 20.48 32.71"/>
    <path class="a" d="M23.81,35.65V35a2.12,2.12,0,0,1-1,.31.81.81,0,0,1-.89-.78H24c0-1.09-.33-1.88-1.49-1.88a1.45,1.45,0,0,0-1.44,1.64,1.48,1.48,0,0,0,1.63,1.61,2.2,2.2,0,0,0,1.07-.24M22.6,33.23c.46,0,.64.34.66.73H21.88a.71.71,0,0,1,.72-.73"/>
    <path class="a" d="M25.74,34.68c0-.45,0-1.27.66-1.27a.7.7,0,0,1,.36.07v-.82a1,1,0,0,0-.24,0,1,1,0,0,0-.86.78h0v-.71h-.72v3.11h.81Z"/>
    <path class="a" d="M27.63,32.71v3.11h.81V34.3c0-.4.13-1,.71-1s.53.51.53.89v1.66h.81v-2c0-.7-.32-1.22-1.06-1.22a1.17,1.17,0,0,0-1,.49h0v-.42Z"/>
    <path class="a" d="M36.22,33.86c0-.7-.22-1.22-1-1.22a1.06,1.06,0,0,0-1,.55.91.91,0,0,0-.92-.55,1.11,1.11,0,0,0-.93.5h0v-.43h-.75v3.11h.81V34.31c0-.4.06-1,.6-1s.47.41.47.7v1.85h.81V34.31c0-.4.06-1,.6-1s.47.41.47.7v1.85h.81Z"/>
    <path class="a" d="M39.77,35a2.08,2.08,0,0,1-1,.31.81.81,0,0,1-.89-.78H40c0-1.09-.32-1.88-1.48-1.88a1.45,1.45,0,0,0-1.44,1.64,1.48,1.48,0,0,0,1.62,1.61,2.14,2.14,0,0,0,1.07-.24Zm-1.2-1.76c.45,0,.64.34.66.73H37.85a.71.71,0,0,1,.72-.73"/>
    <path class="a" d="M41.65,33.13v-.42h-.77v3.11h.81V34.3c0-.4.13-1,.72-1s.52.51.52.89v1.66h.81v-2c0-.7-.32-1.22-1.06-1.22a1.18,1.18,0,0,0-1,.49Z"/>
    <path class="a" d="M45,34.88a.91.91,0,0,0,1,1,2.1,2.1,0,0,0,.6-.07l0-.64a.7.7,0,0,1-.37.09c-.31,0-.38-.25-.38-.52V33.3h.71v-.59h-.71v-.88l-.81.26v.62h-.6v.59H45Z"/>
    <path class="a" d="M1.63,41.83a1.54,1.54,0,0,0,1.63-1.61,1.56,1.56,0,0,0-1.63-1.65A1.56,1.56,0,0,0,0,40.22a1.54,1.54,0,0,0,1.63,1.61m0-2.63c.53,0,.78.45.78.93s-.16,1.07-.78,1.07-.78-.56-.78-1.07a.83.83,0,0,1,.78-.93"/>
    <path class="a" d="M4.43,41.76h.81V39.24H6v-.59H5.24v-.39c0-.24.09-.48.36-.48a.62.62,0,0,1,.35.11L6,37.22a2.65,2.65,0,0,0-.59-.07,1,1,0,0,0-1,1.06v.44H3.84v.59h.59Z"/>
    <path class="a" d="M10.44,40.62c0,.38-.43.55-.75.55a2.19,2.19,0,0,1-1-.26l-.07.76a3.76,3.76,0,0,0,1.08.16c.85,0,1.58-.35,1.58-1.27,0-1.42-1.85-1.11-1.85-1.84a.59.59,0,0,1,.67-.59,2.32,2.32,0,0,1,.86.18l.07-.69a2.94,2.94,0,0,0-1-.15c-.74,0-1.47.34-1.47,1.28,0,1.4,1.85,1.07,1.85,1.87"/>
    <path class="a" d="M13.69,38.57a1.56,1.56,0,0,0-1.63,1.65,1.54,1.54,0,0,0,1.63,1.61,1.54,1.54,0,0,0,1.63-1.61,1.56,1.56,0,0,0-1.63-1.65m0,2.63c-.62,0-.78-.56-.78-1.07a.83.83,0,0,1,.78-.93c.53,0,.78.45.78.93s-.16,1.07-.78,1.07"/>
    <path class="a" d="M19.06,41.76V38.65h-.81v1.52c0,.4-.13,1-.72,1s-.52-.51-.52-.89V38.65H16.2v2c0,.7.32,1.22,1.06,1.22a1.28,1.28,0,0,0,1-.5h0v.43Z"/>
    <path class="a" d="M21.39,41.83a2.1,2.1,0,0,0,.6-.07l0-.64a.75.75,0,0,1-.37.08c-.31,0-.38-.25-.38-.51V39.24h.72v-.6h-.72v-.88L20.4,38v.62h-.6v.6h.6v1.58a.92.92,0,0,0,1,1"/>
    <path class="a" d="M25.59,41.76v-2c0-.7-.32-1.22-1.06-1.22a1.18,1.18,0,0,0-1,.5h0V37.22h-.81v4.54h.81V40.23c0-.39.13-1,.71-1s.53.51.53.9v1.66Z"/>
    <path class="a" d="M29.47,40.79h1.71l.37,1h.93l-1.65-4.22h-1l-1.64,4.22h.88Zm.86-2.41h0L31,40.13H29.72Z"/>
    <path class="a" d="M36.06,41.76V38.65h-.81v1.52c0,.4-.13,1-.71,1s-.53-.51-.53-.89V38.65H33.2v2c0,.7.32,1.22,1.06,1.22a1.28,1.28,0,0,0,1-.5h0v.43Z"/>
    <path class="a" d="M37.82,41.24A1.73,1.73,0,0,1,37,41L37,41.7a3.52,3.52,0,0,0,.92.13c.66,0,1.3-.29,1.3-1,0-1.12-1.4-.8-1.4-1.3,0-.27.26-.35.47-.35a1.9,1.9,0,0,1,.73.14l0-.61a3.39,3.39,0,0,0-.88-.12c-.63,0-1.22.3-1.22,1,0,1.12,1.41.71,1.41,1.32,0,.3-.33.38-.53.38"/>
    <path class="a" d="M41.32,41.83a2.1,2.1,0,0,0,.6-.07l0-.64a.75.75,0,0,1-.37.08c-.31,0-.38-.25-.38-.51V39.24h.72v-.6h-.72v-.88l-.81.26v.62h-.6v.6h.6v1.58a.92.92,0,0,0,1,1"/>
    <path class="a" d="M43.41,39.35h0v-.71h-.72v3.12h.81V40.62c0-.45,0-1.27.66-1.27a.87.87,0,0,1,.36.06V38.6a.72.72,0,0,0-.25,0,1,1,0,0,0-.85.78"/>
    <path class="a" d="M45.4,38.81l0,.69a1.67,1.67,0,0,1,1-.34c.48,0,.7.17.7.68h-.45a2.48,2.48,0,0,0-1,.18.91.91,0,0,0-.53.89,1,1,0,0,0,1.08.92,1.09,1.09,0,0,0,1-.54h0a2.81,2.81,0,0,0,0,.47h.72c0-.24,0-.46,0-.7s0-.46,0-.78v-.4c0-.91-.39-1.31-1.34-1.31a2.66,2.66,0,0,0-1.08.24M46.91,41a.68.68,0,0,1-.57.28c-.29,0-.51-.12-.51-.38,0-.48.54-.54.9-.54h.35a1,1,0,0,1-.17.64"/>
    <rect class="a" x="48.88" y="37.22" width="0.81" height="4.53"/>
    <rect class="a" x="50.8" y="37.3" width="0.81" height="0.77"/>
    <rect class="a" x="50.8" y="38.64" width="0.81" height="3.11"/>
    <path class="a" d="M53.6,41.83a1.11,1.11,0,0,0,1-.54h0c0,.1,0,.3,0,.47h.71c0-.24,0-.46,0-.7s0-.46,0-.78v-.4c0-.92-.39-1.31-1.34-1.31a2.66,2.66,0,0,0-1.08.24l0,.69a1.67,1.67,0,0,1,1-.34c.48,0,.7.17.7.68h-.44A2.5,2.5,0,0,0,53,40a.91.91,0,0,0-.53.89,1,1,0,0,0,1.09.92m.58-1.51h.35a1,1,0,0,1-.17.64.68.68,0,0,1-.57.28c-.29,0-.51-.12-.51-.38,0-.48.54-.54.9-.54"/>
    <path class="a" d="M27.23,2.42v0c-.11.06-.3,0-.33.19s0,.46,0,.67,0,.23.05.32a5.11,5.11,0,0,0,0,.78.72.72,0,0,0,.4.76,1,1,0,0,0,.91-.08c.42-.37.2-1,.23-1.49,0-.35.07-.71-.17-1-.08-.11-.22-.13-.34-.18.32,0,.7,0,1,0v0c-.17.06-.34.12-.4.31a3.78,3.78,0,0,0,0,1.06c0,.44.16,1.06-.28,1.37a1.53,1.53,0,0,1-1.48,0c-.45-.26-.28-.82-.34-1.24s-.06-.8-.05-1.21c-.05-.17-.22-.13-.34-.17s0,0,0-.06a10.65,10.65,0,0,0,1.13,0"/>
    <path class="a" d="M20.33,17.85h0c-.1-.07-.17-.26-.32-.2s-.4.24-.59.32-.2.11-.26.19a6.58,6.58,0,0,0-.67.4.73.73,0,0,0-.47.73,1,1,0,0,0,.51.75c.53.18,1-.3,1.42-.53.29-.2.65-.28.79-.63a.82.82,0,0,0,0-.38c.18.27.35.6.52.87l0,0a.53.53,0,0,0-.46-.21,3.69,3.69,0,0,0-.94.5c-.4.2-.85.65-1.33.41a1.53,1.53,0,0,1-.7-1.31c0-.52.59-.64.93-.9s.68-.44,1-.63c.12-.13,0-.26,0-.38s0,0,.06,0c.17.35.35.67.54,1"/>
    <path class="a" d="M31.08,2.89c.6.22,1.18.48,1.77.7,0,.05.17,0,.18.05-.07.3-.13.62-.18.92h0a1.49,1.49,0,0,0-.41-1,.92.92,0,0,0-.25-.15c-.13.12-.14.33-.22.48-.13.3-.23.59-.35.88,0,.06-.06.08,0,.13a2,2,0,0,0-.08.22c-.12.21-.15.42-.25.63a.26.26,0,0,0,.14.24c.05,0,.13,0,.16.1s-.08,0-.13,0c-.34-.18-.71-.28-1.06-.44v0c.15,0,.35.13.47,0,.17-.4.3-.81.47-1.22,0,0,0,0,0-.08.13-.32.23-.66.37-1,0-.09,0-.12-.1-.14a1.33,1.33,0,0,0-1.18.43c0-.06.05-.1.07-.17.17-.2.26-.45.43-.64.07,0,.11.1.18.13"/>
    <path class="a" d="M24.26,6a.91.91,0,0,1-.86.18c-.53-.19-.72-.62-.95-1.08a3.19,3.19,0,0,1-.11-.33,1.1,1.1,0,0,1,.19-1,1,1,0,0,1,.87-.24,1.82,1.82,0,0,1,1,1.16A1.16,1.16,0,0,1,24.26,6m.39-2A1.56,1.56,0,0,0,23,3.38a1.53,1.53,0,0,0-1.06,1.3,1.66,1.66,0,0,0,.13.73,1.53,1.53,0,0,0,2.73.06,1.53,1.53,0,0,0-.13-1.53"/>
    <path class="a" d="M34.81,4.76c.25.27.54.53.81.78,0,0,0,0,0,0s-.28-.25-.43-.07a7.57,7.57,0,0,0-.68.72l0,.08a9.26,9.26,0,0,0,.86.79,3.19,3.19,0,0,0,.47-.44c.1-.14.37-.24.3-.45S36,6.07,36.05,6s.07,0,.08.08c.24.26.5.49.75.72,0,0,0,0-.07,0s-.2-.18-.32-.13-.22.24-.34.32c-.46.51-.94.91-1.37,1.42-.06.13.08.23.12.34s0,0-.07,0c-.25-.28-.53-.53-.77-.79.08-.06.15.11.24.1s.25-.12.36-.21.44-.44.64-.66l0-.08c-.29-.24-.56-.57-.86-.82a1.42,1.42,0,0,0-.3.25c-.18.21-.43.43-.6.65s.09.23.14.34,0,0,0,0l-.79-.79s0,0,0,0,.24.2.37.11c.54-.54,1.09-1.08,1.61-1.62.06-.07.12-.15.06-.25s-.21-.16-.07-.2"/>
    <path class="a" d="M20.61,6.1s0,0,0,0c-.36-.17-.84-.39-1.22-.11a.51.51,0,0,0,0,.92c.45.12.81-.2,1.19-.32a.79.79,0,0,1,.85.1.87.87,0,0,1,.28.87,1.43,1.43,0,0,1-.84.86s-.07.09-.06.13l0,.12h-.05c-.27-.27-.62-.54-.87-.81.12,0,.21.12.32.16a1,1,0,0,0,1,.08.75.75,0,0,0,.34-.63.53.53,0,0,0-.31-.43c-.36-.19-.73.07-1,.22a.92.92,0,0,1-.85.09A.8.8,0,0,1,19,6.6a1.07,1.07,0,0,1,.76-.85.16.16,0,0,0,.09-.12s-.06-.08,0-.12c.25.17.5.39.76.59"/>
    <path class="a" d="M38.05,15.12a5.9,5.9,0,0,1-.06.59h-.06c-.31-.17-.63-.29-.92-.48a.71.71,0,0,1,.17-.11c.3-.06.57-.18.84-.26.09.06,0,.18,0,.26m1.23-1.31c-.09,0,0,.2-.17.24l-1.55.53a10.22,10.22,0,0,1-1.19.37s-.12,0-.13.06a1.81,1.81,0,0,1,.5.33.41.41,0,0,1,.19-.08l.8.42a5,5,0,0,1,1.16.71c.08.07,0,.2.1.29s0,0,0,0a6.84,6.84,0,0,1,.08-.91,0,0,0,0,0,0,0,1.45,1.45,0,0,1-.17.26.58.58,0,0,1-.41,0,1.26,1.26,0,0,1-.44-.24c0-.31,0-.62.09-.93a4.53,4.53,0,0,1,.84-.24c.18,0,.11.22.16.31s0,0,.05,0a5.91,5.91,0,0,1,.1-1Z"/>
    <path class="a" d="M18.4,14.93c-.26.14-.5.32-.74.46-.1,0-.08-.16-.1-.24s0-.4-.08-.58l.06,0c.34.09.68.13,1,.23a.43.43,0,0,1-.15.15m.39-.31c-.06,0-.09.1-.17.12l-.88-.21a5,5,0,0,1-1.3-.41c-.1,0-.1-.18-.17-.26s0,0,0,0a5.44,5.44,0,0,1,.14.9,0,0,0,0,0,0,0,1.11,1.11,0,0,1,.1-.29.6.6,0,0,1,.4-.11,1.49,1.49,0,0,1,.49.13c0,.32.11.61.13.93a4.57,4.57,0,0,1-.75.43c-.18,0-.16-.18-.24-.26s0,0,0,0a6.4,6.4,0,0,1,.16,1h0c.07-.07,0-.21.11-.28l1.37-.89a10.51,10.51,0,0,1,1.07-.65s.1,0,.1-.09a1.8,1.8,0,0,1-.55-.19"/>
    <path class="a" d="M32.29,23.19c-.15.1-.36.18-.52.27l0-.06c0-.34-.09-.68-.1-1a.42.42,0,0,1,.19.09c.22.21.46.38.67.56,0,.11-.13.13-.2.17m1.47.32-1.28-1a10.42,10.42,0,0,1-.95-.81s-.08-.08-.12-.07a1.68,1.68,0,0,1,0,.59c.06,0,.12.05.17.12l.08.9a5.15,5.15,0,0,1,0,1.36c0,.11-.14.15-.19.24a0,0,0,0,0,0,0,6,6,0,0,1,.8-.41,0,0,0,0,0,0-.05,1.61,1.61,0,0,1-.31,0,.51.51,0,0,1-.22-.34,1.45,1.45,0,0,1,0-.51c.29-.12.54-.3.84-.42a5,5,0,0,1,.65.57c.08.17-.12.21-.18.31s0,0,.05,0a6.32,6.32,0,0,1,.93-.48v0c-.1-.05-.2.08-.31,0"/>
    <path class="a" d="M35.83,17.45c.47.29,1,.46,1.46.7l.76.34a.2.2,0,0,0,.19-.06c.07-.05.06-.17.15-.16a6.17,6.17,0,0,1-.29.65,2.48,2.48,0,0,1-.17.38s0,0,0-.06.08-.2,0-.29l-.07-.06-2.16-1a.21.21,0,0,0-.17.06c-.07.05-.06.16-.15.17s0-.07,0-.1a9.64,9.64,0,0,0,.43-.93l0,0c0,.12-.1.25,0,.36"/>
    <path class="a" d="M30.88,12.07a1.1,1.1,0,0,1-.39.12c-.06,0,0-.09,0-.13a.74.74,0,0,1,.4-.23l0,0c0,.09,0,.15-.07.2m-.06.27a.37.37,0,0,1-.33.11s0-.07,0-.1.22-.21.36-.13,0,.07,0,.12m-.19,1.35c-.15.05-.26,0-.39,0,.11.1.27.18.27.35s-.05.07-.09.07-.26-.13-.38-.18,0,0,0,0a.38.38,0,0,1,.15.29c-.06.1-.15,0-.22,0s-.11-.14-.19-.13.19.19,0,.25a.29.29,0,0,1-.31-.15.39.39,0,0,1-.06-.24c.12-.26.32-.49.44-.75s.1-.39.17-.58c0,0,.05,0,.08,0s0,.14,0,.2.13-.16.22-.1,0,.12,0,.18-.2.1-.12.2.2-.15.32,0a.13.13,0,0,1,0,.12c-.06.07-.15.1-.19.17a.41.41,0,0,1,.37.24s0,.09-.07.09m-.38-3.21s.05-.05.08,0a.51.51,0,0,1,.11.16c0,.16-.11.28-.1.45l0,0c.07-.08.05-.28.2-.25s0,.09,0,.14-.13.35-.25.5c-.05,0-.06-.06-.08-.09a2.52,2.52,0,0,1,0-.91m.48.56a.1.1,0,0,1,.07.05c0,.11-.08.16-.13.24l-.19.28s0,0-.07,0a.14.14,0,0,1,0-.15,1.6,1.6,0,0,1,.29-.44m.1.32c.08,0,.05.13.08.2l0,.07L30.5,12s-.08,0-.08-.06.06-.17.09-.25a1.18,1.18,0,0,1,.32-.31m-2.07,4.8c0,.05-.09,0-.12,0a1,1,0,0,1-.21.75l-.07.08s.09,0,.07.12a1.65,1.65,0,0,1-.31.67c-.07.08-.14.25-.29.22a1.63,1.63,0,0,1-.56-1s0-.08,0-.07.06,0,.1,0a1,1,0,0,1-.15-.24.89.89,0,0,1-.11-.6c-.05,0-.09,0-.14,0s-.05-.24-.11-.33a1.23,1.23,0,0,1,0-.2,4.56,4.56,0,0,0,.18-.6c0-.1,0-.19.08-.28a2.32,2.32,0,0,0,0-.7c.07-.14.28-.05.4-.13a.71.71,0,0,0,.51-.59c0-.1,0-.23.14-.26s.22.12.28.22,0,.13.07.18a1.3,1.3,0,0,1,0,.62,2.25,2.25,0,0,0,.05,1c0,.15.13.25.13.39.16.18,0,.4,0,.62m.45,1.24a3.41,3.41,0,0,1,.38.38.06.06,0,0,1,0,.08h-.77c-.11-.1-.26-.18-.33-.31s.1-.29.13-.44.12.06.2.09.31.06.43.2m.31.9c-.22.11-.33-.16-.48-.24s0,0,.07-.06h.45c.05,0,0,.07.06.1a.29.29,0,0,1-.1.19m-.07.5c-.12,0-.17-.14-.24-.2-.25-.25-.51-.53-.74-.79v0l.07,0a7.34,7.34,0,0,1,.93.92s0,.08,0,.08m-.14.3s-.08,0-.12,0c-.2-.36-.55-.61-.75-1-.05-.08-.17-.14-.14-.25s0,0,.07,0a3.68,3.68,0,0,1,.5.54c.16.21.35.35.49.56a.22.22,0,0,1-.05.16m-.25.09s0,0-.08.06-.12-.21-.2-.3a3.33,3.33,0,0,1-.57-.93s0-.07,0-.07c.25.26.4.6.65.87a.46.46,0,0,1,.17.37m-.48.19c-.09-.06-.09-.19-.13-.29a6.66,6.66,0,0,1-.39-1c.1-.15.14.08.19.14.13.35.45.62.45,1a.16.16,0,0,1-.12.12m-.37,0c-.1,0-.1-.11-.17-.15-.3-.18-.1-.6-.15-.89,0-.07,0-.17.05-.21s.07,0,.09.07a4.23,4.23,0,0,1,.22,1.08s0,.08,0,.1m-.42-.31c-.07.1-.17.17-.25.28h-.06c-.09-.15,0-.3,0-.46s.16-.5.22-.75c0,0,.08,0,.08,0,0,.29,0,.58,0,.89m-.54.25a.21.21,0,0,1-.11,0,.16.16,0,0,1-.08-.22c0-.14.11-.26.14-.4s.26-.52.37-.77c0,0,0,0,.06,0a7.58,7.58,0,0,1-.21.82,1.11,1.11,0,0,0-.17.49m-.4-.19s-.07,0-.11,0,0-.11,0-.16c.22-.34.43-.67.69-1,0,0,0,0,0,0a3.53,3.53,0,0,1-.45.83,1.29,1.29,0,0,0-.19.32m-.17-.37c-.06.07-.09.21-.21.19s.09-.25.15-.36c.22-.25.49-.46.72-.7h0a1.89,1.89,0,0,1-.26.39c-.12.17-.34.28-.43.47m-.3-.09a.06.06,0,0,1-.07,0c0-.09,0-.14.07-.2a6.78,6.78,0,0,1,.84-.66h0c0,.07-.07.11-.12.16-.18.24-.46.38-.63.61-.05,0-.07.11-.13.11m-.16-.4-.06,0a.29.29,0,0,1,.18-.23.37.37,0,0,1,.29,0v0c-.13.08-.2.32-.4.22m0-.54c.23-.34.63-.34.93-.58.13,0,.12.17.17.26a.21.21,0,0,1,0,.2c-.12.05-.21.19-.34.23s-.51,0-.73,0c-.05,0,0-.07,0-.1M27,12.86l0,0c.06,0,.17,0,.25,0s.13.05.19,0c.07-.19-.19-.29-.28-.43s0,0,0,0a.39.39,0,0,1,.34.12c0,.16.12.33,0,.47s-.32-.07-.47-.12m.73-.11c.05,0,.12,0,.13.07s0,.1,0,.12-.08,0-.11,0,0-.05,0-.1,0-.06.07-.07m2.13,5.37c0-.05.05-.09.09-.11s.31-.06.38.06-.08.13-.13.19a.39.39,0,0,1-.28,0,.17.17,0,0,1-.06-.16m.49.12a.44.44,0,0,1,.31-.25A1.29,1.29,0,0,1,31,18a.29.29,0,0,1,0,.16c-.16.18-.41.12-.65.12,0,0-.06,0,0-.07m-4.48.05c-.12,0-.28.05-.39,0s.06-.21.18-.24.21,0,.29,0a.21.21,0,0,1-.08.25m-.52-.05a.79.79,0,0,1-.62.05.18.18,0,0,1,0-.14c.11-.22.4-.09.59-.13a.13.13,0,0,1,.12,0,.27.27,0,0,1-.05.18m1.11-4.08c-.07.1-.15.22-.3.21a.21.21,0,0,1-.08-.16s0-.07,0-.09-.13.15-.23.13-.1,0-.11-.06.07-.2.12-.3c-.12,0-.2.16-.35.12s-.11-.07-.08-.14a.37.37,0,0,1,.14-.24v0c-.11,0-.28.14-.38,0s0-.12.1-.17a1,1,0,0,0,.23-.11c0-.05-.08,0-.12-.06s-.16-.15-.15-.26.11,0,.16,0,.16.13.26.13,0-.1,0-.16-.08-.15,0-.24.05,0,.08,0,.07.12.14.1-.07-.18,0-.22c.15.12.1.35.15.5s.25.34.37.51.21.37.13.58M24.92,12.4a1.46,1.46,0,0,1,0-.22s.07-.06.1,0,.13.12.19.06l0,0-.28-.29a.07.07,0,0,1,0-.11c.1,0,.18.08.28.1s0,0,0-.07-.23-.14-.28-.26,0-.15.06-.17.06.09.14.09-.22-.28-.06-.4.11.07.13.12.25.27.19.44a2.08,2.08,0,0,0,0,.86.1.1,0,0,1,0,.09.59.59,0,0,1-.39-.16m.3-1.73c.11,0,.08.14.13.2s0,.07,0,.12.07.22,0,.34a.06.06,0,0,1-.08-.06c-.08-.13-.12-.28-.2-.41a.3.3,0,0,1,.1-.19m.36-.43,0,0c0,.1,0,.16,0,.26a1.21,1.21,0,0,1-.11.6h0a3.05,3.05,0,0,0-.17-.61c.05-.1.11-.27.25-.28M34,13.49a.09.09,0,0,1,0-.15,3.05,3.05,0,0,0,.5-.28c0-.14-.2-.18-.29-.27s-.27-.09-.35-.2.28-.27.42-.45a.55.55,0,0,0-.17-.13c-.13-.07-.3,0-.41-.11s-.06-.06,0-.1.27-.19.4-.32v-.06c-.09-.13-.28-.14-.43-.15s-.26.11-.31,0a2.92,2.92,0,0,1,.4-.45s0-.09,0-.1a1.09,1.09,0,0,0-.66.1c-.12,0-.23.15-.35.08s0,0,0-.05a2,2,0,0,1,.48-.45c.1-.08.24-.18.25-.32s-.08,0-.13,0a3,3,0,0,0-1.19.58c-.06,0-.14.12-.2,0s.08-.15.13-.21a1.18,1.18,0,0,0,.53-.57c0-.21.27-.34.29-.58a.13.13,0,0,0-.09,0,2,2,0,0,0-1,.71.58.58,0,0,1-.26.23c-.06-.09,0-.18.07-.24a1.81,1.81,0,0,1,.39-.61c0-.14.12-.25.14-.4s0-.19,0-.24a.15.15,0,0,0-.1,0,2.71,2.71,0,0,0-.76.9c0,.05-.09.16-.15.1a.42.42,0,0,1,0-.38c0-.14.15-.26.18-.41a5.32,5.32,0,0,1,0-.69.05.05,0,0,0-.06,0c-.33.18-.38.57-.49.87a.07.07,0,0,1-.07,0,3.88,3.88,0,0,1,0-.84c0-.16,0-.36-.22-.43-.18.17-.14.46-.15.67,0,0,0,.14-.11.1s-.09-.19-.18-.13a26.25,26.25,0,0,0,.11,3.07,8.75,8.75,0,0,0-.3,1.25,2.09,2.09,0,0,1-.54,1.08l-.07,0c-.17-.07-.44.08-.51-.15a1.44,1.44,0,0,0-.39-.81A3.46,3.46,0,0,0,27,12.29c-.09,0-.22,0-.27,0a1.28,1.28,0,0,1,.5.38s0,.06,0,.07l-.36-.06c-.06,0-.12-.05-.19,0v.05a2.87,2.87,0,0,0,.5.36c.14.05.13.21.17.32a.49.49,0,0,1-.17.44c-.2.19-.32-.2-.53,0-.07,0-.16,0-.21-.05,0-.28-.3-.42-.42-.68a1.87,1.87,0,0,0-.29-.85,2.34,2.34,0,0,1-.07-1.43c.07-.39.13-.76.18-1.16a1.32,1.32,0,0,0,0-.34,1.86,1.86,0,0,0,0-.47c-.05-.09,0-.24-.07-.35s-.15.23-.3.21,0-.23-.05-.36a2.48,2.48,0,0,0-.07-.61h-.05a.71.71,0,0,0-.22.67,4.6,4.6,0,0,1,0,.83c0,.1.09.27-.07.29s0-.15-.09-.24a7,7,0,0,0-.2-.69c-.08-.13-.09-.31-.23-.4s-.09,0-.12,0a1,1,0,0,0,0,.64,1.14,1.14,0,0,0,.1.45.34.34,0,0,1,0,.35s-.09,0-.13-.09a3.31,3.31,0,0,0-.53-.73c-.09,0-.14-.16-.24-.14a.92.92,0,0,0,.09.49c.19.23.21.55.42.77,0,.05,0,.1,0,.14s-.06,0-.08,0A6.4,6.4,0,0,0,23,9.34s-.1,0-.11,0c0,.39.46.64.6,1,0,.06-.06,0-.11,0a4.81,4.81,0,0,0-1-.51s-.08,0-.09,0a.93.93,0,0,0,.4.66.07.07,0,0,1,0,.08,2.88,2.88,0,0,0-.59-.06c-.06,0-.15,0-.17,0s.26.3.39.47a.11.11,0,0,1,0,.08c-.22.11-.51,0-.74.12a3.47,3.47,0,0,0,.3.4s0,.09,0,.11a1,1,0,0,0-.48.24c.08.15.23.24.34.38s.09.11,0,.16a3.47,3.47,0,0,0-.42.34s0,.08,0,.1.33.21.39.38c-.12.17-.31.27-.38.46s.14.12.21.19.21,0,.27.14-.2.23-.19.38.18.09.26.12.37-.09.44.09a1.12,1.12,0,0,0-.13.44c.06.09.18.06.26.09s.25-.06.35,0,0,.14-.06.21-.1.19,0,.28a2.93,2.93,0,0,0,.59,0c.14,0,.1.18.15.28s.25,0,.37,0,.12.19.21.28.13,0,.21,0c.23-.17.27.14.44.22s.14-.1.24-.08.16.14.23.2.18-.11.29-.16.22.12.32.18.18-.07.28-.1.21.06.32.05a.83.83,0,0,0,.17-.26c.08-.21,0-.49.12-.66a.1.1,0,0,1,.09,0l.17.68c.06.18-.07.36-.11.54a8.15,8.15,0,0,1-.74.69c-.18.21-.45,0-.7.13s-.59,0-.81.19a.26.26,0,0,0-.07.28c.11.22.4.17.62.16s.23.14.35.08.21,0,.32,0,.19-.09.3-.11.09,0,.11,0a2.54,2.54,0,0,0-.32.55c-.05.18.21.15.18.33s.3.08.31.27.18.06.27.08.13.16.22.22a1.64,1.64,0,0,0,.22,0c.1,0,.14.09.21.15l.23-.08c.15,0,.18.17.29.23s.19-.18.34-.2l.29.13c.09-.06.1-.19.19-.24a.33.33,0,0,1,.22,0c.11,0,.11-.1.18-.15s.16,0,.25,0,.06-.12.09-.19.15-.09.24-.12.17-.17.28-.24a.71.71,0,0,0-.19-.41c0-.11-.14-.21-.17-.32a.17.17,0,0,1,.06-.06c.1,0,.16,0,.23.11a.31.31,0,0,0,.3-.1c.08-.06.13.05.2.09a.25.25,0,0,0,.26-.05c.12-.14.37,0,.49-.18a.51.51,0,0,0,.06-.22c-.13-.22-.41-.18-.63-.19-.21-.22-.56,0-.79-.19a6.67,6.67,0,0,1-.86-.92c-.17-.28.06-.56.07-.84,0,0,.05-.11.11-.1a.12.12,0,0,1,.11.08c.08.28.07.64.37.8.11,0,.15-.11.27-.11a.55.55,0,0,1,.2.17c.1,0,.16-.13.24-.16s.2.1.33.09a1.12,1.12,0,0,1,.17-.21c.13,0,.2.09.3.11s.1-.2.2-.28a.38.38,0,0,1,.26.06c.18.07.13-.15.22-.22s.33,0,.5,0a.24.24,0,0,0,.1-.14c0-.3.34-.14.52-.2s0-.36.14-.47a3.27,3.27,0,0,0,.54,0c.09-.06,0-.13,0-.2s-.22-.24-.07-.34a4.78,4.78,0,0,0,.53-.06l.06,0a.89.89,0,0,0-.11-.26c0-.08-.15-.14-.16-.24S34,14,34.09,14s.21-.07.22-.17a3.09,3.09,0,0,0-.32-.29"/>
    <path class="a" d="M22.89,20.9a.12.12,0,0,0,.19.06s0,0,.05,0V21c-.21.24-.36.52-.56.75h0a1.29,1.29,0,0,0,.12-1.11.67.67,0,0,0-.62-.35.49.49,0,0,0-.4.4c0,.71,1,1.35.26,2a.88.88,0,0,1-.83.19,1.46,1.46,0,0,1-.83-.75s-.07-.09-.12-.09-.11.05-.15,0a1.43,1.43,0,0,1,.23-.27c.18-.21.34-.44.54-.64h0v0a1.21,1.21,0,0,0-.25,1.2.75.75,0,0,0,.65.41.63.63,0,0,0,.47-.29c.22-.51-.26-.92-.41-1.37a.73.73,0,0,1,.1-.7.84.84,0,0,1,.77-.28,1.21,1.21,0,0,1,.82.72"/>
    <path class="a" d="M34.09,19.81c0,.07-.07.13-.1.18a.25.25,0,0,0,0,.25c.52.53,1.08,1,1.62,1.55a.33.33,0,0,0,.29.05,1.13,1.13,0,0,0,.45-1.07,1.32,1.32,0,0,0-.21-.56s0,0,0-.05a2.9,2.9,0,0,1,.43.55l.21.27c0,.07-.08.11-.12.16-.4.47-.92.88-1.32,1.39,0,0,0,0-.08,0s.17-.18.11-.31l-.08-.13c-.56-.52-1.13-1.08-1.68-1.59-.14-.06-.23.09-.34.13s0-.09.06-.14a7.39,7.39,0,0,0,.67-.7Z"/>
    <path class="a" d="M24.34,21.66c.63.21,1.22.47,1.84.66.06,0,.12,0,.15,0,0,.32-.09.6-.12.93h0a.17.17,0,0,1,0-.14,1.18,1.18,0,0,0-.64-1c-.11,0-.12.15-.15.23-.27.7-.5,1.4-.76,2.09a.21.21,0,0,0,0,.17c.08.11.19.13.28.19v0a1.16,1.16,0,0,1-.41-.13c-.28-.1-.55-.17-.82-.29.09-.08.19,0,.32,0s.13-.08.18-.14c.09-.36.26-.68.35-1s.32-.83.45-1.27a1,1,0,0,0-1,.2l-.23.21h0c.12-.29.34-.54.49-.83.08,0,.08.08.15.09"/>
    <path class="a" d="M28.15,23.84a1.49,1.49,0,0,1-.06-.51,2.31,2.31,0,0,0,0-.37c0-.13,0-.26,0-.41s0-.06,0-.07c.28,0,.61,0,.79.22a.93.93,0,0,1-.07,1,.87.87,0,0,1-.68.16m1.93,1.29c-.55,0-.57-.6-.84-.92a1,1,0,0,0-.6-.34,1.61,1.61,0,0,0,.8-.45.85.85,0,0,0,0-.5.92.92,0,0,0-.73-.49c-.48-.05-1,0-1.45,0,0,0-.06,0,0,0s.27,0,.34.16c0,.62.06,1.24.08,1.87a2.91,2.91,0,0,1,0,.59c-.06.11-.2.09-.3.12s0,0,0,.05l1.11,0,0,0c-.06-.05-.15,0-.22-.05a.22.22,0,0,1-.15-.16,3.25,3.25,0,0,1,0-.54s0,0,0-.07-.06-.34,0-.45a.46.46,0,0,1,.46.11,11.69,11.69,0,0,1,.73,1.15l.71,0s0,0,0-.05"/>
    <path class="a" d="M27.81,27.78A13.88,13.88,0,0,1,14.17,16.54l1.34-.26a12.53,12.53,0,0,0,24.61-.06l1.34.26A13.9,13.9,0,0,1,28.37,27.77h-.56"/>
    <path class="a" d="M15.49,11.63l-1.35-.25a13.9,13.9,0,0,1,27.33,0l-1.35.25a12.52,12.52,0,0,0-24.63,0"/>
    <path class="a" d="M15.42,12l-1.36-.2,0-.18,1.35.22a1,1,0,0,0,0,.16m-.05.32L14,12.18A1.1,1.1,0,0,1,14,12l1.35.18a.78.78,0,0,1,0,.16m0,.33L14,12.53a1,1,0,0,1,0-.17l1.35.15c0,.05,0,.1,0,.16m0,.32L14,12.89c0-.06,0-.12,0-.18l1.36.12c0,.05,0,.1,0,.16m0,.32-1.36-.06a1.09,1.09,0,0,1,0-.18l1.36.08c0,.06,0,.11,0,.16m0,.33-1.36,0v-.18l1.37,0a1,1,0,0,0,0,.17M13.91,14v-.18h1.37V14Zm0,.36v-.18l1.36,0a.81.81,0,0,0,0,.16Zm0,.36a1.09,1.09,0,0,1,0-.18l1.36-.06c0,.05,0,.11,0,.16ZM14,15c0-.06,0-.11,0-.17l1.36-.1v.16Z"/>
    <path class="a" d="M40.18,12l0-.16,1.35-.22,0,.18Zm0,.32,0-.16,1.36-.19,0,.18Zm0,.32a1,1,0,0,0,0-.16l1.36-.15a1.1,1.1,0,0,1,0,.18Zm0,.33c0-.06,0-.11,0-.16l1.36-.12c0,.06,0,.12,0,.17Zm0,.32V13.1L41.67,13v.18Zm0,.33v-.17l1.36-.05a1.09,1.09,0,0,1,0,.18Zm1.37.32H40.33a.76.76,0,0,0,0-.15l1.37,0v.17Zm0,.36-1.37,0v-.16l1.37,0v.18m0,.36-1.36-.07a.81.81,0,0,1,0-.16l1.36,0a1.09,1.09,0,0,1,0,.18m0,.36-1.36-.11v-.16l1.36.09c0,.06,0,.12,0,.18"/>
    <path class="a" d="M27.84,6.44h-.31a7.35,7.35,0,1,0,.31,0m0,15.06a7.84,7.84,0,1,1,.32,0h-.32"/>
  </g>
</svg>
