<?xml version="1.0" encoding="utf-8"?>
<!-- Generator: Adobe Illustrator 23.0.0, SVG Export Plug-In . SVG Version: 6.00 Build 0)  -->
<svg version="1.1" id="Layer_1" xmlns="http://www.w3.org/2000/svg" xmlns:xlink="http://www.w3.org/1999/xlink" x="0px" y="0px"
	 width="292.83px" height="70.48px" viewBox="0 0 292.83 70.48" style="enable-background:new 0 0 292.83 70.48;"
	 xml:space="preserve">
<style type="text/css">
	.st0{fill:#00524C;}
</style>
<g>
	<path class="st0" d="M146.23,39.24c-0.23,0.22-0.39,0.34-0.51,0.49c-0.58,0.73-1.15,1.48-1.72,2.21c-0.34,0.44-0.45,0.93-0.41,1.48
		c0.03,0.61-0.03,1.22-0.04,1.82c-0.02,1.16-0.03,2.32-0.04,3.48c0,0.1,0,0.2,0.01,0.31c0.05,0.53,0.26,0.76,0.8,0.83
		c0.62,0.08,1.25,0.13,1.88,0.2c0.12,0.01,0.24,0.04,0.38,0.06c0.04,0.12,0.1,0.24,0.1,0.35c0.01,0.59,0.02,1.18,0,1.77
		c-0.01,0.37-0.12,0.46-0.49,0.47c-0.39,0.01-0.77-0.02-1.16-0.01c-1.44,0-2.89,0.01-4.33,0.02c-0.43,0-0.85,0.06-1.28,0.06
		c-1.1,0.02-2.19,0.02-3.29,0.03c-0.06,0-0.11-0.03-0.22-0.06c-0.02-0.14-0.06-0.3-0.07-0.45c-0.03-0.63,0.09-1.26-0.01-1.89
		c-0.04-0.24,0.08-0.37,0.35-0.42c0.32-0.06,0.64-0.09,0.96-0.11c0.34-0.03,0.69-0.02,1.03-0.07c0.49-0.08,0.62-0.24,0.66-0.73
		c0.03-0.39,0.01-0.77,0.02-1.16c0.05-1.42-0.1-2.84-0.12-4.27c-0.04-2.01-0.02-4.02,0.02-6.04c0.03-1.28,0.01-2.56,0.01-3.84
		c0-1.56-0.01-3.13,0-4.69c0.01-0.77,0.04-1.54,0.07-2.32c0.01-0.28,0.02-0.57,0-0.85c-0.04-0.47-0.15-0.6-0.62-0.68
		c-0.54-0.09-1.09-0.14-1.63-0.21c-0.14-0.02-0.28-0.04-0.43-0.06c-0.04-0.13-0.1-0.24-0.09-0.35c0.01-0.65,0.02-1.3,0.05-1.95
		c0.02-0.39,0.1-0.44,0.5-0.41c0.12,0.01,0.25,0.05,0.36,0.02c0.71-0.14,1.42,0.01,2.13,0.01c0.79,0.01,1.59-0.01,2.38-0.01
		c1.08,0,2.15,0.01,3.23,0c0.47,0,0.93-0.04,1.4-0.06c0.36-0.02,0.51,0.1,0.52,0.43c0.02,0.69,0.03,1.38-0.1,2.06
		c-0.01,0.08-0.05,0.15-0.08,0.27c-0.19,0.04-0.38,0.08-0.58,0.12c-0.54,0.1-1.08,0.2-1.62,0.29c-0.39,0.07-0.55,0.35-0.58,0.69
		c-0.06,0.61-0.08,1.22-0.1,1.82c-0.01,0.34,0,0.69,0,1.03c0,0.81-0.01,1.63-0.01,2.44c0,0.47,0.01,0.93,0,1.4
		c-0.01,1.4-0.03,2.8-0.04,4.2c0,0.1,0.02,0.2,0.03,0.37c0.11-0.08,0.2-0.11,0.25-0.18c0.33-0.46,0.64-0.94,0.98-1.4
		c0.55-0.75,1.12-1.49,1.69-2.24c0.62-0.83,1.26-1.65,1.86-2.49c0.73-1,1.45-2.01,2.23-2.98c0.69-0.85,1.3-1.77,1.96-2.68
		c-0.28-0.18-0.57-0.15-0.83-0.22c-0.3-0.07-0.6-0.12-0.89-0.19c-0.23-0.05-0.35-0.2-0.35-0.43c-0.02-0.59-0.06-1.18-0.07-1.77
		c0-0.32,0.11-0.44,0.43-0.48c0.28-0.03,0.57-0.03,0.85-0.01c0.41,0.02,0.8-0.03,1.21-0.07c0.74-0.08,1.49-0.17,2.24-0.02
		c0.45,0.09,0.93,0.05,1.4,0.05c0.67,0.01,1.34,0,2.01,0c0.14,0,0.29,0,0.43,0.02c0.19,0.02,0.3,0.13,0.3,0.32
		c-0.01,0.63,0,1.26-0.04,1.89c-0.02,0.35-0.15,0.43-0.5,0.51c-0.44,0.09-0.87,0.18-1.3,0.29c-0.29,0.07-0.5,0.24-0.68,0.48
		c-0.54,0.74-1.09,1.47-1.64,2.2c-0.39,0.52-0.81,1.02-1.2,1.54c-0.51,0.68-1.01,1.37-1.52,2.06c-0.35,0.47-0.71,0.94-1.05,1.42
		c-0.57,0.79-1.13,1.59-1.7,2.38c0.06,0.14,0.09,0.25,0.15,0.36c0.53,0.96,1.07,1.92,1.6,2.88c0.58,1.05,1.14,2.11,1.72,3.16
		c0.87,1.59,1.74,3.17,2.62,4.75c0.36,0.64,0.73,1.27,1.13,1.88c0.52,0.8,1.29,1.29,2.16,1.61c0.2,0.08,0.44,0.06,0.66,0.08
		c0.51,0.05,0.6,0.14,0.62,0.63c0.01,0.3,0.05,0.61,0.06,0.91c0.01,0.28,0.02,0.57,0,0.85c-0.02,0.33-0.12,0.41-0.46,0.46
		c-0.06,0.01-0.12,0.01-0.18,0.01c-1.28,0.02-2.57,0-3.83-0.18c-1.77-0.24-2.98-1.29-3.83-2.81c-0.32-0.57-0.62-1.14-0.93-1.72
		c-0.72-1.34-1.45-2.68-2.18-4.02c-0.39-0.71-0.8-1.41-1.18-2.13c-0.3-0.56-0.56-1.13-0.85-1.69
		C146.7,40.04,146.49,39.7,146.23,39.24"/>
	<path class="st0" d="M173,37.04c0.01,0,0.02,0,0.03,0c0,0.2,0.01,0.41,0,0.61c-0.07,1.28,0.07,2.56,0.18,3.83
		c0.12,1.33,0.51,2.6,0.99,3.83c0.57,1.46,1.57,2.56,3,3.22c0.55,0.25,1.15,0.4,1.73,0.56c0.88,0.24,1.78,0.26,2.66,0.11
		c1.39-0.22,2.66-0.74,3.62-1.84c0.41-0.47,0.8-0.97,1.2-1.46c0.06-0.08,0.11-0.17,0.15-0.27c0.43-0.97,0.77-1.97,0.96-3.01
		c0.17-0.94,0.29-1.89,0.34-2.84c0.09-1.84,0.19-3.69-0.05-5.53c-0.19-1.5-0.39-2.98-1.02-4.37c-0.46-1.03-0.96-2.01-1.81-2.79
		c-0.67-0.62-1.42-1.06-2.32-1.29c-0.84-0.21-1.69-0.24-2.54-0.16c-0.56,0.05-1.14,0.11-1.68,0.28c-0.89,0.29-1.69,0.78-2.42,1.38
		c-0.97,0.8-1.48,1.88-1.92,2.99c-0.47,1.19-0.81,2.44-0.95,3.71C173.06,35.01,173.05,36.03,173,37.04 M192.78,37.05
		c0,0.51-0.02,0.9,0,1.28c0.09,1.56-0.13,3.08-0.5,4.59c-0.11,0.47-0.22,0.95-0.32,1.43c-0.22,1-0.67,1.92-1.08,2.84
		c-0.53,1.16-1.29,2.16-2.15,3.09c-1.08,1.15-2.34,1.99-3.87,2.44c-1.69,0.5-3.41,0.79-5.17,0.69c-1.4-0.08-2.8-0.22-4.14-0.7
		c-1.47-0.53-2.76-1.38-3.82-2.53c-1.15-1.24-1.91-2.71-2.5-4.29c-0.6-1.62-0.9-3.29-0.98-5c-0.02-0.51-0.07-1.02-0.15-1.52
		c-0.15-0.91-0.13-1.82-0.03-2.73c0.08-0.75,0.11-1.5,0.18-2.25c0.05-0.55,0.11-1.09,0.17-1.64c0.07-0.61,0.2-1.2,0.4-1.78
		c0.22-0.65,0.41-1.32,0.64-1.97c0.6-1.64,1.63-2.98,2.87-4.19c0.67-0.66,1.41-1.23,2.22-1.71c0.42-0.24,0.85-0.49,1.3-0.66
		c1.22-0.47,2.48-0.78,3.8-0.78c0.87,0,1.75-0.03,2.62-0.02c1.13,0.01,2.21,0.29,3.24,0.76c0.55,0.26,1.12,0.5,1.64,0.8
		c1.17,0.66,2.11,1.58,2.83,2.72c0.65,1.02,1.21,2.07,1.64,3.19c0.17,0.45,0.28,0.93,0.4,1.41c0.12,0.49,0.24,0.99,0.3,1.49
		c0.15,1.15,0.27,2.3,0.38,3.45C192.77,36.04,192.76,36.61,192.78,37.05"/>
	<path class="st0" d="M276.7,26.7c-0.08,0.21-0.15,0.35-0.19,0.5c-0.3,1.2-0.6,2.4-0.9,3.6c-0.13,0.51-0.23,1.04-0.4,1.53
		c-0.28,0.81-0.41,1.66-0.62,2.48c-0.22,0.87-0.48,1.72-0.73,2.58c-0.19,0.66-0.41,1.32-0.6,1.98c-0.06,0.2-0.12,0.43-0.05,0.68
		c0.56,0.02,1.1,0.04,1.65-0.02c0.28-0.03,0.57-0.02,0.85-0.02c0.53,0.02,1.05,0.05,1.58,0.07c0.89,0.05,1.79-0.07,2.68,0.09
		c0.17,0.03,0.36,0.07,0.52-0.08c0-0.06,0-0.12-0.01-0.17c-0.28-0.89-0.47-1.81-0.7-2.71c-0.62-2.36-1.15-4.74-1.92-7.06
		c-0.35-1.06-0.66-2.14-0.99-3.2C276.84,26.89,276.78,26.83,276.7,26.7 M282.87,49.48c-0.08-0.43-0.13-0.8-0.22-1.15
		c-0.32-1.24-0.65-2.47-0.99-3.71c-0.03-0.1-0.06-0.19-0.09-0.29c-0.09-0.26-0.27-0.4-0.55-0.4c-0.29,0-0.57-0.01-0.85,0.01
		c-0.87,0.08-1.74,0.04-2.62,0.01c-1.38-0.05-2.77-0.03-4.15-0.04c-0.36,0-0.73,0.02-1.06,0.03c-0.25,0.44-1.5,5.04-1.52,5.58
		c0.1,0.03,0.2,0.08,0.32,0.1c0.6,0.08,1.21,0.16,1.81,0.24c0.4,0.05,0.53,0.17,0.62,0.56c0.02,0.12,0.03,0.24,0.03,0.36
		c0,0.51-0.01,1.02-0.02,1.52c-0.01,0.13-0.06,0.27-0.1,0.41c-0.33,0.02-0.63,0.04-0.93,0.04c-2.4,0.02-4.8,0.04-7.19,0.06
		c-0.24,0-0.49,0-0.73-0.02c-0.27-0.02-0.34-0.11-0.38-0.39c-0.02-0.12-0.02-0.24-0.02-0.37c-0.01-0.51-0.02-1.02-0.02-1.52
		c0-0.44,0.12-0.57,0.56-0.64c0.18-0.03,0.36-0.06,0.54-0.1c0.69-0.17,1.14-0.61,1.34-1.28c0.38-1.24,0.72-2.5,1.13-3.73
		c0.32-0.97,0.54-1.96,0.74-2.95c0.08-0.38,0.23-0.74,0.35-1.1c0.28-0.89,0.58-1.78,0.84-2.67c0.44-1.5,0.87-3.01,1.3-4.51
		c0.54-1.9,1.09-3.79,1.63-5.69c0.12-0.43,0.27-0.85,0.39-1.28c0.32-1.2,0.63-2.4,0.95-3.59c0.05-0.2,0.1-0.4,0.16-0.59
		c0.11-0.29,0.3-0.47,0.64-0.47c0.24,0.01,0.49-0.01,0.73-0.01c1.18,0.01,2.36,0.01,3.54,0.02c0.82,0,0.99,0.17,1.2,0.98
		c0.17,0.69,0.4,1.36,0.61,2.04c0.03,0.1,0.07,0.19,0.1,0.29c0.32,1.03,0.64,2.06,0.97,3.08c0.17,0.52,0.36,1.04,0.53,1.56
		c0.2,0.64,0.4,1.28,0.57,1.93c0.31,1.18,0.7,2.33,1.08,3.49c0.28,0.85,0.5,1.72,0.75,2.57c0.17,0.59,0.36,1.17,0.54,1.75
		c0.51,1.65,1.01,3.3,1.53,4.95c0.4,1.3,0.82,2.6,1.23,3.9c0.06,0.19,0.16,0.37,0.26,0.55c0.13,0.21,0.33,0.34,0.59,0.4
		c0.41,0.1,0.82,0.23,1.23,0.36c0.4,0.12,0.59,0.39,0.61,0.81c0.02,0.53,0.08,1.05,0.12,1.58c0.03,0.48-0.15,0.7-0.63,0.68
		c-0.65-0.02-1.3-0.07-1.94-0.1c-0.12-0.01-0.24,0-0.36,0c-1.95,0.04-3.9,0.08-5.85,0.13c-0.37,0.01-0.73,0.02-1.1,0.02
		c-0.18,0-0.37-0.01-0.54-0.05c-0.31-0.06-0.42-0.18-0.44-0.49c-0.04-0.75,0.01-1.5,0.12-2.25c0.03-0.21,0.18-0.33,0.4-0.28
		c0.4,0.09,0.76-0.05,1.14-0.12C282.09,49.62,282.45,49.56,282.87,49.48"/>
	<path class="st0" d="M213.42,26.93c-0.59,1.52-0.96,2.99-1.39,4.43c-0.43,1.46-0.76,2.95-1.16,4.42c-0.4,1.45-0.76,2.92-1.12,4.44
		c1.25-0.02,2.45,0.04,3.64-0.06c0.24-0.02,0.48-0.02,0.73-0.01c0.87,0.01,1.74,0.03,2.62,0.04c0.05,0,0.11-0.04,0.16-0.07
		C216.84,39.31,213.97,28.34,213.42,26.93 M219.44,49.79c0-0.19,0.03-0.34-0.01-0.46c-0.47-1.7-0.94-3.4-1.43-5.14
		c-0.4-0.05-0.78-0.13-1.16-0.14c-0.98-0.03-1.95-0.04-2.93-0.04c-1.3,0-2.6,0.01-3.9,0.02c-0.45,0-0.89,0.02-1.33,0.03
		c-0.23,0.24-0.27,0.53-0.35,0.8c-0.8,2.98-1.09,4.31-1.06,4.95c0.11,0.02,0.22,0.05,0.34,0.06c0.69,0.05,1.38,0.1,2.07,0.15
		c0.37,0.03,0.46,0.15,0.43,0.51c-0.05,0.53-0.08,1.05-0.13,1.58c-0.01,0.16-0.02,0.32-0.06,0.48c-0.06,0.25-0.17,0.34-0.43,0.34
		c-1.06,0.01-2.11-0.01-3.17,0.02c-0.65,0.01-1.3,0.09-1.95,0.1c-0.77,0.01-1.54,0-2.32-0.02c-0.45-0.01-0.89-0.06-1.31-0.09
		c-0.2-0.18-0.16-0.4-0.16-0.59c0-0.57,0.01-1.14,0.02-1.71c0.01-0.46,0.18-0.67,0.66-0.72c0.36-0.04,0.67-0.15,0.98-0.31
		c0.22-0.11,0.41-0.27,0.51-0.5c0.22-0.52,0.49-1.03,0.66-1.57c0.46-1.47,0.91-2.95,1.31-4.44c0.29-1.07,0.64-2.13,0.94-3.2
		c0.39-1.43,0.83-2.85,1.24-4.27c0.43-1.48,0.85-2.97,1.29-4.45c0.34-1.13,0.72-2.24,1.05-3.38c0.5-1.7,0.96-3.4,1.44-5.11
		c0.16-0.57,0.21-0.61,0.8-0.63c1.44-0.03,2.88-0.06,4.32-0.09c0.12,0,0.24,0.01,0.36,0.02c0.29,0.04,0.47,0.17,0.55,0.47
		c0.36,1.29,0.75,2.58,1.13,3.86c0.58,1.97,1.17,3.94,1.75,5.91c0.43,1.44,0.84,2.89,1.28,4.33c0.23,0.76,0.5,1.5,0.73,2.26
		c0.46,1.54,0.91,3.08,1.35,4.62c0.38,1.31,0.73,2.62,1.11,3.93c0.16,0.55,0.35,1.08,0.64,1.58c0.14,0.24,0.31,0.43,0.57,0.52
		c0.45,0.17,0.91,0.35,1.37,0.5c0.4,0.13,0.51,0.24,0.5,0.63c-0.01,0.55-0.02,1.1-0.03,1.64c-0.01,0.52-0.12,0.64-0.64,0.68
		c-0.16,0.01-0.33,0.01-0.49-0.01c-2.03-0.14-4.06-0.09-6.1-0.01c-0.95,0.03-1.91,0.02-2.87,0.01c-0.37,0-0.46-0.11-0.46-0.49
		c-0.01-0.55-0.02-1.1-0.02-1.65c0-0.53,0.09-0.63,0.63-0.7c0.62-0.09,1.25-0.15,1.87-0.23C219.18,49.83,219.28,49.81,219.44,49.79"
		/>
	<path class="st0" d="M243.9,49.15c0.49-0.03,0.91-0.06,1.33-0.1c0.1-0.01,0.2-0.05,0.3-0.05c1.16,0.05,2.31-0.07,3.47,0.06
		c0.78,0.09,1.58,0.03,2.38,0.03c0.27,0,0.36-0.08,0.41-0.36c0.13-0.72,0.26-1.44,0.36-2.16c0.06-0.47,0.27-1.63,0.42-1.98
		c0.61,0,1.24,0,1.86,0c0.26,0,0.53,0.01,0.79,0c0.45-0.01,0.55,0.07,0.58,0.5c0.02,0.26,0.02,0.53,0.02,0.79
		c0.03,1.75,0.06,3.49,0.09,5.24c0,0.37,0.02,0.73,0.01,1.1c-0.01,0.38-0.09,0.46-0.48,0.47c-0.65,0.02-1.3,0.01-1.95,0.02
		c-0.89,0.02-1.79,0.06-2.68,0.07c-1.46,0.02-2.93,0.01-4.39,0.03c-0.75,0.01-1.5,0.07-2.25,0.07c-0.93,0.01-1.87,0.01-2.81-0.03
		c-1.5-0.07-3-0.14-4.51,0.01c-0.1,0.01-0.2,0-0.3-0.01c-0.08-0.01-0.15-0.05-0.25-0.08c-0.03-0.09-0.07-0.19-0.08-0.28
		c-0.02-0.67-0.04-1.34-0.05-2.01c0-0.27,0.11-0.41,0.39-0.46c0.2-0.04,0.4-0.04,0.61-0.05c0.43-0.02,0.85-0.09,1.25-0.23
		c0.43-0.15,0.68-0.42,0.67-0.9c-0.01-0.41-0.01-0.81-0.02-1.22c-0.01-0.63-0.02-1.26-0.04-1.89c-0.03-0.99-0.06-1.99-0.09-2.98
		c-0.03-0.83-0.08-1.67-0.1-2.5c-0.01-0.44,0.07-0.89,0.09-1.33c0.04-0.79,0.11-1.58,0.09-2.37c-0.03-1.26,0-2.52,0.01-3.78
		c0-1.38-0.05-2.76-0.07-4.15c-0.01-0.91-0.01-1.83-0.02-2.74c0-0.08-0.01-0.16-0.01-0.24c0.01-0.31-0.16-0.51-0.44-0.58
		c-0.37-0.09-0.76-0.15-1.14-0.2c-0.26-0.03-0.53-0.01-0.79-0.04c-0.33-0.03-0.42-0.12-0.48-0.45c-0.02-0.14-0.04-0.28-0.04-0.42
		c-0.02-0.45-0.04-0.89-0.06-1.34c-0.02-0.51,0.07-0.59,0.57-0.62c2.56-0.19,5.12-0.08,7.68-0.12c0.89-0.01,1.79-0.01,2.68,0.12
		c0.06,0.01,0.12,0.03,0.16,0.04c0.2,0.16,0.17,0.37,0.17,0.57c0.01,0.57,0.01,1.14,0,1.71c0,0.53-0.2,0.71-0.72,0.62
		c-0.72-0.13-1.42,0.03-2.12,0.11c-0.49,0.06-0.7,0.3-0.66,0.79c0.08,1.02-0.05,2.03-0.03,3.05c0.03,1.3,0,2.6,0.02,3.9
		c0.02,1.83,0.05,3.66,0.08,5.49c0,0.14,0.01,0.29,0.01,0.43c0,1.99,0,3.98,0,5.98c0,0.61-0.03,1.22,0.01,1.83
		c0.05,0.71,0.14,1.41,0.01,2.12C243.83,48.77,243.87,48.92,243.9,49.15"/>
	<path d="M262.88,14.78c0.19-0.18,0.18-0.38,0.18-0.58c-0.03-1.71-0.06-3.41-0.11-5.12c-0.01-0.45-0.07-0.89-0.1-1.34
		c-0.02-0.35-0.18-0.57-0.52-0.66c-0.16-0.04-0.36-0.06-0.39-0.24c-0.05-0.23-0.05-0.48-0.04-0.72c0-0.07,0.12-0.16,0.21-0.19
		c0.11-0.04,0.24-0.03,0.36-0.03c0.85-0.01,1.71-0.02,2.56-0.02c0.39,0,0.47,0.05,0.51,0.36c0.07,0.48-0.02,0.67-0.38,0.77
		c-0.22,0.05-0.43,0.09-0.65,0.15c-0.04,0.01-0.06,0.05-0.14,0.11c-0.01,0.16-0.03,0.36-0.02,0.56c0.02,0.73,0.05,1.46,0.07,2.19
		c0.05,1.48,0.11,2.96,0.15,4.45c0.01,0.53-0.07,1.05-0.08,1.58c-0.01,0.49,0.02,0.97,0.05,1.46c0.02,0.36-0.13,0.64-0.48,0.64
		c-0.44,0.01-0.89-0.04-1.33-0.12c-0.13-0.02-0.27-0.18-0.34-0.32c-0.54-1.05-1.08-2.1-1.58-3.16c-0.43-0.92-0.89-1.82-1.39-2.71
		c-0.48-0.85-0.9-1.73-1.34-2.6c-0.06-0.12-0.14-0.24-0.25-0.45c-0.06,0.17-0.1,0.25-0.11,0.33c-0.02,0.14-0.02,0.28-0.02,0.43
		c0.01,1.99,0.02,3.99,0.04,5.98c0,0.4-0.01,0.81,0.17,1.22c0.17,0.01,0.33,0.02,0.48,0.04c0.34,0.04,0.48,0.16,0.52,0.49
		c0.02,0.12,0.01,0.24,0,0.36c-0.02,0.21-0.13,0.34-0.34,0.37c-0.14,0.02-0.28,0.03-0.43,0.03c-0.77,0-1.55,0-2.32-0.01
		c-0.52-0.01-0.55-0.05-0.58-0.55c-0.01-0.14,0-0.28,0-0.46c0.35-0.1,0.69-0.21,1.06-0.32c0.02-0.17,0.06-0.32,0.06-0.48
		c0-0.39-0.02-0.77-0.03-1.16c-0.01-0.75-0.02-1.5,0-2.25c0.01-0.73-0.03-1.46-0.08-2.19c-0.06-0.85-0.02-1.71-0.03-2.56
		c0-0.16,0-0.33-0.03-0.49c-0.05-0.34-0.18-0.45-0.52-0.49c-0.16-0.02-0.32-0.04-0.49-0.05c-0.14-0.33-0.11-0.64-0.02-0.95
		c0.07-0.03,0.13-0.08,0.18-0.08c0.59-0.02,1.17-0.04,1.76-0.06c0.2-0.01,0.41-0.01,0.61,0c0.32,0.02,0.59,0.15,0.76,0.44
		c0.09,0.16,0.2,0.31,0.28,0.47c1.06,2.22,2.14,4.43,3.34,6.58c0.21,0.37,0.39,0.76,0.59,1.13
		C262.76,14.64,262.81,14.69,262.88,14.78"/>
	<path d="M197.47,9.04c-0.04,0.11-0.11,0.22-0.11,0.32c0.01,0.75,0.04,1.5,0.05,2.25c0.01,0.59-0.01,1.18-0.02,1.77
		c-0.02,1-0.04,1.99-0.05,2.99c0,0.12,0.02,0.24,0.04,0.41c0.36,0.1,0.73,0.21,1.14,0.32c0.02,0.24,0.05,0.48,0.05,0.72
		c0,0.19-0.12,0.29-0.31,0.31c-0.06,0.01-0.12,0.01-0.18,0.01c-0.89,0-1.79,0.01-2.68-0.01c-0.46-0.01-0.74-0.52-0.49-0.91
		c0.06-0.09,0.19-0.15,0.3-0.19c0.17-0.06,0.35-0.09,0.53-0.14c0.06-0.02,0.11-0.05,0.18-0.09c0.16-0.27,0.09-0.58,0.09-0.88
		c0-1.22-0.03-2.44-0.03-3.66c0-1.26,0.02-2.52,0.03-3.78c0-0.36,0.02-0.73-0.1-1.11c-0.21-0.04-0.41-0.06-0.6-0.12
		c-0.41-0.12-0.6-0.72-0.32-1.05c0.07-0.08,0.21-0.14,0.32-0.14c0.79,0.01,1.58,0.04,2.38,0.08c0.25,0.01,0.39,0.19,0.49,0.4
		c0.46,0.93,0.93,1.85,1.4,2.78c0.78,1.54,1.58,3.07,2.24,4.67c0.18,0.43,0.41,0.83,0.78,1.24c0.05-0.19,0.11-0.32,0.12-0.44
		c0.01-0.85,0-1.71,0-2.56c-0.01-1.24-0.03-2.48-0.04-3.72c0-0.08,0.01-0.16,0.01-0.24c0.01-0.94-0.05-0.87-0.84-1
		c-0.02,0-0.04-0.02-0.09-0.05c-0.02-0.04-0.08-0.1-0.09-0.17c-0.16-0.81,0-1.03,0.79-1.04c0.77-0.01,1.54,0,2.32,0.03
		c0.49,0.02,0.75,0.63,0.44,1.04c-0.07,0.09-0.19,0.15-0.3,0.18c-0.14,0.04-0.28,0.03-0.42,0.05c-0.26,0.05-0.34,0.13-0.38,0.4
		c-0.01,0.04-0.01,0.08-0.01,0.12c0.01,1.02,0.02,2.03,0.04,3.05c0.01,0.87,0.04,1.75,0.05,2.62c0.01,1.28-0.01,2.56,0,3.84
		c0,0.75-0.01,0.8-0.74,0.89c-0.34,0.04-0.69,0.04-1.03,0.03c-0.28-0.01-0.46-0.17-0.59-0.45c-0.66-1.49-1.27-2.99-2.03-4.43
		c-0.43-0.81-0.78-1.65-1.17-2.48c-0.24-0.51-0.49-1.03-0.74-1.53C197.78,9.22,197.69,9.07,197.47,9.04"/>
	<path d="M147.18,9.36c-0.08,0.16-0.11,0.19-0.11,0.23c-0.11,1.74-0.2,3.49-0.07,5.23c0.02,0.22,0,0.45-0.01,0.67
		c-0.01,0.26-0.02,0.53-0.03,0.79c-0.02,0.82-0.01,0.71,0.64,0.97c0.11,0.04,0.23,0.09,0.34,0.14c0.04,0.02,0.06,0.05,0.1,0.09
		c0.01,0.05,0.04,0.1,0.04,0.16c-0.02,0.67-0.09,0.73-0.74,0.74c-0.71,0.01-1.42,0.02-2.13,0.03c-0.12,0-0.24,0.01-0.37,0
		c-0.27-0.02-0.36-0.11-0.37-0.38c0-0.1,0.01-0.2,0.02-0.3c0.01-0.21,0.11-0.34,0.31-0.4c0.16-0.04,0.31-0.09,0.47-0.14
		c0.25-0.09,0.4-0.26,0.41-0.54c0-0.06,0.01-0.12,0.01-0.18c-0.02-0.54-0.04-1.09-0.05-1.64c-0.01-0.24-0.01-0.49-0.01-0.73
		c0-1.06,0.01-2.11,0-3.17c0-0.95-0.02-1.91-0.04-2.86c0-0.1-0.02-0.2-0.03-0.35c-0.17-0.05-0.34-0.1-0.51-0.14
		c-0.39-0.09-0.48-0.18-0.46-0.57c0-0.08-0.01-0.18,0.03-0.24c0.06-0.09,0.15-0.18,0.25-0.23c0.08-0.04,0.2-0.04,0.3-0.04
		c0.69,0,1.38,0.01,2.07,0c0.26,0,0.42,0.12,0.53,0.34c0.24,0.49,0.49,0.98,0.72,1.48c0.77,1.61,1.53,3.23,2.31,4.84
		c0.3,0.62,0.63,1.23,0.95,1.84c0.07,0.14,0.18,0.26,0.33,0.45c0.06-0.18,0.11-0.29,0.12-0.39c0.01-0.3,0-0.61,0-0.91
		c0.02-1.28,0.07-2.56,0.07-3.84c0-0.69-0.02-1.38,0.03-2.07c0.03-0.45-0.02-0.5-0.48-0.6c-0.49-0.11-0.68-0.51-0.45-0.96
		c0.04-0.08,0.14-0.14,0.23-0.17c0.09-0.03,0.2,0,0.3,0c0.69,0,1.38,0.07,2.07-0.07c0.08-0.02,0.16-0.01,0.24-0.01
		c0.55-0.01,0.6,0.04,0.59,0.57c0,0.12-0.01,0.24-0.02,0.36c0,0.02-0.02,0.04-0.05,0.1c-0.16,0.04-0.35,0.08-0.54,0.13
		c-0.47,0.13-0.52,0.19-0.53,0.67c-0.01,0.73-0.01,1.46-0.01,2.2c-0.01,1.44-0.03,2.89-0.02,4.33c0,0.77,0.05,1.54,0.1,2.31
		c0.02,0.37,0.05,0.73-0.1,1.11c-0.12,0.03-0.26,0.09-0.39,0.1c-0.4,0.02-0.81,0.03-1.21,0.04c-0.27,0.01-0.47-0.11-0.59-0.36
		c-0.46-0.95-0.91-1.91-1.36-2.86c-0.29-0.6-0.56-1.22-0.86-1.82c-0.56-1.15-1.13-2.3-1.7-3.44C147.41,9.73,147.31,9.58,147.18,9.36
		"/>
	<path d="M185.27,7.82c0,0.7-0.01,1.33,0,1.95c0.01,0.62-0.08,1.25,0.1,1.84c0.61,0.23,1.17,0.17,1.72,0
		c0.51-0.16,0.89-0.48,1.04-1.02c0.17-0.6,0.16-1.2,0.06-1.81c-0.08-0.47-0.36-0.74-0.82-0.88C186.7,7.71,186.02,7.77,185.27,7.82
		 M187.85,18.12c-0.28-0.71-0.26-0.75,0.5-1.12c-0.38-1.08-0.76-2.17-1.15-3.26c-0.05-0.13-0.11-0.27-0.2-0.37
		c-0.07-0.09-0.19-0.19-0.29-0.19c-0.46-0.02-0.93-0.05-1.4,0.03c-0.14,0.42-0.14,0.83-0.15,1.23c-0.02,0.67-0.02,1.34-0.03,2.01
		c0,0.44,0.05,0.5,0.46,0.57c0.06,0.01,0.12,0.02,0.18,0.02c0.45-0.02,0.49,0.22,0.53,0.52c0.07,0.48-0.07,0.64-0.54,0.64
		c-0.43,0.01-0.86-0.06-1.28,0c-0.61,0.09-1.21-0.06-1.82-0.01c-0.08,0.01-0.15-0.03-0.26-0.05c-0.02-0.25-0.06-0.48-0.07-0.72
		c-0.01-0.23,0.08-0.32,0.32-0.36c0.12-0.02,0.24-0.01,0.36-0.03c0.27-0.05,0.38-0.16,0.41-0.44c0.02-0.2,0.02-0.41,0.01-0.61
		c-0.06-1.61-0.01-3.21,0.07-4.82c0.06-1.16-0.07-2.32-0.13-3.47c0-0.06-0.03-0.11-0.06-0.21c-0.14-0.02-0.3-0.05-0.45-0.08
		c-0.32-0.05-0.42-0.15-0.45-0.47c-0.05-0.46,0.06-0.61,0.52-0.61c1.48-0.01,2.97-0.02,4.45,0c0.42,0.01,0.84,0.12,1.25,0.22
		c0.48,0.11,0.82,0.43,1.07,0.85c0.3,0.52,0.44,1.1,0.45,1.69c0.03,1.36-0.42,2.52-1.6,3.3c-0.07,0.04-0.12,0.1-0.21,0.19
		c0.08,0.1,0.15,0.19,0.21,0.29c0.17,0.3,0.37,0.59,0.49,0.91c0.24,0.63,0.42,1.27,0.64,1.91c0.08,0.25,0.18,0.5,0.3,0.73
		c0.16,0.32,0.37,0.57,0.8,0.55c0.2-0.01,0.43,0.02,0.5,0.26c0.08,0.28,0.11,0.56-0.03,0.83c-0.09,0.17-0.27,0.16-0.43,0.16
		c-0.57,0-1.14,0-1.71-0.01c-0.36,0-0.73-0.01-1.09-0.01C187.97,18.17,187.93,18.14,187.85,18.12"/>
	<path d="M249.42,11.82c0-0.26,0.01-0.46,0-0.66c-0.05-1.22-0.37-2.32-1.28-3.19c-0.47-0.45-1-0.69-1.65-0.65
		c-0.64,0.05-1.24,0.21-1.77,0.59c-0.13,0.09-0.29,0.18-0.38,0.31c-0.38,0.55-0.73,1.12-0.88,1.79c-0.3,1.38-0.24,2.75,0.03,4.12
		c0.3,1.54,1.86,2.96,3.66,2.45c0.82-0.23,1.41-0.72,1.7-1.52C249.23,13.99,249.5,12.91,249.42,11.82 M241.48,12.18
		c-0.05-1.07,0.08-1.99,0.27-2.91c0.13-0.62,0.42-1.19,0.89-1.64c0.32-0.31,0.63-0.65,0.99-0.89c1.18-0.79,2.45-1.3,3.9-0.93
		c0.8,0.2,1.51,0.59,2.13,1.13c0.4,0.36,0.64,0.84,0.88,1.31c0.4,0.78,0.62,1.63,0.72,2.5c0.2,1.67-0.07,3.27-0.67,4.82
		c-0.2,0.51-0.49,0.99-0.82,1.42c-0.35,0.46-0.88,0.71-1.42,0.9c-0.56,0.19-1.14,0.33-1.73,0.32c-0.54-0.01-1.1-0.08-1.62-0.23
		c-0.56-0.16-1.09-0.41-1.59-0.73c-0.82-0.54-1.28-1.29-1.51-2.2C241.64,14.07,241.42,13.08,241.48,12.18"/>
	<path d="M272.32,12.95c0.5,0.14,0.96,0.09,1.42,0.05c0.45-0.04,0.9,0.2,1.42,0.03c-0.53-1.69-0.77-3.42-1.35-5.06
		c-0.02-0.04-0.09-0.07-0.14-0.1c-0.04,0.04-0.09,0.06-0.09,0.09c-0.36,1.6-0.74,3.19-1.26,4.75
		C272.3,12.77,272.32,12.83,272.32,12.95 M278.23,16.44c1.01,0.25,1.13,0.46,0.82,1.41c-0.06,0.02-0.13,0.07-0.21,0.07
		c-1.1,0.01-2.2,0.01-3.29,0c-0.33,0-0.46-0.13-0.5-0.41c-0.04-0.31,0.09-0.48,0.42-0.57c0.21-0.06,0.42-0.1,0.66-0.15
		c0-0.12,0.02-0.2,0-0.27c-0.18-0.58-0.37-1.16-0.55-1.75c-0.08-0.25-0.22-0.37-0.49-0.36c-1.06,0.03-2.11,0.05-3.17,0.07
		c-0.29,0.45-0.41,0.92-0.49,1.4c-0.14,0.76-0.13,0.76,0.61,0.99c0.42,0.12,0.6,0.7,0.33,1.03c-0.14,0.16-0.33,0.13-0.51,0.14
		c-0.87,0.01-1.75,0.02-2.62,0.03c-0.06,0-0.12,0.01-0.18,0c-0.32-0.03-0.44-0.15-0.43-0.46c0.01-0.14,0.04-0.28,0.07-0.42
		c0.04-0.2,0.14-0.34,0.34-0.39c0.49-0.13,0.69-0.46,0.84-0.93c0.46-1.5,0.93-2.99,1.27-4.52c0.13-0.57,0.34-1.13,0.5-1.69
		c0.26-0.92,0.51-1.84,0.75-2.76c0.26-1.05,0.27-0.92,1.09-0.96c0.32-0.02,0.65,0,0.98,0.02c0.32,0.02,0.51,0.18,0.61,0.5
		c0.52,1.75,1.04,3.51,1.59,5.25c0.33,1.05,0.69,2.08,1.04,3.12c0.11,0.35,0.22,0.7,0.34,1.05
		C278.08,16.05,278.15,16.24,278.23,16.44"/>
	<path d="M213.37,8.01c-0.09,0.19-0.15,0.27-0.17,0.36c-0.42,1.57-0.84,3.13-1.27,4.72c0.51,0.17,1,0.08,1.48,0.06
		c0.47-0.02,0.96,0.08,1.44-0.1c-0.44-1.6-0.86-3.17-1.29-4.73C213.53,8.24,213.47,8.18,213.37,8.01 M214.78,17.04
		c0.33-0.05,0.65-0.1,1-0.16c-0.03-0.79-0.37-1.48-0.57-2.17c-0.09-0.04-0.13-0.07-0.17-0.07c-0.99-0.01-1.99-0.03-2.98-0.01
		c-0.56,0.01-0.55,0.03-0.72,0.54c-0.11,0.35-0.23,0.69-0.35,1.04c-0.08,0.23-0.17,0.46-0.06,0.76c0.2,0.02,0.42,0.03,0.63,0.05
		c0.38,0.05,0.63,0.56,0.44,0.88c-0.09,0.16-0.24,0.22-0.41,0.22c-0.89,0.01-1.79,0.02-2.68,0.01c-0.34,0-0.43-0.09-0.48-0.35
		c-0.07-0.43-0.01-0.7,0.29-0.77c0.47-0.11,0.65-0.43,0.76-0.84c0.28-1,0.56-1.99,0.86-2.98c0.3-0.99,0.62-1.98,0.92-2.97
		c0.27-0.91,0.53-1.83,0.8-2.75c0.1-0.33,0.21-0.66,0.33-0.98c0.1-0.28,0.31-0.43,0.6-0.44c0.45-0.01,0.89-0.01,1.34,0
		c0.19,0,0.3,0.1,0.35,0.28c0.04,0.14,0.09,0.27,0.13,0.41c0.33,1.05,0.65,2.09,0.98,3.14c0.35,1.1,0.66,2.22,0.95,3.34
		c0.27,1.04,0.62,2.06,0.93,3.09c0.09,0.32,0.23,0.53,0.59,0.62c0.36,0.09,0.53,0.5,0.43,0.88c-0.05,0.18-0.19,0.26-0.36,0.27
		c-0.43,0.02-0.85,0.05-1.28,0.06c-0.57,0.02-1.14,0.01-1.71,0.03c-0.52,0.01-0.65-0.1-0.66-0.62c0-0.08,0-0.16,0.02-0.24
		C214.71,17.24,214.74,17.18,214.78,17.04"/>
	<path d="M173.75,7.73c-0.03,0.17-0.08,0.3-0.08,0.44c0,1.09,0.01,2.19,0.01,3.31c0.18,0.02,0.32,0.05,0.45,0.05
		c0.65,0.01,1.3,0,1.95,0c0.22,0,0.45-0.01,0.67-0.01c0.16,0,0.28,0.1,0.28,0.26c0.01,0.28-0.01,0.57-0.04,0.85
		c-0.02,0.16-0.13,0.25-0.29,0.26c-0.08,0.01-0.16,0-0.24-0.01c-0.08-0.01-0.16-0.04-0.24-0.05c-0.85-0.03-1.7-0.06-2.52,0.06
		c-0.05,0.09-0.1,0.14-0.11,0.19c-0.11,1.22-0.04,2.43-0.04,3.66c0.13,0.04,0.22,0.1,0.31,0.1c0.65,0.01,1.3,0.02,1.95,0.02
		c0.16,0,0.32-0.04,0.48-0.06c0.41-0.03,0.51-0.08,0.59-0.62c0.03-0.22,0.04-0.45,0.08-0.67c0.03-0.2,0.16-0.32,0.38-0.33
		c0.08-0.01,0.16-0.01,0.24-0.01c0.59-0.01,0.69,0.07,0.68,0.65c-0.01,0.73-0.06,1.45-0.09,2.22c-0.17,0.03-0.32,0.08-0.48,0.08
		c-0.32,0.02-0.65,0.04-0.98,0.03c-1-0.03-1.99-0.02-2.98,0.06c-0.22,0.02-0.45,0-0.67-0.01c-0.59-0.02-1.18-0.03-1.76-0.05
		c-0.16-0.01-0.32-0.03-0.44-0.04c-0.18-0.18-0.17-0.36-0.17-0.54c0-0.18,0.09-0.3,0.27-0.35c0.06-0.02,0.12-0.04,0.18-0.05
		c0.65-0.2,0.68-0.24,0.69-0.94c0.01-1.42-0.01-2.85,0.01-4.27c0.01-0.79,0.05-1.58,0.06-2.38c0-0.57-0.03-1.14-0.05-1.7
		c-0.01-0.24-0.14-0.37-0.36-0.43c-0.06-0.01-0.12-0.02-0.18-0.04c-0.42-0.11-0.6-0.37-0.57-0.8c0.01-0.16,0.09-0.27,0.25-0.3
		c0.08-0.02,0.16-0.02,0.24-0.02c1.81-0.02,3.61-0.08,5.42,0.04c0.26,0.02,0.52-0.04,0.79-0.05c0.39-0.02,0.53,0.1,0.55,0.48
		c0.02,0.59,0.03,1.18,0.04,1.76c0,0.1-0.01,0.2-0.02,0.3c-0.03,0.18-0.13,0.31-0.32,0.31c-0.26,0-0.53-0.01-0.79-0.05
		c-0.18-0.03-0.26-0.19-0.28-0.36c-0.03-0.24-0.03-0.49-0.07-0.73c-0.04-0.28-0.11-0.35-0.38-0.39
		C175.83,7.59,174.18,7.64,173.75,7.73"/>
	<path d="M229.53,6.08c0.05,0.16,0.13,0.3,0.14,0.43c0.04,0.73,0.08,1.46-0.05,2.19c-0.07,0.4-0.17,0.53-0.4,0.5
		c-0.53-0.05-0.74-0.11-0.79-0.57c-0.03-0.3-0.09-0.6-0.14-0.9c-0.01-0.08-0.05-0.15-0.1-0.27c-0.64-0.07-1.27-0.07-1.9,0
		c-0.21,0.98-0.18,8.47,0.04,9.34c0.34,0.19,0.74,0.13,1.11,0.21c0.19,0.04,0.46-0.05,0.56,0.16c0.1,0.21,0.1,0.47,0.11,0.71
		c0.01,0.16-0.1,0.27-0.26,0.28c-0.18,0.02-0.36,0.02-0.55,0.01c-1.12-0.04-2.23-0.08-3.35-0.11c-0.3-0.01-0.61,0.02-0.91,0.02
		c-0.08,0-0.15-0.04-0.24-0.07c-0.02-0.08-0.06-0.16-0.06-0.23c-0.02-0.55,0.07-0.67,0.63-0.76c0.32-0.05,0.64-0.09,0.94-0.12
		c0.21-0.24,0.13-0.49,0.13-0.73c-0.01-2.66-0.03-5.32-0.04-7.98c0-0.12,0-0.24-0.01-0.37c-0.03-0.29-0.09-0.38-0.37-0.39
		c-0.42-0.02-0.85-0.03-1.28-0.01c-0.29,0.01-0.38,0.11-0.44,0.41c-0.06,0.3-0.08,0.61-0.16,0.9c-0.09,0.35-0.73,0.54-1.01,0.31
		c-0.06-0.05-0.11-0.12-0.13-0.2c-0.04-0.16-0.08-0.32-0.08-0.48c-0.02-0.57-0.03-1.14-0.04-1.71c0-0.45,0.13-0.59,0.56-0.62
		c1.26-0.1,2.51-0.15,3.77-0.11c1.34,0.04,2.68,0.08,4.02,0.11C229.31,6.04,229.39,6.06,229.53,6.08"/>
	<path d="M163.57,17c0.29,0.05,0.54,0.1,0.8,0.15c0.14,0.02,0.28,0.03,0.42,0.07c0.4,0.11,0.53,0.29,0.53,0.7
		c0,0.33-0.1,0.46-0.42,0.47c-0.34,0.01-0.69,0.02-1.03-0.03c-0.77-0.11-1.54-0.05-2.31-0.03c-0.38,0.01-0.77,0-1.16-0.02
		c-0.29-0.01-0.39-0.11-0.41-0.35c-0.04-0.39,0.07-0.63,0.34-0.69c0.22-0.05,0.44-0.06,0.66-0.1c0.55-0.08,0.71-0.25,0.72-0.79
		c0.04-2.11,0.07-4.23,0.09-6.34c0.01-0.63-0.02-1.26-0.04-1.89c-0.01-0.34-0.09-0.44-0.44-0.44c-0.37-0.01-0.73,0.02-1.1,0.05
		c-0.36,0.03-0.41,0.08-0.48,0.43c-0.06,0.28-0.09,0.56-0.15,0.84c-0.06,0.29-0.17,0.38-0.45,0.41c-0.08,0.01-0.16,0.01-0.24,0
		c-0.58-0.02-0.67-0.1-0.66-0.68c0.01-0.63,0.01-1.26,0.03-1.89c0.01-0.47,0.16-0.62,0.64-0.61c1.01,0.03,2.03,0.08,3.04,0.11
		c0.35,0.01,0.69,0.03,1.04,0.02c0.87-0.02,1.75-0.04,2.62-0.06c0.32-0.01,0.65,0,0.97,0.03c0.27,0.03,0.35,0.12,0.37,0.4
		c0.04,0.63,0.09,1.26,0.08,1.89c0,0.64-0.58,0.95-1.15,0.66c-0.08-0.04-0.15-0.14-0.18-0.23c-0.06-0.21-0.08-0.44-0.12-0.66
		c-0.03-0.16-0.05-0.32-0.1-0.48c-0.05-0.17-0.17-0.28-0.36-0.28c-0.37,0-0.73-0.01-1.1,0.02c-0.28,0.02-0.42,0.18-0.47,0.47
		c-0.02,0.14-0.03,0.28-0.02,0.42c0.02,0.79,0.05,1.59,0.06,2.38c0.01,0.81-0.01,1.62-0.02,2.43c-0.01,1.1-0.03,2.2-0.04,3.29
		C163.52,16.76,163.54,16.84,163.57,17"/>
	<path d="M283.65,16.6c0.03-0.09,0.07-0.17,0.07-0.24c0-2.76-0.01-5.53-0.02-8.29c0-0.3-0.06-0.6-0.1-0.94
		c-0.2-0.04-0.37-0.06-0.55-0.1c-0.35-0.07-0.4-0.13-0.45-0.47c-0.01-0.1-0.02-0.2-0.02-0.3c0-0.08,0-0.16,0-0.24
		c0.15-0.24,0.39-0.19,0.61-0.18c0.63,0.02,1.26,0.06,1.89,0.07c0.43,0.01,0.85-0.04,1.28-0.05c0.14,0,0.27,0.04,0.44,0.06v0.95
		c-0.09,0.03-0.18,0.07-0.28,0.08c-0.16,0.03-0.32,0.03-0.48,0.06c-0.52,0.1-0.57,0.16-0.57,0.68c0,0.41-0.01,0.81-0.01,1.22
		c0.01,0.83,0.01,1.67,0.03,2.5c0.02,0.93,0.07,1.87,0.09,2.8c0.01,0.65-0.02,1.3-0.03,1.95c0,0.1,0.01,0.2,0.02,0.35
		c0.19,0.02,0.36,0.04,0.54,0.04c0.63,0.01,1.26,0.02,1.89,0c0.67-0.02,0.67-0.04,0.75-0.68c0.03-0.22,0.06-0.45,0.12-0.66
		c0.1-0.35,0.24-0.44,0.62-0.47c0.81-0.06,0.97,0.09,0.99,0.89c0.01,0.51,0.02,1.02,0.01,1.52c-0.01,0.23-0.07,0.47-0.11,0.74
		c-0.31,0.02-0.57,0.06-0.82,0.06c-1.5-0.01-3.01-0.02-4.51-0.03c-0.53,0-1.06,0.02-1.58,0.03c-0.18,0-0.37,0-0.55-0.02
		c-0.09-0.01-0.2-0.07-0.26-0.14c-0.25-0.33-0.08-0.87,0.31-1C283.17,16.7,283.41,16.66,283.65,16.6"/>
	<path d="M236.58,16.89c0.21,0.05,0.42,0.12,0.64,0.13c0.39,0.03,0.51,0.13,0.52,0.59c0,0.1-0.03,0.2-0.05,0.34
		c-0.16,0.03-0.31,0.09-0.46,0.09c-1.16,0-2.32,0-3.47-0.01c-0.06,0-0.12-0.03-0.18-0.04c-0.2-0.25-0.12-0.54-0.16-0.8
		c0.37-0.28,0.82-0.21,1.22-0.42c0-0.79,0.01-1.58,0-2.36c-0.01-0.79-0.06-1.58-0.06-2.37c0-0.79,0.03-1.58,0.04-2.37
		c0.01-0.79,0-1.57,0-2.37c-0.38-0.24-0.87,0.01-1.24-0.34c-0.01-0.07-0.04-0.16-0.04-0.26c-0.01-0.5,0.08-0.62,0.58-0.63
		c1.04-0.03,2.07-0.04,3.11-0.05c0.06,0,0.12,0.01,0.18,0.01c0.4,0.04,0.55,0.18,0.57,0.57c0.01,0.16-0.02,0.32-0.04,0.48
		c-0.4,0.23-0.86,0.13-1.25,0.29c-0.02,0.07-0.06,0.12-0.06,0.18c0.03,3.01,0.05,6.01,0.08,9.01
		C236.51,16.65,236.55,16.74,236.58,16.89"/>
	<path d="M273.96,56.38v0.76c-0.19,0.06-0.35,0.12-0.5,0.17c-0.03,0.06-0.07,0.09-0.07,0.13c-0.05,0.79-0.14,1.58-0.12,2.37
		c0.05,1.36-0.08,2.72,0.01,4.08c0.03,0.41-0.07,0.5-0.48,0.52c-0.08,0-0.16-0.01-0.24,0c-0.45,0.05-0.7-0.17-0.87-0.58
		c-0.19-0.47-0.47-0.9-0.71-1.35c-0.21-0.4-0.4-0.8-0.6-1.2c-0.43-0.85-0.85-1.71-1.28-2.56c-0.03-0.06-0.09-0.12-0.21-0.27
		c-0.06,1.72,0,3.33,0.02,4.97c0.14,0.07,0.28,0.14,0.42,0.21c0.18,0.09,0.28,0.23,0.25,0.44c-0.03,0.19-0.18,0.27-0.35,0.29
		c-0.22,0.03-0.44,0.05-0.67,0.05c-0.39,0-0.77,0-1.16-0.01c-0.15,0-0.28-0.07-0.3-0.24c-0.03-0.17,0-0.36,0.19-0.39
		c0.54-0.09,0.57-0.48,0.57-0.91c-0.01-1.62-0.01-3.25-0.02-4.88c0-0.22-0.04-0.44-0.07-0.67c-0.22-0.08-0.4-0.15-0.63-0.23
		c-0.05-0.17-0.11-0.36-0.17-0.56c0.26-0.22,0.56-0.14,0.83-0.15c0.3-0.01,0.61,0.02,0.91,0.01c0.3-0.01,0.49,0.1,0.64,0.37
		c0.44,0.83,0.9,1.64,1.34,2.46c0.23,0.45,0.42,0.93,0.64,1.38c0.27,0.54,0.57,1.07,0.9,1.71c0.05-0.18,0.09-0.26,0.09-0.33
		c0.03-1.32,0.05-2.64,0.07-3.96c0-0.08,0-0.16-0.01-0.24c-0.04-0.39-0.09-0.44-0.51-0.55c-0.06-0.02-0.11-0.04-0.17-0.06
		c-0.1-0.31-0.1-0.31-0.01-0.65C272.44,56.25,273.18,56.5,273.96,56.38"/>
	<path d="M136.21,7.46c-0.02-0.15-0.04-0.25-0.03-0.35c0.02-0.53,0.1-0.6,0.62-0.59c1.04,0.02,2.07,0.04,3.11,0.06
		c0.04,0,0.08,0,0.12,0c0.43,0.02,0.54,0.12,0.57,0.53c0.02,0.29-0.05,0.38-0.36,0.45c-0.2,0.04-0.4,0.07-0.6,0.11
		c-0.24,0.06-0.31,0.14-0.32,0.38c-0.04,1.34-0.07,2.68-0.11,4.02c-0.02,0.63-0.06,1.26-0.06,1.89c0.01,0.93,0.04,1.86,0.09,2.8
		c0.02,0.43,0.08,0.47,0.51,0.52c0.02,0,0.04,0,0.06,0c0.67-0.02,0.7,0.23,0.71,0.86c0,0.13-0.09,0.23-0.23,0.25
		c-0.12,0.02-0.24,0.02-0.36,0.02c-1.06,0-2.11-0.01-3.17-0.02c-0.2,0-0.39-0.04-0.6-0.06c-0.04-0.11-0.07-0.19-0.08-0.27
		c-0.02-0.67,0.03-0.73,0.69-0.78c0.1-0.01,0.2-0.01,0.3-0.03c0.18-0.04,0.29-0.14,0.31-0.33c0.01-0.16,0.01-0.32,0.02-0.49
		c0.01-1.48,0.01-2.96,0.03-4.45c0.02-1.22,0.07-2.43,0.1-3.65c0.01-0.18,0-0.36,0-0.53C137.11,7.52,136.65,7.62,136.21,7.46"/>
	<path d="M154.36,59.07c0,1.5-0.06,2.99,0.03,4.51c0.13,0.05,0.25,0.09,0.36,0.12c0.15,0.05,0.24,0.15,0.23,0.32
		c0,0.2-0.13,0.29-0.3,0.33c-0.12,0.03-0.24,0.03-0.36,0.02c-0.4-0.01-0.81-0.01-1.21-0.03c-0.1,0-0.21,0.01-0.3-0.03
		c-0.1-0.05-0.24-0.14-0.24-0.22c-0.01-0.12,0.06-0.27,0.14-0.37c0.05-0.07,0.18-0.07,0.28-0.1c0.35-0.12,0.4-0.17,0.4-0.51
		c0.01-1.42,0.01-2.84,0.01-4.27c0-0.48-0.02-0.97-0.03-1.47c-0.23-0.09-0.43-0.18-0.66-0.27c-0.02-0.09-0.06-0.19-0.06-0.28
		c0.01-0.37,0.11-0.47,0.49-0.44c0.37,0.02,0.73,0.07,1.09,0.08c0.35,0.01,0.57,0.17,0.71,0.48c0.2,0.45,0.39,0.9,0.61,1.33
		c0.5,0.97,1.03,1.94,1.53,2.91c0.09,0.18,0.17,0.37,0.24,0.56c0.06,0.17,0.11,0.34,0.28,0.47c0.04-0.07,0.1-0.12,0.1-0.17
		c0.01-1.58,0.18-3.15,0.08-4.75c-0.16-0.04-0.27-0.06-0.39-0.09c-0.25-0.07-0.33-0.18-0.32-0.43c0.01-0.25,0.12-0.4,0.35-0.43
		c0.2-0.03,0.41-0.02,0.61-0.01c0.32,0.03,0.64,0.08,0.97,0.12c0.16,0.02,0.27,0.09,0.3,0.25c0.04,0.18,0.05,0.38-0.12,0.5
		c-0.12,0.08-0.26,0.12-0.38,0.17c-0.15,0.19-0.11,0.4-0.11,0.6c-0.01,1.75-0.01,3.5-0.02,5.24c0,0.32,0.02,0.65-0.1,0.98
		c-0.36,0.16-0.73,0.11-1.07,0c-0.17-0.05-0.32-0.25-0.41-0.42c-0.49-0.94-0.95-1.88-1.43-2.83c-0.11-0.22-0.21-0.44-0.34-0.65
		c-0.26-0.43-0.54-0.85-0.81-1.27C154.44,59.05,154.4,59.06,154.36,59.07"/>
	<path d="M220.92,63.73c-0.34-0.76-0.83-1.4-1.28-2.13c-0.12,0.14-0.21,0.21-0.27,0.31c-0.29,0.44-0.58,0.88-0.86,1.32
		c-0.07,0.11-0.11,0.25-0.18,0.4c0.11,0.06,0.2,0.1,0.29,0.15c0.26,0.15,0.31,0.22,0.27,0.47c-0.04,0.24-0.14,0.35-0.41,0.36
		c-0.55,0.03-1.1,0.03-1.64,0.04c-0.17,0-0.32-0.05-0.36-0.25c-0.04-0.24,0.03-0.45,0.19-0.53c0.09-0.04,0.2-0.04,0.29-0.09
		c0.09-0.04,0.19-0.1,0.23-0.18c0.59-1.02,1.16-2.04,1.76-3.1c-0.2-0.32-0.4-0.63-0.58-0.94c-0.23-0.4-0.46-0.81-0.68-1.23
		c-0.22-0.42-0.47-0.8-0.94-0.99c-0.27-0.11-0.31-0.27-0.26-0.54c0.03-0.16,0.12-0.26,0.27-0.29c0.1-0.02,0.2-0.04,0.3-0.04
		c0.51-0.01,1.01-0.02,1.52-0.02c0.18,0,0.37,0.01,0.53,0.2c-0.01,0.15-0.03,0.32-0.05,0.51c-0.2,0.08-0.39,0.14-0.57,0.21
		c0.15,0.48,0.73,1.33,1.17,1.75c0.43-0.21,0.97-0.92,1.28-1.71c-0.15-0.03-0.3-0.05-0.49-0.08c0.01-0.21,0.01-0.39,0.04-0.56
		c0.02-0.16,0.15-0.24,0.3-0.25c0.18-0.01,0.37-0.01,0.55-0.01c0.42,0.02,0.84,0.04,1.27,0.07c0.16,0.29,0.13,0.53-0.06,0.75
		c-0.83,0.95-1.43,2.06-2.13,3.11c0.05,0.11,0.07,0.21,0.12,0.29c0.52,0.87,1.04,1.74,1.55,2.62c0.11,0.18,0.21,0.34,0.43,0.4
		c0.16,0.05,0.21,0.18,0.25,0.32c0.09,0.34-0.03,0.52-0.38,0.51c-0.59-0.02-1.18-0.04-1.76-0.06c-0.18-0.01-0.32-0.06-0.35-0.26
		c-0.03-0.19,0.05-0.33,0.27-0.42C220.66,63.79,220.78,63.77,220.92,63.73"/>
	<path d="M173.07,57.52c-0.03,0.86-0.06,1.66-0.08,2.47c0,0.05,0.05,0.11,0.1,0.21c0.3-0.04,0.63-0.05,0.94-0.13
		c0.49-0.12,0.83-0.42,0.88-0.96c0.02-0.22,0.03-0.45,0.05-0.67c0.03-0.43-0.2-0.69-0.57-0.84
		C173.98,57.42,173.56,57.43,173.07,57.52 M175.11,60.84c0.18,0.45,0.34,0.87,0.5,1.28c0.12,0.32,0.27,0.64,0.37,0.97
		c0.1,0.35,0.24,0.58,0.64,0.61c0.24,0.02,0.31,0.15,0.31,0.37c0,0.23-0.1,0.34-0.33,0.34c-0.51,0.01-1.02-0.01-1.52-0.01
		c-0.17,0-0.32-0.04-0.38-0.23c-0.07-0.21-0.02-0.36,0.18-0.45c0.03-0.01,0.05-0.06,0.11-0.14c-0.19-0.69-0.39-1.4-0.74-2.07
		c-0.15-0.29-0.35-0.44-0.67-0.44c-0.22,0-0.43,0.01-0.68,0.02c-0.01,0.17-0.02,0.29-0.02,0.4c0.01,0.53,0.03,1.05,0.03,1.58
		c0,0.32,0.07,0.57,0.43,0.62c0.04,0,0.08,0.02,0.12,0.04c0.15,0.07,0.21,0.21,0.17,0.35c-0.03,0.1-0.13,0.21-0.22,0.25
		c-0.12,0.05-0.28,0.07-0.42,0.07c-0.47-0.01-0.93-0.02-1.4-0.04c-0.1,0-0.2-0.03-0.3-0.06c-0.13-0.04-0.21-0.15-0.18-0.28
		c0.02-0.09,0.08-0.22,0.14-0.24c0.54-0.14,0.58-0.55,0.58-1c0-1.54,0.01-3.09,0.01-4.63c0-0.26-0.02-0.53-0.03-0.76
		c-0.19-0.21-0.43-0.2-0.64-0.27c-0.17-0.06-0.26-0.2-0.23-0.37c0.02-0.17,0.13-0.27,0.29-0.26c1.05,0.05,2.11-0.13,3.16,0.04
		c1.16,0.19,1.84,1.02,1.85,2.2c0,0.73-0.29,1.29-0.76,1.8C175.38,60.62,175.27,60.7,175.11,60.84"/>
	<path d="M285.6,56.53c0.22-0.18,0.46-0.19,0.71-0.19c1.24-0.01,2.48-0.01,3.72-0.01c0.16,0,0.31,0.03,0.5,0.05
		c0.05,0.53,0.11,1.03,0.14,1.53c0.02,0.44-0.08,0.53-0.53,0.53c-0.08,0-0.16-0.03-0.28-0.05c-0.07-0.18-0.15-0.36-0.2-0.56
		c-0.07-0.3-0.27-0.45-0.56-0.48c-0.4-0.04-0.81-0.07-1.22,0.02c-0.15,0.29-0.08,0.6-0.08,0.89c0,0.36,0.03,0.73,0.05,1.09
		c0.02,0.37,0.1,0.46,0.48,0.48c0.18,0.01,0.36-0.03,0.54-0.04c0.26-0.01,0.53-0.03,0.79,0.01c0.32,0.05,0.41,0.16,0.43,0.49
		c0.01,0.14-0.02,0.28-0.03,0.45c-0.72,0.27-1.47-0.07-2.22,0.2c0.07,0.8-0.14,1.62,0,2.49c0.66,0.2,1.28,0,1.97-0.04
		c0.04-0.21,0.09-0.4,0.12-0.6c0.07-0.39,0.11-0.42,0.5-0.5c0.11-0.02,0.24-0.02,0.38-0.03c0.04,0.13,0.1,0.24,0.11,0.35
		c0.03,0.43,0.05,0.85,0.05,1.28c-0.01,0.35-0.14,0.49-0.49,0.46c-0.98-0.08-1.95,0.09-2.92,0.1c-0.47,0.01-0.93,0.03-1.4,0.04
		c-0.26,0-0.36-0.08-0.39-0.29c-0.04-0.29,0.05-0.47,0.26-0.54c0.06-0.02,0.12-0.02,0.18-0.03c0.23-0.02,0.31-0.18,0.32-0.38
		c0.02-0.22,0.03-0.45,0.02-0.67c-0.05-1.54-0.11-3.08-0.17-4.63c-0.01-0.12-0.01-0.24-0.03-0.36c-0.04-0.25-0.14-0.46-0.43-0.52
		C285.61,57.02,285.59,56.78,285.6,56.53"/>
	<path d="M236.18,57.35c-0.23,0.89-0.08,1.71-0.01,2.55c0.42,0.13,0.82,0.07,1.23,0.06c0.22-0.01,0.44-0.01,0.66,0.02
		c0.38,0.06,0.47,0.22,0.43,0.58c-0.02,0.18-0.12,0.3-0.3,0.32c-0.16,0.02-0.32,0.02-0.49,0.02c-0.2,0.01-0.41,0-0.61,0.02
		c-0.28,0.02-0.56,0.06-0.83,0.09c-0.15,0.48-0.19,1.36-0.12,2.43c0.32,0.08,1.52,0.12,1.8,0.07c0.16-0.03,0.26-0.12,0.3-0.27
		c0.06-0.19,0.09-0.4,0.15-0.59c0.07-0.22,0.19-0.29,0.41-0.28c0.22,0.02,0.34,0.11,0.39,0.32c0.02,0.08,0.03,0.16,0.03,0.24
		c0.01,0.36,0.02,0.73,0.02,1.09c0,0.27-0.12,0.43-0.39,0.46c-0.26,0.03-0.53,0.04-0.79,0.01c-0.85-0.11-1.7-0.07-2.55-0.02
		c-0.38,0.02-0.77,0-1.14,0c-0.24-0.5-0.22-0.64,0.24-0.87c0.33-0.16,0.43-0.39,0.41-0.73c-0.04-0.57-0.06-1.14-0.07-1.7
		c-0.01-0.93,0-1.87-0.01-2.8c0-0.28-0.05-0.56-0.07-0.86c-0.14-0.07-0.26-0.16-0.38-0.2c-0.29-0.1-0.34-0.3-0.29-0.58
		c0.04-0.18,0.14-0.29,0.33-0.3c0.28-0.01,0.57-0.02,0.85-0.02c1.08,0.01,2.15,0.02,3.23,0.03c0.38,0,0.47,0.08,0.48,0.46
		c0.01,0.36,0.01,0.73,0.01,1.1c-0.01,0.29-0.09,0.37-0.34,0.41c-0.34,0.05-0.49-0.02-0.58-0.28c-0.03-0.08-0.04-0.16-0.06-0.24
		c-0.14-0.49-0.23-0.56-0.71-0.56C237.01,57.36,236.62,57.35,236.18,57.35"/>
	<path d="M263.85,64.4c-0.22,0.03-0.36,0.08-0.5,0.07c-1.36-0.08-2.72-0.14-4.08-0.04c-0.45,0.03-0.5-0.19-0.44-0.52
		c0.02-0.1,0.12-0.21,0.21-0.26c0.12-0.07,0.27-0.08,0.42-0.13c0.13-0.39,0.14-0.8,0.15-1.2c0.01-0.38-0.03-0.77-0.03-1.16
		c0-0.93,0.02-1.86,0.02-2.8c0-0.18-0.02-0.36-0.04-0.55c-0.02-0.16-0.06-0.31-0.1-0.48c-0.23-0.02-0.42-0.04-0.68-0.07
		c-0.02-0.14-0.06-0.29-0.06-0.44c0.01-0.22,0.1-0.31,0.34-0.36c0.08-0.02,0.16-0.03,0.24-0.03c1.22-0.03,2.44-0.06,3.65-0.1
		c0.08,0,0.16,0,0.24,0.01c0.21,0.02,0.35,0.13,0.37,0.34c0.03,0.4,0.06,0.81,0.05,1.21c-0.01,0.27-0.16,0.38-0.44,0.4
		c-0.3,0.02-0.42-0.05-0.48-0.33c-0.04-0.18-0.08-0.35-0.11-0.52c-0.45-0.15-1.22-0.14-1.79,0.02c-0.03,0.77-0.03,1.55,0.03,2.35
		c0.71,0.18,1.41-0.1,2.09,0.13c0.03,0.12,0.06,0.23,0.08,0.35c0.02,0.12,0.01,0.24,0.02,0.37c-0.34,0.25-0.73,0.06-1.07,0.13
		c-0.33,0.06-0.68,0.05-1,0.07c-0.16,0.5-0.19,1.36-0.1,2.56c0.12,0.03,0.25,0.07,0.39,0.08c0.3,0.01,0.61,0.01,0.91,0
		c0.49-0.01,0.54-0.05,0.71-0.5c0.04-0.11,0.06-0.24,0.13-0.34c0.07-0.09,0.17-0.18,0.28-0.21c0.36-0.1,0.55,0.03,0.56,0.41
		C263.87,63.37,263.85,63.85,263.85,64.4"/>
	<path d="M212.34,57.63c-0.75-0.19-1.36-0.2-1.86-0.04c-0.03,0.77-0.13,1.56,0.01,2.38c0.23,0.01,0.4,0.02,0.58,0.03
		c0.41,0.01,0.81,0.01,1.22,0.04c0.31,0.02,0.4,0.12,0.4,0.42c0,0.14-0.03,0.28-0.06,0.44c-0.36,0.07-0.7,0-1.04,0
		c-0.32,0.01-0.64,0.01-1.01,0.02c-0.16,0.87,0.07,1.68,0.03,2.53c0.65,0.12,1.25,0.1,1.91,0.05c0.06-0.22,0.11-0.43,0.16-0.64
		c0.04-0.18,0.15-0.29,0.34-0.28c0.19,0.01,0.41,0.03,0.44,0.24c0.06,0.46,0.08,0.93,0.08,1.39c0,0.21-0.19,0.29-0.4,0.29
		c-0.53,0-1.06,0.01-1.59,0.01c-0.81,0-1.63,0-2.44,0.01c-0.56,0-0.59-0.04-0.55-0.68c0.08-0.02,0.17-0.05,0.26-0.08
		c0.37-0.1,0.46-0.18,0.45-0.53c-0.02-1.22-0.06-2.44-0.09-3.66c-0.01-0.59-0.02-1.18-0.03-1.77c0-0.12-0.03-0.24-0.05-0.4
		c-0.15-0.04-0.3-0.08-0.45-0.14c-0.2-0.07-0.27-0.21-0.26-0.43c0.01-0.17,0.11-0.28,0.33-0.29c0.49-0.03,0.97-0.06,1.46-0.05
		c0.79,0.02,1.58,0.07,2.38,0.1c0.06,0,0.12,0,0.18,0.01c0.36,0.04,0.48,0.14,0.51,0.49c0.03,0.36,0.03,0.73,0.04,1.1
		c0,0.2-0.12,0.29-0.3,0.33c-0.23,0.05-0.4-0.01-0.47-0.18C212.47,58.12,212.42,57.88,212.34,57.63"/>
	<path d="M180.43,57.4c-0.13-0.06-0.22-0.11-0.32-0.14c-0.18-0.06-0.26-0.19-0.25-0.37c0.01-0.2,0.1-0.31,0.34-0.36
		c0.16-0.04,0.32-0.06,0.48-0.06c1.06-0.01,2.11-0.02,3.17-0.02c0.12,0,0.24,0,0.36,0.02c0.3,0.04,0.37,0.14,0.36,0.45
		c-0.02,0.37-0.02,0.73-0.05,1.1c-0.02,0.4-0.08,0.44-0.48,0.44c-0.06,0-0.12-0.03-0.2-0.06c-0.05-0.18-0.11-0.37-0.16-0.56
		c-0.07-0.24-0.21-0.39-0.47-0.4c-0.39-0.02-0.77-0.05-1.16-0.05c-0.27,0-0.41,0.13-0.44,0.4c-0.03,0.26-0.02,0.53-0.01,0.79
		c0.02,0.44,0.06,0.88,0.1,1.35c0.19,0.02,0.32,0.05,0.46,0.04c0.45-0.01,0.89-0.05,1.34-0.05c0.41,0,0.51,0.08,0.55,0.48
		c0.01,0.14,0,0.28,0,0.44c-0.76,0.17-1.51,0.12-2.22,0.1c-0.16,0.53-0.14,1.97,0.03,2.58c0.61,0.18,1.24,0.17,1.87-0.02
		c0.2-0.2,0.14-0.47,0.2-0.7c0.07-0.27,0.17-0.36,0.41-0.35c0.23,0.02,0.39,0.13,0.42,0.36c0.05,0.4,0.08,0.81,0.09,1.21
		c0.01,0.29-0.14,0.45-0.44,0.49c-0.2,0.03-0.41,0.02-0.61,0.01c-0.59-0.02-1.18-0.06-1.77-0.07c-0.4-0.01-0.81,0.03-1.22,0.05
		c-0.24,0.01-0.49,0.02-0.73,0.01c-0.18-0.01-0.31-0.09-0.35-0.28c-0.03-0.17-0.01-0.37,0.16-0.42c0.63-0.19,0.58-0.67,0.58-1.17
		c-0.02-1.26-0.01-2.52-0.01-3.78C180.47,58.36,180.45,57.88,180.43,57.4"/>
	<path d="M281.55,63.34c0.01-0.31,0-0.57,0.04-0.83c0.04-0.27,0.19-0.38,0.46-0.4c0.21-0.02,0.36,0.07,0.39,0.29
		c0.06,0.46,0.09,0.93,0.11,1.4c0,0.09-0.1,0.24-0.19,0.28c-0.22,0.11-0.45,0.19-0.68,0.24c-0.74,0.17-1.48,0.25-2.23,0.08
		c-0.94-0.22-1.65-0.78-2.12-1.61c-0.16-0.29-0.26-0.65-0.28-0.98c-0.04-0.81-0.07-1.63-0.01-2.43c0.1-1.43,0.97-2.71,2.52-3.08
		c0.91-0.21,1.82-0.19,2.65,0.33c0.13,0.08,0.29,0.21,0.31,0.34c0.08,0.44,0.13,0.88,0.14,1.33c0.01,0.34-0.13,0.43-0.46,0.42
		c-0.43-0.01-0.52-0.08-0.62-0.51c-0.02-0.1-0.04-0.2-0.06-0.3c-0.05-0.21-0.17-0.35-0.36-0.46c-0.66-0.4-2.14-0.13-2.52,0.79
		c-0.23,0.58-0.3,1.17-0.37,1.77c-0.07,0.52-0.02,1.06,0.02,1.58c0.06,0.66,0.37,1.19,0.9,1.6c0.48,0.37,1.01,0.5,1.6,0.36
		C281.05,63.48,281.3,63.41,281.55,63.34"/>
	<path d="M145.3,57.28c-0.15-0.06-0.27-0.09-0.37-0.14c-0.17-0.09-0.26-0.29-0.22-0.46c0.04-0.19,0.2-0.24,0.37-0.26
		c0.04,0,0.08,0,0.12,0c1.24,0.03,2.48,0.05,3.72,0.08c0.06,0,0.12,0.03,0.2,0.05c0.14,0.47,0.12,0.95,0.11,1.43
		c0,0.19-0.15,0.28-0.33,0.29c-0.23,0.02-0.4-0.05-0.46-0.21c-0.08-0.23-0.13-0.46-0.19-0.7c-0.52-0.1-1-0.04-1.49-0.04
		c-0.23,0-0.32,0.11-0.32,0.35c0,0.43,0.02,0.85,0.02,1.28c0,0.3,0,0.6,0,0.94c0.17,0.02,0.31,0.04,0.44,0.04
		c0.33-0.01,0.65-0.06,0.97-0.05c0.24,0,0.47,0.06,0.68,0.09c0.04,0.11,0.08,0.17,0.08,0.22c0.04,0.52-0.04,0.62-0.56,0.63
		c-0.39,0.01-0.77-0.02-1.16,0.01c-0.39,0.02-0.46,0.1-0.48,0.48c-0.02,0.53-0.03,1.06-0.02,1.58c0.01,0.43,0.1,0.51,0.5,0.52
		c0.37,0.01,0.73,0.03,1.1,0.01c0.34-0.02,0.4-0.08,0.49-0.43c0.04-0.14,0.07-0.28,0.11-0.41c0.05-0.17,0.19-0.25,0.36-0.27
		c0.23-0.03,0.38,0.06,0.39,0.28c0.02,0.47,0.02,0.93,0.01,1.4c-0.01,0.23-0.11,0.3-0.37,0.31c-0.59,0.01-1.18,0-1.77,0
		c-0.71,0.01-1.42,0.03-2.13,0.05c-0.21,0.01-0.4-0.02-0.56-0.18c-0.17-0.17-0.13-0.45,0.08-0.57c0.04-0.02,0.07-0.04,0.11-0.04
		c0.49-0.04,0.57-0.37,0.57-0.77c0.01-1.12,0.02-2.23,0.02-3.35c0-0.61,0-1.22-0.01-1.82C145.34,57.53,145.32,57.43,145.3,57.28"/>
	<path d="M229.95,63.37c0.04-0.25,0.07-0.52,0.13-0.77c0.06-0.25,0.2-0.35,0.42-0.37c0.25-0.02,0.4,0.09,0.41,0.34
		c0.01,0.41,0,0.81-0.02,1.22c-0.01,0.24-0.16,0.42-0.37,0.52c-0.24,0.11-0.49,0.22-0.74,0.26c-1.05,0.21-2.06,0.08-3-0.46
		c-0.7-0.4-1.08-1.02-1.29-1.78c-0.21-0.76-0.19-1.53-0.05-2.3c0.05-0.3,0.13-0.6,0.17-0.9c0.15-0.96,0.69-1.68,1.43-2.26
		c0.54-0.42,1.17-0.56,1.84-0.47c0.52,0.07,1.04,0.19,1.55,0.29c0.28,0.05,0.43,0.22,0.47,0.49c0.05,0.4,0.1,0.81,0.11,1.21
		c0.01,0.4-0.19,0.55-0.58,0.48c-0.14-0.03-0.27-0.09-0.44-0.15c-0.02-0.18-0.03-0.36-0.06-0.53c-0.07-0.53-0.34-0.8-0.88-0.83
		c-0.82-0.06-1.47,0.24-1.89,0.98c-0.29,0.5-0.46,1.04-0.39,1.63c0.01,0.08,0.04,0.17,0.01,0.24c-0.26,0.67-0.02,1.33,0.04,1.98
		c0.03,0.29,0.2,0.57,0.35,0.83c0.25,0.44,0.65,0.65,1.17,0.65C228.89,63.66,229.44,63.69,229.95,63.37"/>
	<path d="M139.22,63.5c0.22-0.03,0.44-0.04,0.65-0.11c0.33-0.1,0.56-0.33,0.59-0.7c0.01-0.08,0.01-0.16,0.02-0.24
		c0.05-0.37,0.21-0.49,0.56-0.47c0.24,0.01,0.4,0.14,0.39,0.38c-0.03,0.44-0.07,0.89-0.15,1.33c-0.02,0.13-0.19,0.28-0.33,0.33
		c-1.02,0.36-2.04,0.71-3.13,0.28c-0.6-0.23-1.05-0.6-1.32-1.19c-0.46-1.01-0.77-2.05-0.67-3.18c0.08-0.86,0.27-1.68,0.79-2.4
		c0.41-0.57,0.94-0.93,1.64-1.06c0.8-0.15,1.57-0.17,2.34,0.11c0.17,0.06,0.35,0.13,0.49,0.23c0.09,0.06,0.18,0.19,0.18,0.29
		c0.03,0.4,0.04,0.81,0.04,1.22c0,0.25-0.11,0.35-0.31,0.38c-0.24,0.03-0.43-0.04-0.51-0.24c-0.07-0.19-0.11-0.39-0.16-0.59
		c-0.08-0.31-0.28-0.51-0.59-0.53c-0.32-0.02-0.64,0.03-0.96,0.05c-0.06,0-0.11,0.05-0.17,0.07c-1.21,0.4-1.54,1.36-1.55,2.49
		c0,0.69,0.02,1.38,0.23,2.04c0.06,0.19,0.13,0.39,0.21,0.57c0.23,0.53,0.66,0.81,1.22,0.88c0.16,0.02,0.32,0.03,0.49,0.04
		C139.22,63.48,139.22,63.49,139.22,63.5"/>
	<path d="M164.4,57.38c-0.08-0.01-0.17-0.05-0.27-0.05c-0.71-0.02-0.83-0.02-0.97,0.69c-0.02,0.12-0.06,0.24-0.12,0.34
		c-0.09,0.15-0.25,0.21-0.42,0.19c-0.19-0.02-0.28-0.16-0.3-0.33c-0.01-0.14-0.01-0.28,0-0.43c0.01-0.32,0.03-0.65,0.03-0.97
		c0.01-0.23,0.08-0.35,0.32-0.36c0.45-0.02,0.89-0.02,1.34-0.02c1.06,0,2.11,0.01,3.17,0.01c0.08,0,0.16-0.01,0.24-0.01
		c0.51,0.01,0.6,0.09,0.61,0.6c0,0.36-0.01,0.73-0.04,1.09c-0.02,0.24-0.13,0.34-0.33,0.38c-0.2,0.03-0.32-0.04-0.41-0.27
		c-0.08-0.23-0.14-0.46-0.22-0.74c-0.2-0.02-0.39-0.05-0.59-0.07c-0.56-0.06-0.61-0.03-0.62,0.5c-0.05,1.6-0.1,3.2-0.15,4.81
		c0,0.06-0.01,0.12-0.01,0.18c0.01,0.59,0.09,0.68,0.69,0.77c0.08,0.01,0.16,0.02,0.24,0.04c0.16,0.03,0.23,0.14,0.24,0.31
		c0.01,0.17-0.07,0.29-0.24,0.3c-0.32,0.03-0.65,0.08-0.97,0.04c-0.49-0.05-0.97-0.03-1.46,0.03c-0.12,0.02-0.24,0.02-0.36,0.01
		c-0.24-0.02-0.36-0.12-0.36-0.32c-0.01-0.24,0.12-0.39,0.36-0.38c0.24,0.01,0.54,0.09,0.67-0.15c0.11-0.19,0.12-0.46,0.13-0.7
		c0.01-0.28-0.01-0.57-0.04-0.85c-0.14-1.32-0.09-2.64-0.07-3.96C164.51,57.84,164.57,57.61,164.4,57.38"/>
	<path d="M244.53,57.37c-0.07,2.05-0.15,4.05-0.05,6.07c0.31,0.18,0.64,0.08,0.95,0.09c0.32,0.01,0.64-0.01,1.01-0.02
		c0.07-0.25,0.12-0.48,0.18-0.71c0.08-0.31,0.35-0.47,0.65-0.34c0.08,0.03,0.16,0.13,0.19,0.21c0.11,0.31,0.1,1.24-0.01,1.71
		c-0.08,0.02-0.18,0.05-0.27,0.05c-1.36,0.03-2.72,0.06-4.08,0.08c-0.04,0-0.08,0-0.12,0c-0.32-0.01-0.42-0.07-0.47-0.28
		c-0.07-0.31,0.04-0.47,0.36-0.59c0.08-0.03,0.15-0.04,0.27-0.07c0.12-1.03,0.14-2.05,0.08-3.08c-0.05-1.01-0.01-2.02-0.01-3.06
		c-0.18-0.05-0.33-0.09-0.48-0.14c-0.14-0.05-0.27-0.12-0.26-0.29c0-0.19,0.03-0.38,0.23-0.46c0.13-0.05,0.27-0.07,0.41-0.09
		c0.44-0.05,0.89-0.08,1.33-0.11c0.14-0.01,0.29,0,0.43,0.02c0.37,0.05,0.56,0.34,0.45,0.7c-0.02,0.08-0.12,0.18-0.2,0.2
		C244.95,57.32,244.77,57.33,244.53,57.37"/>
	<path d="M252.69,63.47c0.68,0.08,1.33,0.06,1.94,0.07c0.24-0.23,0.14-0.5,0.2-0.73c0.07-0.28,0.15-0.37,0.39-0.39
		c0.31-0.04,0.46,0.08,0.46,0.4c0.01,0.43,0,0.85-0.01,1.28c-0.01,0.28-0.1,0.37-0.36,0.38c-0.95,0.02-1.91,0.04-2.86,0.05
		c-0.18,0-0.37-0.01-0.55-0.02c-0.36-0.02-0.72-0.05-1.1-0.08c-0.23-0.46-0.17-0.55,0.52-0.71c0.17-0.15,0.16-0.36,0.14-0.56
		c-0.15-1.28-0.05-2.56-0.05-3.84c0-0.47,0-0.93-0.02-1.4c-0.01-0.18-0.04-0.36-0.06-0.54c-0.2-0.06-0.37-0.12-0.55-0.17
		c-0.03-0.11-0.07-0.2-0.08-0.3c-0.02-0.24,0.07-0.34,0.28-0.4c0.06-0.02,0.12-0.03,0.18-0.03c0.73-0.02,1.46-0.04,2.17-0.06
		c0.26,0.6,0.21,0.67-0.54,0.85c-0.03,0.07-0.09,0.16-0.1,0.25c-0.05,0.58-0.14,1.16-0.11,1.76c0.04,0.85,0.01,1.71,0,2.56
		C252.58,62.35,252.55,62.88,252.69,63.47"/>
	<path d="M195.22,57.7c-0.31-0.19-0.56-0.35-0.83-0.5c-0.49-0.28-0.91-0.22-1.34,0.14c-0.22,0.19-0.37,0.43-0.45,0.71
		c-0.05,0.2-0.1,0.39-0.12,0.6c-0.08,0.74,0.01,1.45,0.31,2.14c0.15,0.34,0.39,0.56,0.77,0.6c0.24,0.02,0.48,0.06,0.72,0.05
		c0.48-0.03,0.7-0.25,0.86-0.72C195.49,59.72,195.39,58.72,195.22,57.7 M196.32,59.26c-0.09,0.5-0.14,1-0.27,1.49
		c-0.14,0.54-0.41,1.01-0.97,1.26c-0.92,0.42-2.11,0.21-2.83-0.52c-0.25-0.26-0.39-0.58-0.44-0.92c-0.07-0.5-0.09-1.01-0.16-1.51
		c-0.05-0.35,0.02-0.68,0.08-1.02c0.22-1.08,0.89-1.63,1.95-1.8c0.88-0.14,1.58,0.18,2.07,0.86c0.25,0.35,0.35,0.81,0.46,1.24
		C196.31,58.63,196.29,58.94,196.32,59.26"/>
	<path d="M199.95,59.66v1.73c0.23,0.21,0.49,0.17,0.72,0.21c0.16,0.03,0.32,0.08,0.45,0.16c0.07,0.04,0.11,0.19,0.09,0.27
		c-0.02,0.07-0.13,0.17-0.21,0.18c-0.26,0.03-0.53,0.02-0.79,0.02c-0.32,0-0.65,0.01-0.97,0c-0.12,0-0.25-0.01-0.36-0.05
		c-0.22-0.08-0.25-0.33-0.07-0.48c0.04-0.04,0.11-0.06,0.16-0.09c0.05-0.03,0.09-0.07,0.14-0.12c0.01-0.08,0.03-0.16,0.03-0.24
		c0.01-1.24,0.02-2.48,0.03-3.71c0-0.32-0.01-0.6-0.4-0.72c-0.21-0.06-0.24-0.25-0.12-0.49c1.07-0.14,2.15,0.07,3.26-0.07
		c0.13,0.38,0.18,0.71,0.17,1.06c-0.01,0.17-0.05,0.33-0.26,0.36c-0.19,0.02-0.3-0.09-0.37-0.25c-0.05-0.13-0.12-0.26-0.18-0.4
		c-0.46-0.06-0.92-0.08-1.42,0.03c0.02,0.34,0.04,0.66,0.04,0.97c0.01,0.3,0,0.6,0,0.94c0.39-0.02,0.79-0.05,1.19-0.05
		c0.24,0,0.35,0.12,0.34,0.33c-0.01,0.16-0.08,0.28-0.25,0.29c-0.16,0.01-0.33,0-0.49,0.02C200.45,59.58,200.23,59.62,199.95,59.66"
		/>
	<path d="M201.6,64.38c-0.07,0.31-0.29,0.34-0.52,0.34c-0.47-0.01-0.93-0.04-1.4-0.04c-0.53,0-1.05,0.05-1.58,0.05
		c-0.32,0-0.65-0.05-0.97-0.04c-0.99,0.01-1.99,0.04-2.98,0.06c-0.49,0.01-0.97,0.04-1.46,0.05c-0.22,0-0.44-0.04-0.66-0.09
		c-0.07-0.02-0.16-0.15-0.16-0.22c0-0.08,0.08-0.2,0.16-0.23c0.15-0.05,0.32-0.05,0.48-0.05c1.4,0.03,2.79,0.07,4.19-0.01
		c1.11-0.06,2.23-0.03,3.35-0.04c0.3,0,0.61-0.02,0.91-0.02C201.19,64.13,201.41,64.14,201.6,64.38"/>
	<path class="st0" d="M95.61,15.13c-4.29,1.26-6.84,4.19-7.16,7.58c-1.16-1.19-2.39-2.3-3.7-3.32c0.02-2.68,0.51-5.78,2.8-8.73
		c2.27-2.92,15.4-11,12.08-3.89c5.9-0.64,13.59,0.06,16.77,5.55c0.37,0.64-1.36,0.6-2.04,0.91c7.33,2.74,7.16,14.29,6.66,19.61
		c-0.8,8.48-1.86,8.29-5.09,5.67c0.4,1.15-1.04,9.39-3.65,5c-0.72,1.49-3.71,5.43-3.52,1.15c-4.67,6.4-4.75,1.75-6.77,1.88
		c-0.87,1.16-1.99,1.89-3.1,1.89c-0.18,0,0-5.97-0.16-6.01c-0.86-0.19-1.26-5.7-1.41-6.45c-0.49-2.42-1.31-4.76-2.46-6.94
		c-1.29-2.45-4.35-4.07-2.56-7c1.87-3.06,5.42-4.39,8.87-4.59c4.77-0.28,9.8,1.45,13.56,4.29c-0.04-0.06-0.07-0.11-0.11-0.17
		C110.87,16.03,102.36,13.14,95.61,15.13 M29.21,15.13c4.1,1.21,6.61,3.94,7.1,7.13c0.88-0.88,1.81-1.71,2.77-2.49
		c0.01-2.67-0.42-5.81-2.72-8.78C34.16,8.15,21.38,0.29,24.61,7.2c-5.74-0.63-13.22,0.06-16.32,5.4c-0.04,0.07-0.06,0.13-0.05,0.19
		c0.11,1-1.64,2.36-2.24,3.17c-5.18,6.91-4.2,11.3-3.8,15.54c0.78,8.26,2.85,10.49,5.99,7.94c-0.39,1.12,1.01,9.14,3.55,4.87
		c0.7,1.45,3.61,5.29,3.43,1.12c4.55,6.23,4.62,1.71,6.59,1.82c0.93,0.06,2.04,2.87,3.56,1.7c0.72-0.55,0.81-10.36,1.06-11.29
		c0.4-1.53,0.58-3.3,1.16-4.81c0.73-1.86,1.58-3.74,2.76-5.36c1.11-1.52,3.18-2.09,2.91-3.86c-0.63-4.13-6.08-5.97-9.56-6.17
		c-4.77-0.28-9.8,1.45-13.56,4.29c0,0,0,0,0,0C13.78,16.08,22.39,13.12,29.21,15.13"/>
	<path class="st0" d="M60.29,46.15c-0.24,0.09-0.45,0.16-0.59,0.21c-2.56,0.79-3.78,2.29-4.05,4.97c-0.08,0.76,0.09,1.54,0.03,2.3
		c-0.07,0.98-0.57,1.67-0.95,0.3c-0.35-1.3-0.25-2.86-0.19-4.19c0.03-0.65,0.12-1.29,0.36-1.95c0.03-0.08,0.07-0.17,0.1-0.25
		c0.04-0.09,0.08-0.17,0.13-0.26c0.06-0.09,0.1-0.18,0.19-0.28c0.07-0.1,0.16-0.18,0.24-0.26c0.16-0.14,0.32-0.25,0.48-0.33
		c0.08-0.05,0.15-0.09,0.23-0.12c0.08-0.04,0.15-0.08,0.23-0.11c0.31-0.14,0.62-0.24,0.93-0.33c0.31-0.09,0.62-0.15,0.94-0.2
		c0.32-0.05,0.63-0.08,0.95-0.09c0.31-0.01,0.61,0,0.91,0c0.61,0.02,1.21,0.04,1.83,0.13C61.73,45.63,60.91,45.93,60.29,46.15
		 M67.85,44.97l-3.46-0.56c-1.49-0.24-3.93-0.28-5.42-0.08l-3.2,0.42c-1.49,0.2-2.66,1.59-2.58,3.09l0.59,12.21
		c0.07,1.51,0.96,3.47,1.96,4.37c1.01,0.9,2.85,1.81,4.09,2.01c1.24,0.21,3.31,0.14,4.6-0.15c1.29-0.29,2.99-1.19,3.79-2.01
		c0.8-0.81,1.51-2.71,1.59-4.21l0.59-11.93C70.49,46.64,69.33,45.21,67.85,44.97"/>
	<path class="st0" d="M46.82,42.01c-0.69,0.97-2.01,2.92-2.73,1.95c-0.68-0.91,0.76-3.09,1.33-4.07c-0.58-0.69-1.52-1.24-2.43-1.21
		c-1.08,0.04-1.85,1.08-2.33,1.94c-1.07,1.92-0.94,4.24,0.32,6.03c1.19,1.68,3.64,3.06,5.48,1.43c0.86-0.77,0.8-2.24,0.77-3.29
		C47.22,43.88,47.24,42.83,46.82,42.01"/>
	<path class="st0" d="M80.05,43.17c-0.17-0.23-0.21-0.54-0.16-0.89c0.05-0.35,0.75-2.07,1-2.47c0.18-0.28,0.32-0.53,0.32-0.71
		c-1.7-2.12-4.66,0.42-5.16,2.59c-0.15,0.41-0.25,0.83-0.31,1.25c-0.17,1.26-0.31,2.64,0.13,3.84c0.12,0.37,0.3,0.7,0.59,0.96
		c1.85,1.63,4.29,0.26,5.48-1.43c1.05-1.48,1.31-3.32,0.77-5C82.01,42.29,80.74,44.11,80.05,43.17"/>
</g>
</svg>
