<?xml version="1.0" encoding="utf-8"?>
<!-- Generator: Adobe Illustrator 23.0.0, SVG Export Plug-In . SVG Version: 6.00 Build 0)  -->
<svg version="1.1" id="Layer_1" xmlns="http://www.w3.org/2000/svg" xmlns:xlink="http://www.w3.org/1999/xlink" x="0px" y="0px"
	 width="190.34px" height="190.34px" viewBox="0 0 190.34 190.34" style="enable-background:new 0 0 190.34 190.34;"
	 xml:space="preserve">
<style type="text/css">
	.st0{fill:#00524C;}
</style>
<g>
	<path class="st0" d="M32.36,150.7c-0.21,0.2-0.37,0.32-0.48,0.46c-0.54,0.68-1.07,1.38-1.61,2.06c-0.32,0.41-0.42,0.86-0.39,1.39
		c0.03,0.56-0.03,1.14-0.04,1.7c-0.02,1.08-0.03,2.16-0.04,3.24c0,0.09,0,0.19,0.01,0.29c0.04,0.49,0.25,0.71,0.74,0.77
		c0.58,0.07,1.17,0.13,1.75,0.19c0.11,0.01,0.22,0.03,0.35,0.05c0.03,0.12,0.09,0.22,0.09,0.33c0.01,0.55,0.02,1.1,0,1.65
		c-0.01,0.34-0.11,0.43-0.46,0.44c-0.36,0.01-0.72-0.01-1.08-0.01c-1.35,0-2.69,0.01-4.04,0.02c-0.4,0-0.79,0.05-1.19,0.06
		c-1.02,0.02-2.05,0.02-3.07,0.03c-0.05,0-0.11-0.03-0.2-0.06c-0.02-0.13-0.06-0.28-0.06-0.42c-0.03-0.59,0.09-1.17-0.01-1.76
		c-0.04-0.22,0.07-0.34,0.32-0.39c0.3-0.06,0.6-0.08,0.9-0.11c0.32-0.03,0.65-0.02,0.96-0.07c0.46-0.07,0.58-0.22,0.61-0.68
		c0.02-0.36,0.01-0.72,0.02-1.08c0.04-1.33-0.09-2.65-0.12-3.98c-0.03-1.88-0.02-3.75,0.02-5.63c0.03-1.19,0.01-2.39,0.01-3.58
		c0-1.46-0.01-2.92,0-4.38c0.01-0.72,0.04-1.44,0.06-2.16c0.01-0.27,0.02-0.53,0-0.8c-0.04-0.44-0.14-0.56-0.58-0.64
		c-0.5-0.09-1.01-0.13-1.52-0.2c-0.13-0.02-0.26-0.04-0.41-0.06c-0.03-0.12-0.09-0.22-0.09-0.33c0.01-0.61,0.02-1.21,0.05-1.82
		c0.02-0.37,0.09-0.41,0.47-0.38c0.11,0.01,0.23,0.04,0.34,0.02c0.66-0.13,1.32,0.01,1.98,0.01c0.74,0.01,1.48-0.01,2.22-0.01
		c1.01,0,2.01,0.01,3.01,0c0.44,0,0.87-0.03,1.31-0.05c0.33-0.02,0.48,0.09,0.49,0.4c0.02,0.64,0.03,1.29-0.09,1.93
		c-0.01,0.07-0.04,0.14-0.08,0.25c-0.18,0.04-0.36,0.08-0.54,0.11c-0.5,0.09-1.01,0.18-1.51,0.27c-0.36,0.06-0.51,0.32-0.54,0.64
		c-0.05,0.56-0.07,1.13-0.09,1.7c-0.01,0.32,0.01,0.64,0,0.96c0,0.76-0.01,1.52-0.01,2.28c0,0.44,0.01,0.87,0,1.31
		c-0.01,1.31-0.03,2.61-0.04,3.92c0,0.09,0.02,0.19,0.03,0.34c0.1-0.07,0.19-0.1,0.23-0.17c0.31-0.43,0.6-0.88,0.92-1.3
		c0.52-0.7,1.05-1.39,1.57-2.09c0.58-0.77,1.17-1.54,1.74-2.32c0.68-0.94,1.35-1.88,2.08-2.78c0.64-0.8,1.21-1.65,1.83-2.5
		c-0.26-0.17-0.53-0.14-0.78-0.2c-0.28-0.07-0.56-0.11-0.83-0.17c-0.21-0.05-0.32-0.18-0.33-0.4c-0.02-0.55-0.06-1.1-0.06-1.65
		c0-0.3,0.11-0.41,0.41-0.44c0.26-0.03,0.53-0.02,0.79-0.01c0.38,0.02,0.75-0.03,1.13-0.07c0.69-0.08,1.39-0.16,2.09-0.02
		c0.42,0.09,0.87,0.05,1.3,0.05c0.63,0.01,1.25,0,1.88,0c0.13,0,0.27,0,0.4,0.02c0.17,0.02,0.28,0.12,0.28,0.3
		c-0.01,0.59,0,1.18-0.04,1.76c-0.02,0.33-0.14,0.41-0.47,0.47c-0.41,0.09-0.81,0.17-1.22,0.27c-0.27,0.07-0.47,0.23-0.63,0.45
		c-0.51,0.69-1.01,1.37-1.53,2.05c-0.37,0.48-0.75,0.95-1.12,1.43c-0.48,0.64-0.94,1.28-1.42,1.92c-0.33,0.44-0.66,0.88-0.98,1.32
		c-0.53,0.74-1.06,1.48-1.58,2.22c0.05,0.13,0.08,0.23,0.14,0.33c0.49,0.9,1,1.79,1.49,2.68c0.54,0.98,1.06,1.97,1.6,2.95
		c0.81,1.48,1.62,2.96,2.45,4.43c0.33,0.59,0.68,1.18,1.06,1.75c0.48,0.74,1.2,1.2,2.02,1.51c0.19,0.07,0.41,0.06,0.62,0.07
		c0.47,0.04,0.56,0.13,0.58,0.59c0.01,0.28,0.04,0.57,0.06,0.85c0.01,0.26,0.02,0.53,0,0.8c-0.02,0.31-0.11,0.38-0.43,0.43
		c-0.06,0.01-0.11,0.01-0.17,0.01c-1.2,0.02-2.39,0-3.58-0.16c-1.65-0.23-2.78-1.21-3.57-2.62c-0.3-0.53-0.58-1.07-0.87-1.6
		c-0.68-1.25-1.35-2.5-2.03-3.75c-0.36-0.67-0.75-1.32-1.1-1.99c-0.28-0.52-0.52-1.05-0.79-1.58
		C32.8,151.45,32.6,151.12,32.36,150.7"/>
	<path class="st0" d="M57.33,148.65c0.01,0,0.02,0,0.03,0c0,0.19,0.01,0.38,0,0.57c-0.06,1.2,0.06,2.39,0.17,3.58
		c0.11,1.24,0.47,2.42,0.92,3.57c0.53,1.36,1.46,2.39,2.8,3c0.51,0.23,1.07,0.37,1.62,0.52c0.82,0.22,1.66,0.24,2.48,0.11
		c1.29-0.21,2.49-0.7,3.38-1.72c0.39-0.44,0.75-0.9,1.12-1.36c0.06-0.07,0.1-0.16,0.14-0.25c0.41-0.9,0.72-1.84,0.9-2.81
		c0.16-0.88,0.27-1.76,0.32-2.65c0.09-1.72,0.18-3.44-0.04-5.16c-0.18-1.4-0.37-2.78-0.95-4.08c-0.43-0.96-0.9-1.88-1.69-2.61
		c-0.63-0.58-1.32-0.99-2.16-1.2c-0.79-0.2-1.58-0.22-2.37-0.15c-0.53,0.05-1.07,0.1-1.57,0.26c-0.83,0.27-1.57,0.73-2.26,1.29
		c-0.91,0.74-1.38,1.76-1.79,2.79c-0.44,1.11-0.75,2.27-0.89,3.46C57.39,146.75,57.38,147.7,57.33,148.65 M75.79,148.66
		c0,0.48-0.02,0.84,0,1.2c0.08,1.45-0.12,2.87-0.46,4.28c-0.11,0.44-0.2,0.89-0.3,1.33c-0.21,0.94-0.62,1.79-1.01,2.65
		c-0.49,1.08-1.2,2.01-2.01,2.88c-1,1.08-2.19,1.86-3.61,2.28c-1.58,0.47-3.18,0.74-4.82,0.64c-1.31-0.07-2.62-0.21-3.86-0.65
		c-1.37-0.49-2.57-1.28-3.56-2.36c-1.07-1.16-1.78-2.53-2.33-4.01c-0.56-1.51-0.84-3.07-0.91-4.67c-0.02-0.47-0.06-0.95-0.14-1.41
		c-0.14-0.85-0.12-1.7-0.03-2.55c0.07-0.7,0.1-1.4,0.16-2.1c0.04-0.51,0.1-1.02,0.16-1.53c0.06-0.57,0.19-1.12,0.38-1.66
		c0.21-0.61,0.38-1.23,0.6-1.84c0.55-1.53,1.52-2.78,2.67-3.91c0.63-0.61,1.31-1.15,2.07-1.59c0.39-0.23,0.79-0.46,1.21-0.62
		c1.14-0.44,2.31-0.73,3.55-0.73c0.81,0,1.63-0.02,2.44-0.01c1.06,0.01,2.07,0.27,3.02,0.71c0.52,0.24,1.04,0.46,1.53,0.74
		c1.09,0.62,1.96,1.47,2.64,2.53c0.6,0.95,1.13,1.93,1.53,2.98c0.16,0.42,0.26,0.87,0.37,1.31c0.11,0.46,0.22,0.92,0.28,1.39
		c0.14,1.07,0.26,2.15,0.36,3.22C75.78,147.71,75.77,148.24,75.79,148.66"/>
	<path class="st0" d="M154.07,139c-0.08,0.2-0.14,0.33-0.17,0.47c-0.28,1.12-0.56,2.24-0.84,3.36c-0.12,0.48-0.21,0.97-0.37,1.43
		c-0.26,0.76-0.39,1.54-0.58,2.32c-0.2,0.81-0.44,1.61-0.68,2.41c-0.18,0.62-0.39,1.23-0.56,1.85c-0.05,0.19-0.11,0.4-0.05,0.63
		c0.52,0.02,1.03,0.03,1.54-0.01c0.26-0.03,0.53-0.02,0.79-0.01c0.49,0.02,0.98,0.04,1.48,0.07c0.83,0.05,1.67-0.07,2.5,0.08
		c0.15,0.03,0.34,0.07,0.49-0.08c0-0.05,0-0.11-0.01-0.16c-0.26-0.83-0.43-1.69-0.65-2.53c-0.57-2.2-1.07-4.42-1.79-6.58
		c-0.33-0.99-0.61-1.99-0.92-2.99C154.21,139.18,154.15,139.12,154.07,139 M159.83,160.25c-0.08-0.4-0.12-0.74-0.21-1.07
		c-0.3-1.16-0.61-2.31-0.92-3.46c-0.02-0.09-0.06-0.18-0.09-0.27c-0.09-0.24-0.26-0.37-0.51-0.38c-0.27,0-0.53-0.01-0.8,0.01
		c-0.82,0.08-1.63,0.04-2.44,0.01c-1.29-0.05-2.58-0.03-3.87-0.04c-0.34,0-0.68,0.02-0.99,0.03c-0.23,0.41-1.4,4.7-1.42,5.2
		c0.09,0.03,0.19,0.08,0.29,0.09c0.56,0.08,1.13,0.15,1.69,0.22c0.37,0.05,0.5,0.16,0.57,0.52c0.02,0.11,0.03,0.22,0.03,0.34
		c0,0.47-0.01,0.95-0.02,1.42c0,0.12-0.06,0.25-0.1,0.38c-0.31,0.01-0.59,0.04-0.87,0.04c-2.24,0.02-4.48,0.04-6.71,0.06
		c-0.23,0-0.46,0-0.68-0.02c-0.25-0.02-0.32-0.1-0.35-0.36c-0.02-0.11-0.02-0.23-0.02-0.34c-0.01-0.47-0.02-0.95-0.02-1.42
		c0-0.41,0.11-0.53,0.52-0.6c0.17-0.03,0.34-0.05,0.5-0.09c0.65-0.16,1.06-0.57,1.26-1.2c0.35-1.16,0.67-2.33,1.05-3.48
		c0.3-0.9,0.5-1.83,0.69-2.75c0.07-0.35,0.22-0.69,0.32-1.03c0.26-0.83,0.54-1.66,0.79-2.49c0.41-1.4,0.81-2.8,1.22-4.21
		c0.51-1.77,1.01-3.54,1.52-5.3c0.12-0.4,0.25-0.8,0.36-1.2c0.3-1.12,0.59-2.23,0.88-3.35c0.05-0.18,0.09-0.37,0.15-0.55
		c0.1-0.27,0.28-0.44,0.59-0.44c0.23,0.01,0.46-0.01,0.68-0.01c1.1,0,2.2,0.01,3.3,0.02c0.76,0,0.93,0.16,1.12,0.92
		c0.16,0.64,0.37,1.27,0.57,1.91c0.03,0.09,0.07,0.18,0.1,0.27c0.3,0.96,0.6,1.92,0.9,2.88c0.16,0.49,0.34,0.97,0.49,1.45
		c0.19,0.6,0.38,1.19,0.53,1.8c0.29,1.1,0.65,2.18,1,3.26c0.26,0.79,0.47,1.6,0.71,2.4c0.16,0.55,0.34,1.09,0.5,1.63
		c0.48,1.54,0.95,3.08,1.43,4.62c0.38,1.21,0.76,2.42,1.15,3.63c0.06,0.18,0.15,0.35,0.24,0.51c0.12,0.2,0.31,0.31,0.55,0.37
		c0.39,0.09,0.77,0.22,1.15,0.33c0.37,0.11,0.55,0.36,0.57,0.75c0.02,0.49,0.08,0.98,0.11,1.47c0.03,0.45-0.14,0.65-0.59,0.63
		c-0.61-0.02-1.21-0.07-1.81-0.1c-0.11-0.01-0.23,0-0.34,0c-1.82,0.04-3.64,0.08-5.46,0.12c-0.34,0.01-0.68,0.02-1.02,0.02
		c-0.17,0-0.34-0.01-0.51-0.04c-0.28-0.06-0.39-0.17-0.41-0.46c-0.04-0.7,0.01-1.4,0.12-2.1c0.03-0.2,0.17-0.31,0.37-0.26
		c0.38,0.09,0.71-0.04,1.06-0.11C159.1,160.38,159.44,160.33,159.83,160.25"/>
	<path class="st0" d="M95.05,139.21c-0.55,1.41-0.9,2.79-1.3,4.14c-0.41,1.36-0.71,2.75-1.09,4.12c-0.37,1.36-0.71,2.72-1.05,4.14
		c1.17-0.02,2.28,0.04,3.4-0.05c0.23-0.02,0.45-0.02,0.68-0.01c0.81,0.01,1.63,0.02,2.44,0.03c0.05,0,0.1-0.04,0.15-0.06
		C98.23,150.76,95.56,140.53,95.05,139.21 M100.66,160.54c0-0.18,0.03-0.31,0-0.43c-0.44-1.59-0.88-3.18-1.33-4.8
		c-0.38-0.05-0.73-0.12-1.08-0.13c-0.91-0.03-1.82-0.03-2.73-0.04c-1.21,0-2.43,0.01-3.64,0.02c-0.42,0-0.83,0.02-1.24,0.03
		c-0.21,0.23-0.25,0.49-0.32,0.75c-0.75,2.78-1.01,4.02-0.99,4.62c0.1,0.02,0.21,0.05,0.32,0.06c0.64,0.05,1.29,0.09,1.93,0.14
		c0.35,0.03,0.43,0.14,0.4,0.47c-0.04,0.49-0.08,0.98-0.12,1.47c-0.01,0.15-0.02,0.3-0.06,0.45c-0.06,0.23-0.16,0.31-0.4,0.31
		c-0.98,0.01-1.97-0.01-2.95,0.01c-0.61,0.01-1.21,0.09-1.82,0.09c-0.72,0.01-1.44,0-2.16-0.02c-0.42-0.01-0.83-0.06-1.22-0.08
		c-0.18-0.17-0.15-0.37-0.15-0.55c0-0.53,0.01-1.06,0.02-1.59c0.01-0.43,0.17-0.62,0.61-0.67c0.33-0.04,0.63-0.14,0.91-0.29
		c0.21-0.1,0.38-0.25,0.48-0.47c0.21-0.49,0.46-0.96,0.61-1.47c0.43-1.37,0.85-2.75,1.22-4.14c0.27-1,0.6-1.99,0.87-2.99
		c0.37-1.33,0.77-2.66,1.16-3.98c0.4-1.38,0.79-2.77,1.2-4.15c0.31-1.05,0.67-2.09,0.98-3.15c0.46-1.58,0.9-3.18,1.34-4.76
		c0.15-0.53,0.2-0.57,0.75-0.59c1.34-0.03,2.69-0.06,4.03-0.08c0.11,0,0.23,0.01,0.34,0.02c0.27,0.03,0.44,0.16,0.52,0.44
		c0.34,1.2,0.7,2.4,1.05,3.6c0.54,1.84,1.09,3.67,1.63,5.51c0.4,1.35,0.79,2.69,1.19,4.04c0.21,0.71,0.47,1.4,0.68,2.11
		c0.43,1.44,0.85,2.87,1.26,4.31c0.35,1.22,0.68,2.45,1.03,3.66c0.15,0.51,0.33,1.01,0.6,1.47c0.13,0.22,0.29,0.4,0.53,0.49
		c0.42,0.16,0.85,0.33,1.28,0.46c0.37,0.12,0.48,0.22,0.47,0.59c-0.01,0.51-0.02,1.02-0.03,1.53c-0.01,0.48-0.11,0.6-0.6,0.64
		c-0.15,0.01-0.3,0.01-0.46,0c-1.9-0.13-3.79-0.08-5.69-0.01c-0.89,0.03-1.78,0.02-2.67,0.01c-0.34,0-0.43-0.11-0.43-0.45
		c-0.01-0.51-0.02-1.03-0.01-1.54c0-0.49,0.08-0.59,0.59-0.65c0.58-0.08,1.17-0.14,1.75-0.21
		C100.42,160.58,100.51,160.56,100.66,160.54"/>
	<path class="st0" d="M123.47,159.95c0.45-0.03,0.85-0.06,1.24-0.09c0.09-0.01,0.19-0.05,0.28-0.04c1.08,0.05,2.16-0.06,3.24,0.06
		c0.73,0.08,1.48,0.03,2.22,0.03c0.25,0,0.34-0.08,0.39-0.33c0.12-0.67,0.25-1.34,0.33-2.02c0.06-0.44,0.25-1.53,0.39-1.85
		c0.57,0,1.15,0,1.74,0c0.25,0,0.49,0,0.74,0c0.42-0.01,0.52,0.07,0.54,0.47c0.02,0.24,0.02,0.49,0.02,0.74
		c0.03,1.63,0.05,3.26,0.08,4.89c0.01,0.34,0.02,0.68,0.01,1.02c-0.01,0.35-0.08,0.43-0.45,0.44c-0.61,0.02-1.21,0.01-1.82,0.02
		c-0.83,0.02-1.67,0.05-2.5,0.06c-1.37,0.02-2.73,0.01-4.1,0.03c-0.7,0.01-1.4,0.06-2.1,0.07c-0.87,0.01-1.75,0.01-2.62-0.02
		c-1.4-0.06-2.8-0.13-4.21,0.01c-0.09,0.01-0.19,0-0.28-0.01c-0.07-0.01-0.14-0.05-0.23-0.08c-0.02-0.09-0.07-0.17-0.07-0.26
		c-0.02-0.62-0.04-1.25-0.04-1.88c0-0.25,0.1-0.38,0.37-0.43c0.18-0.03,0.38-0.03,0.57-0.04c0.4-0.02,0.79-0.08,1.17-0.21
		c0.4-0.14,0.63-0.39,0.62-0.84c-0.01-0.38-0.01-0.76-0.01-1.14c-0.01-0.59-0.02-1.17-0.04-1.76c-0.03-0.93-0.05-1.86-0.09-2.78
		c-0.03-0.78-0.08-1.55-0.09-2.33c0-0.41,0.06-0.83,0.08-1.24c0.04-0.74,0.1-1.48,0.08-2.21c-0.03-1.18,0-2.35,0.01-3.53
		c0.01-1.29-0.05-2.58-0.07-3.87c-0.01-0.85-0.01-1.71-0.02-2.56c0-0.08-0.01-0.15-0.01-0.23c0-0.29-0.15-0.47-0.41-0.54
		c-0.35-0.08-0.71-0.14-1.06-0.18c-0.24-0.03-0.49-0.01-0.74-0.03c-0.31-0.03-0.39-0.11-0.44-0.42c-0.02-0.13-0.03-0.26-0.04-0.4
		c-0.02-0.42-0.04-0.83-0.06-1.25c-0.02-0.48,0.07-0.55,0.53-0.58c2.39-0.17,4.78-0.07,7.17-0.11c0.83-0.01,1.67-0.01,2.49,0.11
		c0.06,0.01,0.11,0.03,0.15,0.04c0.18,0.15,0.16,0.34,0.16,0.53c0.01,0.53,0.01,1.06,0,1.59c0,0.49-0.19,0.66-0.67,0.58
		c-0.67-0.12-1.32,0.03-1.97,0.1c-0.46,0.05-0.65,0.28-0.61,0.74c0.07,0.95-0.05,1.89-0.03,2.84c0.03,1.21,0,2.43,0.01,3.64
		c0.02,1.71,0.05,3.41,0.08,5.12c0,0.13,0.01,0.27,0.01,0.4c0,1.86,0,3.72,0,5.58c0,0.57-0.03,1.14,0.01,1.71
		c0.05,0.66,0.13,1.32,0.01,1.98C123.41,159.59,123.45,159.73,123.47,159.95"/>
	<path d="M141.18,127.88c0.17-0.17,0.17-0.36,0.17-0.54c-0.03-1.59-0.06-3.18-0.1-4.78c-0.01-0.42-0.06-0.83-0.09-1.25
		c-0.02-0.33-0.17-0.54-0.49-0.61c-0.15-0.04-0.33-0.05-0.37-0.22c-0.05-0.22-0.05-0.45-0.04-0.67c0-0.06,0.12-0.15,0.2-0.17
		c0.1-0.04,0.22-0.03,0.34-0.03c0.8-0.01,1.59-0.01,2.39-0.02c0.37,0,0.44,0.05,0.48,0.34c0.07,0.45-0.02,0.63-0.36,0.71
		c-0.2,0.05-0.4,0.09-0.61,0.14c-0.03,0.01-0.06,0.04-0.13,0.1c-0.01,0.15-0.02,0.34-0.02,0.52c0.02,0.68,0.05,1.36,0.07,2.04
		c0.05,1.38,0.11,2.77,0.14,4.15c0.01,0.49-0.07,0.98-0.08,1.47c-0.01,0.45,0.02,0.91,0.04,1.36c0.02,0.33-0.12,0.59-0.44,0.6
		c-0.41,0.01-0.83-0.04-1.24-0.11c-0.12-0.02-0.25-0.17-0.32-0.29c-0.5-0.98-1.01-1.96-1.47-2.95c-0.4-0.86-0.83-1.7-1.3-2.53
		c-0.45-0.79-0.83-1.61-1.25-2.42c-0.06-0.11-0.13-0.23-0.24-0.42c-0.05,0.16-0.09,0.23-0.1,0.31c-0.01,0.13-0.02,0.27-0.01,0.4
		c0.01,1.86,0.02,3.72,0.04,5.58c0,0.37-0.01,0.76,0.16,1.14c0.16,0.01,0.31,0.02,0.45,0.04c0.32,0.04,0.44,0.15,0.49,0.45
		c0.01,0.11,0.01,0.23,0,0.34c-0.02,0.19-0.12,0.32-0.32,0.34c-0.13,0.02-0.26,0.03-0.4,0.03c-0.72,0-1.44,0-2.16-0.01
		c-0.48-0.01-0.52-0.04-0.54-0.52c-0.01-0.13,0-0.26,0-0.43c0.33-0.1,0.65-0.19,0.99-0.3c0.02-0.16,0.06-0.3,0.06-0.45
		c0-0.36-0.02-0.72-0.02-1.08c-0.01-0.7-0.02-1.4,0-2.1c0.01-0.68-0.03-1.36-0.08-2.05c-0.06-0.79-0.02-1.59-0.03-2.39
		c0-0.15,0-0.31-0.02-0.45c-0.05-0.31-0.17-0.42-0.48-0.45c-0.15-0.02-0.3-0.03-0.46-0.05c-0.13-0.31-0.1-0.6-0.02-0.88
		c0.07-0.03,0.12-0.07,0.17-0.07c0.55-0.02,1.1-0.04,1.64-0.05c0.19-0.01,0.38-0.01,0.57,0c0.3,0.02,0.55,0.14,0.71,0.41
		c0.09,0.15,0.19,0.29,0.26,0.44c0.99,2.07,1.99,4.13,3.11,6.14c0.19,0.35,0.37,0.71,0.56,1.06
		C141.07,127.75,141.12,127.8,141.18,127.88"/>
	<path d="M80.16,122.53c-0.04,0.1-0.1,0.2-0.1,0.3c0.01,0.7,0.04,1.4,0.05,2.1c0.01,0.55-0.01,1.1-0.02,1.65
		c-0.01,0.93-0.03,1.86-0.05,2.79c0,0.11,0.02,0.22,0.04,0.38c0.34,0.1,0.68,0.19,1.06,0.3c0.02,0.23,0.04,0.45,0.05,0.67
		c0,0.18-0.12,0.27-0.29,0.29c-0.06,0.01-0.11,0.01-0.17,0.01c-0.83,0-1.67,0.01-2.5-0.01c-0.43-0.01-0.69-0.49-0.46-0.85
		c0.05-0.08,0.17-0.14,0.28-0.17c0.16-0.06,0.33-0.08,0.49-0.13c0.05-0.02,0.1-0.05,0.17-0.09c0.15-0.26,0.08-0.55,0.08-0.82
		c0-1.14-0.03-2.28-0.03-3.41c0-1.18,0.02-2.35,0.03-3.53c0-0.34,0.02-0.68-0.09-1.04c-0.19-0.04-0.38-0.06-0.56-0.11
		c-0.39-0.11-0.56-0.67-0.3-0.98c0.06-0.07,0.2-0.13,0.3-0.13c0.74,0.01,1.48,0.04,2.22,0.07c0.24,0.01,0.36,0.18,0.46,0.37
		c0.43,0.87,0.87,1.73,1.3,2.59c0.72,1.44,1.47,2.87,2.09,4.36c0.16,0.4,0.38,0.78,0.73,1.15c0.05-0.18,0.11-0.29,0.11-0.41
		c0.01-0.8,0-1.59,0-2.39c-0.01-1.16-0.02-2.31-0.04-3.47c0-0.08,0-0.15,0.01-0.23c0.01-0.88-0.05-0.82-0.79-0.93
		c-0.02,0-0.03-0.02-0.09-0.05c-0.02-0.03-0.07-0.09-0.09-0.16c-0.15-0.76,0-0.96,0.73-0.97c0.72-0.01,1.44,0,2.16,0.03
		c0.46,0.02,0.7,0.59,0.42,0.97c-0.06,0.08-0.18,0.14-0.28,0.17c-0.13,0.04-0.26,0.02-0.4,0.05c-0.24,0.04-0.32,0.12-0.36,0.37
		c-0.01,0.04-0.01,0.08-0.01,0.11c0.01,0.95,0.02,1.89,0.03,2.84c0.01,0.82,0.04,1.63,0.05,2.45c0.01,1.2-0.01,2.39,0,3.58
		c0,0.7-0.01,0.74-0.69,0.83c-0.32,0.04-0.64,0.04-0.96,0.03c-0.26-0.01-0.43-0.16-0.55-0.42c-0.61-1.39-1.18-2.79-1.89-4.14
		c-0.4-0.75-0.73-1.54-1.09-2.32c-0.23-0.48-0.46-0.96-0.69-1.43C80.45,122.69,80.37,122.56,80.16,122.53"/>
	<path d="M33.24,122.83c-0.07,0.15-0.1,0.18-0.1,0.21c-0.1,1.63-0.18,3.25-0.07,4.88c0.01,0.21-0.01,0.42-0.01,0.62
		c-0.01,0.25-0.02,0.49-0.03,0.74c-0.01,0.76-0.01,0.66,0.6,0.9c0.11,0.04,0.21,0.08,0.31,0.13c0.03,0.02,0.06,0.05,0.09,0.08
		c0.01,0.04,0.04,0.1,0.04,0.15c-0.02,0.62-0.08,0.69-0.69,0.69c-0.66,0.01-1.33,0.02-1.99,0.03c-0.11,0-0.23,0.01-0.34,0
		c-0.26-0.02-0.34-0.1-0.34-0.35c0-0.09,0.01-0.19,0.01-0.28c0.01-0.19,0.1-0.32,0.29-0.37c0.15-0.04,0.29-0.08,0.43-0.13
		c0.24-0.08,0.38-0.25,0.38-0.51c0-0.06,0.01-0.11,0.01-0.17c-0.02-0.51-0.04-1.02-0.05-1.53c-0.01-0.23-0.01-0.46-0.01-0.68
		c0-0.98,0.01-1.97,0-2.96c0-0.89-0.02-1.78-0.04-2.67c0-0.09-0.02-0.19-0.03-0.33c-0.16-0.04-0.31-0.09-0.47-0.13
		c-0.37-0.08-0.44-0.17-0.43-0.53c0-0.07,0-0.17,0.03-0.22c0.06-0.09,0.14-0.17,0.23-0.22c0.08-0.04,0.19-0.03,0.28-0.03
		c0.64,0,1.29,0,1.93,0c0.24,0,0.39,0.11,0.49,0.32c0.22,0.46,0.45,0.92,0.67,1.38c0.72,1.51,1.43,3.01,2.15,4.52
		c0.28,0.58,0.58,1.15,0.89,1.72c0.07,0.13,0.17,0.24,0.31,0.42c0.05-0.17,0.1-0.27,0.11-0.37c0.01-0.28,0-0.57,0-0.85
		c0.02-1.19,0.07-2.39,0.07-3.58c0-0.64-0.02-1.29,0.03-1.93c0.03-0.42-0.02-0.46-0.45-0.56c-0.45-0.1-0.64-0.48-0.42-0.89
		c0.04-0.07,0.13-0.13,0.22-0.16c0.09-0.03,0.19,0,0.28,0c0.64,0,1.29,0.06,1.93-0.07c0.07-0.02,0.15-0.01,0.23-0.01
		c0.51-0.01,0.56,0.04,0.55,0.54c0,0.11-0.01,0.22-0.02,0.34c0,0.02-0.02,0.03-0.05,0.09c-0.15,0.04-0.33,0.08-0.51,0.12
		c-0.44,0.12-0.49,0.17-0.49,0.62c-0.01,0.68-0.01,1.37-0.01,2.05c-0.01,1.35-0.03,2.69-0.02,4.04c0,0.72,0.05,1.44,0.09,2.16
		c0.02,0.34,0.05,0.68-0.1,1.04c-0.11,0.03-0.24,0.09-0.36,0.09c-0.38,0.02-0.75,0.03-1.13,0.04c-0.25,0.01-0.44-0.1-0.55-0.33
		c-0.43-0.89-0.85-1.78-1.27-2.67c-0.27-0.57-0.52-1.14-0.8-1.7c-0.52-1.07-1.06-2.14-1.59-3.21
		C33.46,123.16,33.37,123.03,33.24,122.83"/>
	<path d="M68.78,121.39c0,0.66-0.01,1.24,0,1.82c0.01,0.58-0.08,1.16,0.1,1.71c0.57,0.22,1.09,0.16,1.6,0
		c0.47-0.15,0.83-0.45,0.97-0.95c0.16-0.56,0.15-1.12,0.05-1.68c-0.08-0.44-0.33-0.69-0.76-0.82
		C70.11,121.28,69.48,121.34,68.78,121.39 M71.19,130.99c-0.26-0.67-0.24-0.7,0.46-1.04c-0.36-1.01-0.71-2.03-1.07-3.04
		c-0.04-0.12-0.1-0.25-0.19-0.35c-0.07-0.08-0.18-0.17-0.27-0.18c-0.43-0.02-0.86-0.05-1.3,0.02c-0.13,0.39-0.13,0.77-0.14,1.15
		c-0.02,0.63-0.02,1.25-0.03,1.88c0,0.41,0.04,0.46,0.43,0.53c0.06,0.01,0.11,0.02,0.17,0.02c0.41-0.01,0.46,0.2,0.5,0.48
		c0.06,0.44-0.06,0.59-0.51,0.6c-0.4,0.01-0.8-0.06-1.19,0c-0.57,0.09-1.13-0.05-1.69-0.01c-0.07,0.01-0.14-0.03-0.25-0.05
		c-0.02-0.23-0.05-0.45-0.06-0.67c-0.01-0.21,0.07-0.3,0.3-0.33c0.11-0.02,0.23-0.01,0.34-0.03c0.25-0.04,0.36-0.15,0.38-0.42
		c0.02-0.19,0.02-0.38,0.01-0.57c-0.06-1.5-0.01-3,0.07-4.49c0.06-1.08-0.07-2.16-0.12-3.24c0-0.05-0.03-0.11-0.06-0.2
		c-0.13-0.02-0.28-0.05-0.42-0.07c-0.3-0.05-0.39-0.14-0.42-0.44c-0.05-0.43,0.06-0.57,0.48-0.57c1.38-0.01,2.77-0.02,4.15,0
		c0.39,0.01,0.79,0.11,1.17,0.21c0.45,0.11,0.77,0.4,1,0.79c0.28,0.49,0.41,1.02,0.42,1.58c0.02,1.27-0.39,2.35-1.49,3.08
		c-0.06,0.04-0.11,0.1-0.2,0.17c0.07,0.1,0.14,0.18,0.2,0.27c0.16,0.28,0.34,0.55,0.45,0.84c0.22,0.58,0.4,1.19,0.6,1.78
		c0.08,0.23,0.17,0.46,0.28,0.68c0.15,0.3,0.35,0.54,0.74,0.51c0.19-0.01,0.4,0.02,0.47,0.24c0.08,0.26,0.1,0.53-0.03,0.78
		c-0.08,0.16-0.25,0.15-0.4,0.15c-0.53,0-1.06,0-1.59-0.01c-0.34,0-0.68-0.01-1.02-0.01C71.3,131.04,71.26,131.02,71.19,130.99"/>
	<path d="M128.63,125.12c0-0.24,0.01-0.43,0-0.62c-0.04-1.13-0.35-2.16-1.2-2.98c-0.44-0.42-0.93-0.65-1.53-0.6
		c-0.59,0.04-1.16,0.19-1.65,0.55c-0.12,0.09-0.27,0.17-0.35,0.29c-0.35,0.52-0.68,1.04-0.82,1.67c-0.28,1.28-0.22,2.57,0.03,3.84
		c0.28,1.43,1.73,2.76,3.41,2.29c0.77-0.22,1.32-0.67,1.58-1.42C128.45,127.15,128.69,126.13,128.63,125.12 M121.21,125.45
		c-0.05-0.99,0.07-1.86,0.25-2.71c0.12-0.58,0.39-1.11,0.83-1.53c0.3-0.29,0.58-0.6,0.93-0.83c1.1-0.74,2.28-1.21,3.64-0.87
		c0.74,0.19,1.41,0.55,1.99,1.06c0.38,0.33,0.6,0.79,0.82,1.22c0.37,0.73,0.58,1.52,0.68,2.34c0.19,1.55-0.07,3.05-0.63,4.5
		c-0.18,0.47-0.45,0.92-0.76,1.32c-0.33,0.43-0.82,0.66-1.33,0.84c-0.52,0.18-1.07,0.31-1.61,0.3c-0.51-0.01-1.03-0.07-1.51-0.21
		c-0.52-0.15-1.02-0.38-1.49-0.68c-0.77-0.5-1.2-1.2-1.41-2.05C121.36,127.22,121.16,126.29,121.21,125.45"/>
	<path d="M149.99,126.17c0.46,0.13,0.9,0.09,1.33,0.05c0.43-0.04,0.84,0.18,1.32,0.03c-0.49-1.57-0.72-3.19-1.26-4.72
		c-0.01-0.04-0.09-0.06-0.13-0.09c-0.04,0.03-0.08,0.06-0.09,0.09c-0.34,1.49-0.69,2.98-1.18,4.43
		C149.97,126,149.99,126.06,149.99,126.17 M155.5,129.43c0.94,0.23,1.05,0.43,0.76,1.32c-0.06,0.02-0.12,0.07-0.19,0.07
		c-1.02,0.01-2.05,0.01-3.07,0c-0.3,0-0.43-0.12-0.46-0.39c-0.03-0.29,0.08-0.44,0.39-0.53c0.2-0.05,0.4-0.09,0.62-0.15
		c0-0.11,0.02-0.19,0-0.26c-0.17-0.54-0.34-1.08-0.51-1.63c-0.07-0.23-0.2-0.34-0.46-0.34c-0.98,0.03-1.97,0.04-2.96,0.07
		c-0.27,0.42-0.38,0.86-0.46,1.3c-0.13,0.71-0.12,0.71,0.57,0.92c0.39,0.12,0.56,0.65,0.3,0.96c-0.13,0.15-0.31,0.13-0.48,0.13
		c-0.82,0.01-1.63,0.02-2.45,0.03c-0.06,0-0.11,0.01-0.17,0c-0.3-0.02-0.41-0.14-0.4-0.43c0-0.13,0.04-0.26,0.06-0.39
		c0.03-0.18,0.13-0.32,0.31-0.37c0.46-0.12,0.65-0.43,0.78-0.87c0.43-1.4,0.87-2.79,1.19-4.22c0.12-0.53,0.32-1.05,0.47-1.58
		c0.24-0.86,0.48-1.72,0.7-2.58c0.25-0.98,0.25-0.86,1.02-0.9c0.3-0.02,0.61,0,0.91,0.02c0.3,0.02,0.48,0.17,0.57,0.47
		c0.49,1.64,0.97,3.27,1.48,4.9c0.3,0.98,0.65,1.94,0.97,2.92c0.11,0.32,0.21,0.65,0.31,0.97
		C155.36,129.07,155.43,129.24,155.5,129.43"/>
	<path d="M94.99,121.56c-0.09,0.18-0.14,0.25-0.16,0.34c-0.4,1.46-0.79,2.92-1.18,4.4c0.48,0.16,0.93,0.07,1.38,0.05
		c0.44-0.02,0.9,0.08,1.34-0.09c-0.41-1.49-0.8-2.96-1.21-4.42C95.14,121.78,95.09,121.72,94.99,121.56 M96.31,129.99
		c0.31-0.05,0.6-0.1,0.93-0.15c-0.03-0.74-0.35-1.38-0.53-2.02c-0.09-0.04-0.12-0.07-0.16-0.07c-0.93-0.01-1.86-0.03-2.78-0.01
		c-0.52,0.01-0.52,0.03-0.67,0.51c-0.1,0.33-0.22,0.65-0.33,0.97c-0.08,0.22-0.16,0.43-0.05,0.71c0.19,0.02,0.39,0.03,0.59,0.05
		c0.35,0.05,0.58,0.52,0.41,0.82c-0.08,0.15-0.22,0.21-0.38,0.21c-0.83,0.01-1.66,0.02-2.5,0.01c-0.32,0-0.4-0.09-0.44-0.33
		c-0.07-0.4,0-0.65,0.27-0.72c0.44-0.11,0.61-0.4,0.71-0.79c0.26-0.93,0.52-1.86,0.8-2.78c0.28-0.93,0.58-1.84,0.85-2.77
		c0.26-0.85,0.49-1.71,0.74-2.56c0.09-0.31,0.2-0.61,0.31-0.92c0.09-0.26,0.29-0.4,0.56-0.41c0.41-0.01,0.83,0,1.25,0
		c0.18,0,0.28,0.1,0.33,0.26c0.04,0.13,0.08,0.25,0.12,0.38c0.31,0.97,0.6,1.95,0.92,2.93c0.33,1.03,0.62,2.07,0.89,3.11
		c0.25,0.97,0.58,1.92,0.87,2.88c0.09,0.3,0.22,0.49,0.55,0.58c0.34,0.09,0.5,0.47,0.4,0.82c-0.05,0.17-0.17,0.24-0.34,0.25
		c-0.4,0.02-0.79,0.05-1.19,0.06c-0.53,0.02-1.06,0.01-1.59,0.02c-0.49,0.01-0.61-0.09-0.62-0.58c0-0.08,0-0.15,0.01-0.23
		C96.24,130.17,96.27,130.12,96.31,129.99"/>
	<path d="M58.03,121.3c-0.03,0.15-0.07,0.28-0.07,0.41c0,1.02,0,2.04,0.01,3.09c0.17,0.02,0.3,0.05,0.42,0.05
		c0.61,0.01,1.21,0.01,1.82,0c0.21,0,0.42-0.01,0.62,0c0.15,0,0.26,0.1,0.27,0.24c0.01,0.26-0.01,0.53-0.03,0.79
		c-0.01,0.15-0.12,0.23-0.27,0.24c-0.07,0.01-0.15,0-0.23-0.01c-0.07-0.01-0.15-0.04-0.22-0.04c-0.79-0.03-1.58-0.06-2.35,0.06
		c-0.05,0.08-0.1,0.13-0.1,0.18c-0.11,1.13-0.04,2.27-0.04,3.41c0.12,0.04,0.2,0.09,0.29,0.1c0.61,0.01,1.21,0.02,1.82,0.02
		c0.15,0,0.3-0.04,0.45-0.05c0.38-0.03,0.48-0.08,0.55-0.58c0.03-0.21,0.04-0.42,0.07-0.62c0.03-0.19,0.15-0.3,0.35-0.31
		c0.07-0.01,0.15-0.01,0.23-0.01c0.55-0.01,0.64,0.06,0.63,0.61c-0.01,0.68-0.05,1.36-0.09,2.07c-0.16,0.03-0.3,0.07-0.45,0.08
		c-0.3,0.02-0.61,0.03-0.91,0.02c-0.93-0.03-1.85-0.01-2.78,0.06c-0.21,0.02-0.42,0-0.62-0.01c-0.55-0.01-1.1-0.03-1.65-0.05
		c-0.15-0.01-0.3-0.03-0.41-0.04c-0.17-0.16-0.15-0.34-0.15-0.51c0-0.17,0.09-0.28,0.25-0.33c0.05-0.01,0.11-0.03,0.16-0.05
		c0.6-0.19,0.64-0.22,0.64-0.88c0.01-1.33,0-2.65,0.01-3.98c0-0.74,0.05-1.48,0.05-2.22c0-0.53-0.03-1.06-0.05-1.59
		c-0.01-0.22-0.13-0.35-0.33-0.4c-0.05-0.01-0.11-0.02-0.17-0.04c-0.39-0.11-0.56-0.35-0.53-0.74c0.01-0.15,0.09-0.25,0.23-0.28
		c0.07-0.02,0.15-0.02,0.22-0.02c1.69-0.02,3.37-0.08,5.06,0.04c0.24,0.02,0.49-0.04,0.74-0.05c0.37-0.01,0.5,0.09,0.51,0.45
		c0.02,0.55,0.03,1.1,0.04,1.64c0,0.09-0.01,0.19-0.02,0.28c-0.02,0.17-0.12,0.29-0.3,0.29c-0.24,0-0.49-0.01-0.73-0.04
		c-0.17-0.02-0.24-0.17-0.26-0.33c-0.03-0.23-0.03-0.45-0.06-0.68c-0.04-0.27-0.11-0.32-0.36-0.36
		C59.97,121.17,58.44,121.22,58.03,121.3"/>
	<path d="M110.07,119.76c0.05,0.15,0.12,0.28,0.13,0.4c0.03,0.68,0.08,1.36-0.05,2.04c-0.07,0.37-0.16,0.49-0.38,0.47
		c-0.49-0.05-0.69-0.11-0.73-0.53c-0.03-0.28-0.08-0.56-0.13-0.84c-0.01-0.07-0.05-0.14-0.09-0.25c-0.59-0.07-1.19-0.06-1.77,0
		c-0.2,0.91-0.17,7.9,0.04,8.71c0.32,0.18,0.69,0.12,1.04,0.2c0.18,0.04,0.43-0.05,0.52,0.14c0.09,0.2,0.09,0.44,0.1,0.66
		c0.01,0.15-0.1,0.25-0.25,0.27c-0.17,0.02-0.34,0.01-0.51,0.01c-1.04-0.03-2.08-0.07-3.12-0.1c-0.28-0.01-0.57,0.02-0.85,0.02
		c-0.07,0-0.14-0.04-0.23-0.06c-0.02-0.08-0.06-0.15-0.06-0.22c-0.02-0.52,0.07-0.63,0.59-0.71c0.3-0.05,0.6-0.08,0.87-0.12
		c0.19-0.22,0.12-0.46,0.12-0.68c-0.01-2.48-0.02-4.97-0.04-7.45c0-0.11,0-0.23-0.01-0.34c-0.03-0.27-0.09-0.35-0.34-0.36
		c-0.4-0.02-0.8-0.03-1.19-0.01c-0.27,0.01-0.35,0.1-0.41,0.38c-0.06,0.28-0.08,0.57-0.15,0.84c-0.09,0.33-0.68,0.5-0.95,0.29
		c-0.06-0.04-0.11-0.11-0.13-0.18c-0.04-0.15-0.07-0.3-0.08-0.45c-0.02-0.53-0.03-1.06-0.03-1.59c0-0.42,0.12-0.55,0.53-0.58
		c1.17-0.09,2.35-0.14,3.52-0.1c1.25,0.04,2.5,0.07,3.75,0.11C109.86,119.73,109.94,119.74,110.07,119.76"/>
	<path d="M48.54,129.95c0.27,0.05,0.51,0.09,0.75,0.14c0.13,0.02,0.26,0.03,0.39,0.06c0.38,0.1,0.49,0.27,0.49,0.65
		c0,0.31-0.09,0.42-0.39,0.44c-0.32,0.01-0.65,0.02-0.97-0.02c-0.72-0.1-1.44-0.05-2.16-0.03c-0.36,0.01-0.72,0-1.08-0.02
		c-0.27-0.01-0.36-0.1-0.38-0.32c-0.04-0.36,0.06-0.59,0.31-0.65c0.2-0.05,0.41-0.06,0.62-0.09c0.51-0.08,0.66-0.23,0.67-0.74
		c0.03-1.97,0.06-3.94,0.08-5.92c0.01-0.59-0.02-1.17-0.03-1.76c-0.01-0.31-0.09-0.41-0.41-0.41c-0.34,0-0.68,0.02-1.02,0.05
		c-0.34,0.03-0.38,0.08-0.45,0.4c-0.05,0.26-0.08,0.52-0.14,0.78c-0.06,0.27-0.16,0.35-0.42,0.38c-0.07,0.01-0.15,0.01-0.23,0
		c-0.54-0.02-0.62-0.1-0.62-0.64c0.01-0.59,0.01-1.18,0.03-1.76c0.01-0.44,0.15-0.58,0.59-0.57c0.95,0.03,1.89,0.07,2.84,0.11
		c0.32,0.01,0.64,0.02,0.97,0.02c0.82-0.01,1.63-0.04,2.44-0.06c0.3-0.01,0.61,0,0.91,0.03c0.25,0.03,0.33,0.11,0.34,0.37
		c0.04,0.59,0.08,1.17,0.08,1.76c0,0.59-0.54,0.89-1.07,0.62c-0.07-0.04-0.14-0.13-0.16-0.21c-0.05-0.2-0.08-0.41-0.11-0.61
		c-0.03-0.15-0.05-0.3-0.09-0.44c-0.05-0.16-0.16-0.26-0.33-0.26c-0.34,0-0.68-0.01-1.02,0.02c-0.26,0.02-0.4,0.17-0.44,0.44
		c-0.02,0.13-0.02,0.27-0.02,0.4c0.02,0.74,0.05,1.48,0.05,2.22c0,0.76-0.01,1.51-0.02,2.27c-0.01,1.02-0.03,2.05-0.04,3.07
		C48.49,129.73,48.51,129.8,48.54,129.95"/>
	<path d="M160.56,129.58c0.02-0.08,0.06-0.16,0.06-0.23c0-2.58-0.01-5.16-0.02-7.73c0-0.28-0.06-0.56-0.09-0.88
		c-0.18-0.03-0.35-0.06-0.51-0.09c-0.33-0.07-0.38-0.12-0.42-0.44c-0.01-0.09-0.02-0.19-0.02-0.28c0-0.07,0-0.15,0-0.22
		c0.14-0.22,0.36-0.18,0.57-0.17c0.59,0.02,1.17,0.05,1.76,0.06c0.4,0,0.79-0.03,1.19-0.04c0.13,0,0.25,0.03,0.41,0.05v0.88
		c-0.08,0.03-0.17,0.06-0.26,0.08c-0.15,0.02-0.3,0.02-0.45,0.05c-0.49,0.09-0.53,0.15-0.53,0.63c0,0.38-0.01,0.76-0.01,1.14
		c0.01,0.78,0.01,1.55,0.03,2.33c0.02,0.87,0.07,1.74,0.08,2.61c0.01,0.61-0.02,1.21-0.03,1.82c0,0.09,0.01,0.19,0.02,0.33
		c0.18,0.01,0.34,0.04,0.5,0.04c0.59,0.01,1.18,0.02,1.76,0c0.62-0.02,0.63-0.04,0.7-0.64c0.02-0.21,0.05-0.42,0.11-0.61
		c0.1-0.33,0.23-0.41,0.58-0.44c0.76-0.05,0.91,0.08,0.93,0.83c0.01,0.47,0.02,0.95,0.01,1.42c-0.01,0.22-0.06,0.44-0.1,0.69
		c-0.29,0.02-0.53,0.06-0.77,0.06c-1.4-0.01-2.8-0.02-4.21-0.03c-0.49,0-0.99,0.02-1.48,0.03c-0.17,0-0.34,0-0.51-0.02
		c-0.09-0.01-0.19-0.06-0.24-0.13c-0.23-0.31-0.08-0.81,0.29-0.93C160.11,129.67,160.33,129.63,160.56,129.58"/>
	<path d="M116.65,129.85c0.2,0.04,0.39,0.11,0.6,0.12c0.36,0.03,0.47,0.12,0.49,0.55c0,0.09-0.02,0.18-0.04,0.32
		c-0.15,0.03-0.29,0.08-0.43,0.08c-1.08,0-2.16,0-3.24-0.01c-0.05,0-0.11-0.03-0.17-0.04c-0.18-0.23-0.11-0.5-0.15-0.74
		c0.35-0.26,0.77-0.19,1.14-0.4c0-0.73,0.01-1.47,0-2.21c-0.01-0.74-0.05-1.48-0.06-2.21c0-0.74,0.03-1.47,0.04-2.21
		c0.01-0.73,0-1.47,0-2.21c-0.35-0.23-0.81,0.01-1.16-0.31c-0.01-0.06-0.04-0.15-0.04-0.24c-0.01-0.47,0.08-0.58,0.54-0.59
		c0.97-0.02,1.93-0.03,2.9-0.05c0.06,0,0.11,0.01,0.17,0.01c0.37,0.04,0.51,0.17,0.54,0.53c0.01,0.15-0.02,0.3-0.04,0.45
		c-0.38,0.21-0.8,0.12-1.16,0.27c-0.02,0.06-0.06,0.12-0.06,0.17c0.02,2.8,0.05,5.61,0.08,8.41
		C116.58,129.62,116.62,129.71,116.65,129.85"/>
	<path d="M151.52,166.69v0.71c-0.18,0.06-0.33,0.11-0.47,0.16c-0.03,0.06-0.06,0.09-0.07,0.12c-0.04,0.74-0.13,1.47-0.11,2.21
		c0.04,1.27-0.07,2.54,0.01,3.8c0.02,0.38-0.07,0.46-0.45,0.48c-0.08,0-0.15-0.01-0.23,0c-0.42,0.04-0.65-0.16-0.81-0.54
		c-0.18-0.43-0.44-0.84-0.66-1.26c-0.19-0.37-0.38-0.74-0.56-1.12c-0.4-0.8-0.79-1.59-1.19-2.39c-0.03-0.06-0.08-0.11-0.19-0.26
		c-0.06,1.61,0,3.11,0.02,4.64c0.13,0.06,0.26,0.13,0.39,0.2c0.17,0.09,0.26,0.22,0.23,0.41c-0.03,0.18-0.17,0.25-0.32,0.27
		c-0.21,0.03-0.42,0.04-0.62,0.04c-0.36,0-0.72,0-1.08-0.01c-0.14,0-0.26-0.06-0.29-0.22c-0.02-0.16,0-0.33,0.18-0.36
		c0.51-0.09,0.53-0.44,0.53-0.85c-0.01-1.52-0.01-3.03-0.01-4.55c0-0.21-0.04-0.41-0.06-0.62c-0.2-0.08-0.38-0.14-0.59-0.22
		c-0.05-0.16-0.1-0.33-0.15-0.52c0.24-0.21,0.52-0.13,0.77-0.14c0.28-0.01,0.57,0.02,0.85,0.01c0.28-0.01,0.46,0.09,0.59,0.34
		c0.41,0.77,0.84,1.52,1.25,2.3c0.22,0.42,0.39,0.86,0.6,1.29c0.25,0.51,0.53,1,0.84,1.59c0.04-0.16,0.08-0.24,0.08-0.31
		c0.02-1.23,0.04-2.46,0.06-3.7c0-0.08,0-0.15-0.01-0.23c-0.04-0.36-0.08-0.41-0.48-0.52c-0.05-0.01-0.11-0.04-0.15-0.05
		c-0.1-0.29-0.1-0.29-0.01-0.61C150.1,166.56,150.79,166.8,151.52,166.69"/>
	<path d="M23.01,121.05c-0.01-0.14-0.03-0.24-0.03-0.33c0.02-0.49,0.09-0.55,0.57-0.55c0.97,0.02,1.93,0.04,2.9,0.06
		c0.04,0,0.08,0,0.11,0c0.4,0.02,0.51,0.12,0.53,0.5c0.02,0.27-0.05,0.36-0.34,0.42c-0.19,0.04-0.38,0.06-0.56,0.11
		c-0.22,0.05-0.29,0.13-0.29,0.35c-0.04,1.25-0.07,2.5-0.11,3.75c-0.02,0.59-0.06,1.17-0.05,1.76c0.01,0.87,0.04,1.74,0.08,2.61
		c0.02,0.4,0.08,0.44,0.48,0.48c0.02,0,0.04,0,0.06,0c0.62-0.02,0.65,0.22,0.66,0.8c0,0.13-0.08,0.21-0.21,0.23
		c-0.11,0.02-0.23,0.02-0.34,0.02c-0.99,0-1.97-0.01-2.95-0.02c-0.18,0-0.37-0.04-0.56-0.06c-0.03-0.11-0.07-0.18-0.07-0.25
		c-0.02-0.62,0.03-0.68,0.64-0.73c0.1-0.01,0.19-0.01,0.28-0.03c0.17-0.03,0.27-0.13,0.29-0.3c0.01-0.15,0.01-0.3,0.02-0.45
		c0.01-1.38,0-2.77,0.03-4.15c0.02-1.14,0.06-2.27,0.09-3.41c0-0.17,0-0.34,0-0.49C23.85,121.11,23.42,121.2,23.01,121.05"/>
	<path d="M39.94,169.2c0,1.4-0.06,2.79,0.02,4.21c0.13,0.04,0.23,0.08,0.33,0.12c0.14,0.05,0.22,0.14,0.22,0.3
		c0,0.19-0.12,0.27-0.28,0.31c-0.11,0.03-0.23,0.02-0.34,0.02c-0.38-0.01-0.75-0.01-1.13-0.02c-0.09,0-0.2,0.01-0.28-0.03
		c-0.09-0.04-0.22-0.13-0.23-0.21c-0.01-0.11,0.06-0.25,0.13-0.34c0.05-0.06,0.17-0.07,0.26-0.1c0.33-0.11,0.37-0.16,0.37-0.48
		c0-1.33,0.01-2.65,0-3.98c0-0.45-0.02-0.91-0.03-1.38c-0.21-0.09-0.4-0.17-0.61-0.25c-0.02-0.08-0.05-0.17-0.05-0.26
		c0.01-0.35,0.11-0.43,0.46-0.41c0.34,0.02,0.68,0.07,1.02,0.08c0.33,0.01,0.53,0.16,0.66,0.45c0.18,0.42,0.36,0.83,0.57,1.24
		c0.47,0.91,0.96,1.81,1.43,2.72c0.09,0.17,0.16,0.34,0.22,0.52c0.06,0.16,0.1,0.32,0.26,0.44c0.04-0.07,0.09-0.11,0.09-0.16
		c0.01-1.47,0.16-2.94,0.08-4.44c-0.15-0.03-0.25-0.05-0.36-0.08c-0.23-0.06-0.31-0.17-0.3-0.4c0.01-0.23,0.11-0.37,0.32-0.4
		c0.19-0.03,0.38-0.02,0.57-0.01c0.3,0.03,0.6,0.07,0.9,0.11c0.15,0.02,0.25,0.09,0.28,0.24c0.04,0.17,0.05,0.35-0.12,0.46
		c-0.11,0.07-0.24,0.11-0.35,0.16c-0.14,0.18-0.1,0.37-0.1,0.56c-0.01,1.63-0.01,3.26-0.02,4.89c0,0.3,0.02,0.61-0.1,0.91
		c-0.33,0.15-0.68,0.1-0.99,0c-0.16-0.05-0.3-0.23-0.39-0.39c-0.46-0.87-0.89-1.76-1.33-2.64c-0.1-0.2-0.2-0.41-0.32-0.6
		c-0.24-0.4-0.5-0.79-0.75-1.19C40.02,169.18,39.98,169.19,39.94,169.2"/>
	<path d="M102.04,173.55c-0.32-0.71-0.77-1.31-1.19-1.99c-0.11,0.13-0.2,0.2-0.25,0.28c-0.27,0.41-0.54,0.82-0.81,1.23
		c-0.07,0.11-0.1,0.23-0.17,0.38c0.11,0.06,0.19,0.1,0.27,0.14c0.25,0.13,0.29,0.2,0.25,0.44c-0.04,0.22-0.13,0.33-0.38,0.34
		c-0.51,0.03-1.02,0.03-1.53,0.03c-0.16,0-0.3-0.05-0.33-0.24c-0.04-0.22,0.02-0.42,0.18-0.5c0.08-0.04,0.19-0.04,0.27-0.08
		c0.08-0.04,0.17-0.09,0.22-0.17c0.55-0.95,1.09-1.91,1.64-2.89c-0.19-0.3-0.37-0.58-0.54-0.88c-0.22-0.38-0.43-0.76-0.63-1.14
		c-0.21-0.39-0.43-0.74-0.87-0.93c-0.25-0.1-0.29-0.25-0.25-0.5c0.03-0.15,0.11-0.24,0.25-0.27c0.09-0.02,0.19-0.04,0.28-0.04
		c0.47-0.01,0.95-0.02,1.42-0.02c0.17,0,0.34,0,0.5,0.18c-0.01,0.14-0.03,0.3-0.05,0.48c-0.19,0.07-0.36,0.13-0.54,0.2
		c0.14,0.45,0.68,1.24,1.1,1.63c0.4-0.2,0.9-0.86,1.19-1.59c-0.14-0.02-0.28-0.05-0.46-0.08c0.01-0.19,0.01-0.36,0.04-0.52
		c0.02-0.15,0.14-0.22,0.29-0.23c0.17-0.01,0.34-0.01,0.51-0.01c0.39,0.02,0.79,0.04,1.18,0.06c0.15,0.27,0.12,0.49-0.06,0.7
		c-0.77,0.89-1.33,1.92-1.98,2.9c0.04,0.1,0.07,0.2,0.12,0.28c0.48,0.81,0.97,1.62,1.45,2.44c0.1,0.17,0.2,0.32,0.4,0.38
		c0.15,0.04,0.2,0.16,0.23,0.3c0.09,0.31-0.03,0.48-0.35,0.48c-0.55-0.01-1.1-0.04-1.65-0.06c-0.16-0.01-0.3-0.06-0.33-0.24
		c-0.03-0.18,0.05-0.31,0.25-0.39C101.79,173.6,101.9,173.58,102.04,173.55"/>
	<path d="M57.4,167.75c-0.03,0.8-0.05,1.55-0.07,2.3c0,0.05,0.05,0.1,0.1,0.19c0.28-0.04,0.58-0.05,0.87-0.12
		c0.46-0.11,0.77-0.39,0.82-0.9c0.02-0.21,0.03-0.41,0.04-0.62c0.03-0.4-0.19-0.64-0.53-0.78C58.25,167.66,57.86,167.66,57.4,167.75
		 M59.31,170.85c0.16,0.42,0.32,0.81,0.47,1.19c0.12,0.3,0.25,0.59,0.34,0.9c0.09,0.32,0.22,0.54,0.6,0.57
		c0.23,0.02,0.29,0.14,0.29,0.35c0,0.21-0.09,0.32-0.31,0.32c-0.47,0.01-0.95-0.01-1.42-0.01c-0.16,0-0.3-0.04-0.36-0.22
		c-0.06-0.19-0.02-0.33,0.17-0.42c0.03-0.01,0.05-0.06,0.1-0.13c-0.17-0.64-0.36-1.31-0.69-1.93c-0.14-0.27-0.33-0.41-0.62-0.41
		c-0.2,0-0.4,0.01-0.63,0.02c-0.01,0.16-0.02,0.27-0.02,0.38c0.01,0.49,0.02,0.98,0.02,1.48c0,0.3,0.07,0.53,0.41,0.58
		c0.04,0.01,0.07,0.02,0.11,0.04c0.14,0.07,0.2,0.2,0.16,0.33c-0.03,0.09-0.12,0.19-0.21,0.23c-0.12,0.05-0.26,0.06-0.39,0.06
		c-0.43,0-0.87-0.02-1.31-0.04c-0.09,0-0.19-0.03-0.28-0.06c-0.12-0.04-0.19-0.14-0.17-0.26c0.01-0.08,0.07-0.21,0.13-0.22
		c0.5-0.13,0.54-0.51,0.54-0.93c0-1.44,0.01-2.88,0.01-4.32c0-0.24-0.02-0.49-0.02-0.71c-0.18-0.2-0.4-0.19-0.6-0.25
		c-0.16-0.05-0.24-0.18-0.22-0.35c0.02-0.16,0.12-0.25,0.27-0.24c0.98,0.04,1.97-0.12,2.95,0.03c1.09,0.17,1.72,0.95,1.72,2.05
		c0.01,0.68-0.27,1.21-0.71,1.68C59.56,170.64,59.45,170.72,59.31,170.85"/>
	<path d="M162.38,166.82c0.21-0.17,0.43-0.17,0.66-0.18c1.16,0,2.31-0.01,3.47-0.01c0.15,0,0.29,0.03,0.47,0.04
		c0.05,0.49,0.1,0.96,0.13,1.43c0.02,0.41-0.08,0.5-0.5,0.49c-0.07,0-0.15-0.02-0.26-0.04c-0.06-0.17-0.14-0.34-0.18-0.52
		c-0.07-0.28-0.25-0.42-0.52-0.45c-0.38-0.04-0.75-0.07-1.14,0.01c-0.15,0.27-0.08,0.56-0.08,0.83c0,0.34,0.03,0.68,0.05,1.02
		c0.02,0.35,0.1,0.43,0.45,0.45c0.17,0.01,0.34-0.03,0.51-0.04c0.24-0.01,0.49-0.03,0.73,0.01c0.3,0.04,0.38,0.15,0.4,0.45
		c0.01,0.13-0.02,0.26-0.03,0.42c-0.67,0.26-1.37-0.06-2.07,0.18c0.06,0.75-0.13,1.51,0,2.33c0.61,0.18,1.2,0,1.83-0.04
		c0.04-0.2,0.08-0.38,0.11-0.56c0.07-0.36,0.1-0.39,0.46-0.46c0.11-0.02,0.22-0.02,0.36-0.03c0.04,0.12,0.1,0.22,0.1,0.33
		c0.03,0.4,0.05,0.8,0.04,1.19c0,0.33-0.13,0.46-0.46,0.43c-0.91-0.08-1.82,0.08-2.73,0.09c-0.44,0.01-0.87,0.03-1.31,0.03
		c-0.25,0-0.34-0.07-0.36-0.27c-0.03-0.27,0.05-0.44,0.25-0.51c0.05-0.02,0.11-0.02,0.17-0.03c0.21-0.02,0.29-0.17,0.3-0.35
		c0.02-0.21,0.03-0.42,0.02-0.62c-0.05-1.44-0.1-2.88-0.16-4.32c0-0.11-0.01-0.23-0.03-0.34c-0.04-0.24-0.13-0.43-0.41-0.48
		C162.39,167.28,162.37,167.06,162.38,166.82"/>
	<path d="M116.28,167.6c-0.22,0.83-0.07,1.6-0.01,2.37c0.39,0.12,0.77,0.07,1.14,0.05c0.2-0.01,0.41-0.01,0.61,0.02
		c0.35,0.06,0.44,0.2,0.4,0.55c-0.02,0.17-0.11,0.28-0.28,0.3c-0.15,0.01-0.3,0.01-0.45,0.02c-0.19,0.01-0.38,0-0.57,0.02
		c-0.26,0.02-0.52,0.06-0.77,0.09c-0.14,0.44-0.18,1.27-0.11,2.27c0.29,0.08,1.42,0.11,1.68,0.06c0.15-0.03,0.24-0.11,0.28-0.25
		c0.05-0.18,0.09-0.37,0.15-0.55c0.07-0.21,0.17-0.27,0.38-0.26c0.2,0.02,0.32,0.11,0.37,0.3c0.02,0.07,0.03,0.15,0.03,0.23
		c0.01,0.34,0.02,0.68,0.02,1.02c0,0.25-0.11,0.4-0.36,0.43c-0.24,0.03-0.49,0.04-0.74,0.01c-0.79-0.1-1.59-0.07-2.38-0.02
		c-0.36,0.02-0.72,0-1.07,0c-0.22-0.47-0.2-0.6,0.22-0.81c0.31-0.15,0.4-0.36,0.38-0.68c-0.03-0.53-0.06-1.06-0.06-1.59
		c-0.01-0.87,0-1.74-0.01-2.61c0-0.26-0.04-0.53-0.07-0.8c-0.13-0.07-0.24-0.15-0.36-0.19c-0.28-0.09-0.32-0.28-0.27-0.54
		c0.03-0.17,0.13-0.27,0.31-0.28c0.26-0.01,0.53-0.02,0.8-0.02c1,0.01,2.01,0.01,3.01,0.02c0.35,0,0.43,0.08,0.44,0.43
		c0.01,0.34,0.01,0.68,0,1.02c-0.01,0.27-0.08,0.35-0.32,0.38c-0.32,0.05-0.46-0.02-0.54-0.26c-0.03-0.07-0.04-0.15-0.06-0.22
		c-0.13-0.46-0.21-0.52-0.67-0.52C117.05,167.6,116.69,167.6,116.28,167.6"/>
	<path d="M142.09,174.17c-0.21,0.03-0.34,0.07-0.46,0.06c-1.27-0.07-2.54-0.13-3.81-0.04c-0.42,0.03-0.47-0.17-0.41-0.48
		c0.02-0.09,0.11-0.19,0.2-0.24c0.11-0.06,0.25-0.08,0.39-0.12c0.12-0.37,0.14-0.74,0.15-1.12c0.01-0.36-0.03-0.72-0.03-1.08
		c0-0.87,0.02-1.74,0.02-2.61c0-0.17-0.02-0.34-0.04-0.51c-0.02-0.15-0.06-0.29-0.09-0.45c-0.21-0.02-0.39-0.04-0.63-0.07
		c-0.02-0.13-0.06-0.28-0.05-0.41c0.01-0.21,0.1-0.29,0.32-0.34c0.07-0.02,0.15-0.02,0.23-0.03c1.14-0.03,2.27-0.06,3.41-0.09
		c0.08,0,0.15,0,0.23,0.01c0.19,0.02,0.33,0.12,0.34,0.32c0.03,0.38,0.05,0.76,0.05,1.13c0,0.25-0.15,0.35-0.41,0.37
		c-0.29,0.02-0.39-0.05-0.45-0.31c-0.04-0.16-0.07-0.33-0.1-0.48c-0.42-0.14-1.14-0.13-1.67,0.02c-0.03,0.72-0.03,1.45,0.03,2.19
		c0.66,0.17,1.31-0.09,1.95,0.12c0.03,0.11,0.06,0.22,0.07,0.33c0.01,0.11,0.01,0.22,0.02,0.35c-0.32,0.24-0.68,0.06-1,0.12
		c-0.31,0.06-0.64,0.05-0.94,0.07c-0.15,0.47-0.18,1.27-0.09,2.38c0.11,0.02,0.24,0.07,0.36,0.07c0.28,0.01,0.57,0.01,0.85,0
		c0.46-0.01,0.51-0.05,0.66-0.46c0.04-0.11,0.06-0.23,0.12-0.32c0.06-0.08,0.16-0.17,0.26-0.2c0.33-0.1,0.51,0.03,0.52,0.38
		C142.1,173.21,142.09,173.66,142.09,174.17"/>
	<path d="M94.04,167.85c-0.7-0.18-1.27-0.19-1.73-0.03c-0.03,0.72-0.12,1.45,0,2.22c0.21,0.01,0.38,0.02,0.54,0.03
		c0.38,0.01,0.76,0.01,1.14,0.03c0.29,0.02,0.37,0.11,0.37,0.39c0,0.13-0.03,0.26-0.05,0.41c-0.34,0.06-0.66,0-0.97,0.01
		c-0.3,0.01-0.6,0.01-0.94,0.02c-0.15,0.81,0.06,1.57,0.03,2.36c0.61,0.11,1.17,0.1,1.78,0.05c0.05-0.2,0.1-0.4,0.15-0.6
		c0.04-0.17,0.14-0.27,0.32-0.26c0.18,0,0.39,0.03,0.41,0.23c0.05,0.43,0.08,0.86,0.08,1.3c0,0.19-0.18,0.27-0.37,0.27
		c-0.49,0-0.99,0.01-1.48,0.01c-0.76,0-1.52,0.01-2.28,0.01c-0.52,0-0.55-0.04-0.51-0.63c0.07-0.02,0.16-0.05,0.25-0.07
		c0.35-0.09,0.43-0.17,0.42-0.5c-0.02-1.14-0.06-2.27-0.08-3.41c-0.01-0.55-0.02-1.1-0.03-1.65c0-0.11-0.03-0.22-0.05-0.38
		c-0.14-0.04-0.28-0.08-0.42-0.13c-0.18-0.07-0.26-0.2-0.24-0.4c0.01-0.16,0.11-0.26,0.31-0.27c0.45-0.03,0.91-0.06,1.36-0.05
		c0.74,0.02,1.48,0.06,2.22,0.1c0.06,0,0.11,0,0.17,0.01c0.33,0.04,0.45,0.13,0.48,0.45c0.03,0.34,0.03,0.68,0.04,1.02
		c0,0.18-0.11,0.27-0.28,0.3c-0.21,0.04-0.38-0.01-0.44-0.17C94.15,168.31,94.11,168.09,94.04,167.85"/>
	<path d="M64.27,167.64c-0.12-0.06-0.21-0.11-0.29-0.13c-0.17-0.06-0.24-0.17-0.23-0.35c0.01-0.19,0.09-0.29,0.32-0.34
		c0.15-0.03,0.3-0.05,0.45-0.05c0.99-0.01,1.97-0.02,2.96-0.02c0.11,0,0.23,0,0.34,0.01c0.28,0.04,0.35,0.13,0.34,0.42
		c-0.01,0.34-0.02,0.68-0.04,1.02c-0.02,0.37-0.07,0.41-0.45,0.41c-0.05,0-0.11-0.03-0.19-0.05c-0.05-0.17-0.1-0.35-0.15-0.53
		c-0.06-0.22-0.2-0.36-0.44-0.38c-0.36-0.02-0.72-0.05-1.08-0.05c-0.26,0-0.39,0.12-0.41,0.37c-0.02,0.24-0.02,0.49-0.01,0.74
		c0.02,0.41,0.06,0.82,0.09,1.26c0.17,0.02,0.3,0.05,0.43,0.04c0.42-0.01,0.83-0.04,1.25-0.05c0.39,0,0.47,0.08,0.51,0.45
		c0.01,0.13,0,0.26,0,0.41c-0.71,0.16-1.4,0.11-2.07,0.09c-0.15,0.49-0.13,1.84,0.02,2.41c0.57,0.17,1.16,0.16,1.74-0.02
		c0.19-0.19,0.13-0.44,0.19-0.65c0.07-0.26,0.16-0.34,0.39-0.32c0.22,0.01,0.37,0.12,0.39,0.34c0.04,0.38,0.07,0.75,0.09,1.13
		c0.01,0.27-0.13,0.42-0.41,0.46c-0.19,0.03-0.38,0.02-0.57,0.01c-0.55-0.02-1.1-0.06-1.65-0.06c-0.38-0.01-0.76,0.03-1.13,0.05
		c-0.23,0.01-0.46,0.02-0.68,0.01c-0.16-0.01-0.29-0.09-0.33-0.26c-0.03-0.16-0.01-0.35,0.15-0.39c0.59-0.18,0.55-0.62,0.54-1.09
		c-0.02-1.18,0-2.35-0.01-3.53C64.31,168.54,64.28,168.09,64.27,167.64"/>
	<path d="M158.6,173.18c0.01-0.29,0-0.53,0.04-0.77c0.04-0.25,0.18-0.35,0.43-0.37c0.2-0.01,0.34,0.07,0.36,0.27
		c0.05,0.43,0.09,0.87,0.1,1.3c0,0.09-0.09,0.22-0.17,0.26c-0.2,0.1-0.42,0.17-0.64,0.22c-0.69,0.16-1.38,0.23-2.08,0.07
		c-0.88-0.2-1.54-0.72-1.98-1.5c-0.15-0.27-0.25-0.61-0.26-0.92c-0.04-0.76-0.06-1.52-0.01-2.27c0.1-1.34,0.9-2.53,2.35-2.87
		c0.85-0.2,1.7-0.18,2.47,0.31c0.12,0.08,0.27,0.2,0.29,0.32c0.07,0.41,0.12,0.82,0.13,1.24c0,0.32-0.12,0.4-0.43,0.39
		c-0.4-0.01-0.49-0.08-0.58-0.47c-0.02-0.09-0.03-0.19-0.05-0.28c-0.04-0.2-0.16-0.32-0.34-0.43c-0.62-0.38-2-0.12-2.35,0.74
		c-0.22,0.54-0.28,1.09-0.35,1.65c-0.06,0.48-0.02,0.98,0.02,1.47c0.05,0.61,0.35,1.12,0.84,1.49c0.44,0.34,0.94,0.47,1.5,0.33
		C158.13,173.31,158.36,173.25,158.6,173.18"/>
	<path d="M31.49,167.53c-0.14-0.05-0.25-0.08-0.35-0.13c-0.16-0.09-0.24-0.27-0.2-0.43c0.04-0.18,0.18-0.23,0.34-0.24
		c0.04,0,0.08,0,0.11,0c1.15,0.02,2.31,0.05,3.47,0.08c0.05,0,0.11,0.03,0.19,0.05c0.13,0.43,0.11,0.89,0.11,1.34
		c0,0.18-0.14,0.26-0.31,0.27c-0.22,0.02-0.38-0.04-0.43-0.2c-0.07-0.21-0.12-0.43-0.18-0.65c-0.48-0.09-0.94-0.04-1.39-0.04
		c-0.22,0-0.3,0.1-0.3,0.33c0,0.4,0.01,0.79,0.02,1.19c0,0.28,0,0.56,0,0.88c0.16,0.02,0.29,0.04,0.41,0.04
		c0.3-0.01,0.6-0.05,0.91-0.05c0.22,0,0.44,0.06,0.64,0.09c0.04,0.1,0.07,0.16,0.08,0.21c0.04,0.48-0.04,0.57-0.52,0.59
		c-0.36,0.01-0.72-0.02-1.08,0.01c-0.36,0.02-0.43,0.09-0.44,0.45c-0.02,0.49-0.03,0.98-0.01,1.48c0.01,0.4,0.09,0.47,0.46,0.49
		c0.34,0.01,0.68,0.03,1.02,0.01c0.32-0.02,0.37-0.08,0.46-0.4c0.04-0.13,0.06-0.26,0.1-0.38c0.05-0.16,0.17-0.24,0.34-0.26
		c0.22-0.02,0.35,0.05,0.36,0.26c0.02,0.44,0.02,0.87,0.01,1.31c-0.01,0.22-0.1,0.28-0.34,0.29c-0.55,0.01-1.1-0.01-1.65,0
		c-0.66,0.01-1.32,0.03-1.99,0.05c-0.2,0.01-0.38-0.01-0.52-0.17c-0.16-0.16-0.12-0.42,0.08-0.53c0.03-0.02,0.07-0.04,0.1-0.04
		c0.46-0.04,0.53-0.35,0.53-0.72c0-1.04,0.02-2.08,0.02-3.13c0-0.57,0-1.13-0.01-1.7C31.53,167.76,31.51,167.67,31.49,167.53"/>
	<path d="M110.46,173.21c0.04-0.24,0.06-0.48,0.12-0.72c0.05-0.23,0.18-0.33,0.4-0.34c0.23-0.02,0.38,0.09,0.38,0.31
		c0.01,0.38,0,0.76-0.02,1.14c-0.01,0.23-0.15,0.39-0.35,0.48c-0.22,0.1-0.45,0.2-0.69,0.25c-0.98,0.19-1.92,0.08-2.8-0.43
		c-0.65-0.38-1.01-0.95-1.2-1.66c-0.19-0.71-0.18-1.43-0.05-2.14c0.05-0.28,0.12-0.56,0.16-0.84c0.14-0.9,0.64-1.57,1.33-2.11
		c0.5-0.39,1.09-0.52,1.72-0.44c0.49,0.06,0.97,0.18,1.45,0.27c0.26,0.05,0.41,0.21,0.44,0.46c0.05,0.38,0.09,0.75,0.1,1.13
		c0.01,0.37-0.18,0.52-0.54,0.45c-0.13-0.02-0.25-0.08-0.41-0.14c-0.02-0.17-0.03-0.33-0.05-0.5c-0.06-0.5-0.32-0.74-0.82-0.78
		c-0.77-0.05-1.38,0.23-1.76,0.91c-0.27,0.47-0.43,0.97-0.37,1.52c0.01,0.07,0.03,0.16,0.01,0.22c-0.24,0.62-0.02,1.24,0.04,1.85
		c0.02,0.27,0.19,0.53,0.33,0.78c0.24,0.41,0.61,0.6,1.09,0.6C109.47,173.48,109.98,173.5,110.46,173.21"/>
	<path d="M25.82,173.33c0.2-0.03,0.41-0.04,0.61-0.1c0.31-0.1,0.52-0.3,0.55-0.65c0.01-0.08,0.01-0.15,0.02-0.23
		c0.05-0.34,0.19-0.46,0.53-0.44c0.22,0.01,0.37,0.13,0.36,0.35c-0.03,0.41-0.07,0.83-0.14,1.24c-0.02,0.12-0.18,0.26-0.3,0.31
		c-0.95,0.34-1.9,0.66-2.92,0.26c-0.56-0.22-0.97-0.56-1.23-1.11c-0.43-0.94-0.72-1.92-0.63-2.97c0.07-0.8,0.25-1.57,0.74-2.24
		c0.38-0.53,0.87-0.87,1.53-0.99c0.74-0.14,1.47-0.16,2.18,0.11c0.16,0.06,0.32,0.12,0.46,0.22c0.08,0.06,0.16,0.17,0.17,0.27
		c0.03,0.38,0.04,0.76,0.04,1.13c0,0.23-0.1,0.33-0.29,0.35c-0.23,0.03-0.4-0.04-0.47-0.22c-0.07-0.18-0.11-0.36-0.15-0.55
		c-0.07-0.29-0.27-0.47-0.55-0.49c-0.3-0.02-0.6,0.03-0.9,0.05c-0.05,0-0.1,0.04-0.16,0.06c-1.13,0.37-1.44,1.27-1.44,2.32
		c0,0.64,0.02,1.28,0.21,1.91c0.06,0.18,0.12,0.36,0.19,0.53c0.22,0.5,0.61,0.75,1.14,0.82c0.15,0.02,0.3,0.02,0.45,0.03
		C25.82,173.31,25.82,173.32,25.82,173.33"/>
	<path d="M49.31,167.62c-0.07-0.01-0.16-0.04-0.25-0.05c-0.66-0.01-0.78-0.02-0.91,0.64c-0.02,0.11-0.06,0.22-0.11,0.32
		c-0.09,0.14-0.23,0.19-0.39,0.17c-0.18-0.02-0.26-0.15-0.28-0.31c-0.01-0.13-0.01-0.26,0-0.4c0.01-0.3,0.03-0.6,0.03-0.9
		c0.01-0.22,0.07-0.32,0.3-0.33c0.42-0.02,0.83-0.02,1.25-0.02c0.99,0,1.97,0.01,2.96,0.01c0.07,0,0.15-0.01,0.23-0.01
		c0.48,0.01,0.56,0.08,0.57,0.56c0,0.34-0.01,0.68-0.04,1.02c-0.02,0.23-0.12,0.32-0.31,0.35s-0.3-0.03-0.38-0.26
		c-0.08-0.21-0.13-0.43-0.2-0.69c-0.18-0.02-0.37-0.04-0.55-0.06c-0.53-0.06-0.57-0.03-0.58,0.47c-0.05,1.49-0.09,2.99-0.14,4.48
		c0,0.06-0.01,0.11-0.01,0.17c0.01,0.55,0.08,0.63,0.65,0.71c0.07,0.01,0.15,0.02,0.22,0.03c0.15,0.03,0.22,0.13,0.22,0.29
		c0.01,0.16-0.07,0.27-0.22,0.28c-0.3,0.03-0.61,0.07-0.9,0.04c-0.46-0.05-0.91-0.03-1.36,0.03c-0.11,0.01-0.23,0.02-0.34,0.01
		c-0.23-0.02-0.33-0.11-0.34-0.3c-0.01-0.23,0.11-0.36,0.34-0.36c0.23,0.01,0.5,0.09,0.63-0.14c0.1-0.18,0.11-0.43,0.12-0.65
		c0.01-0.26-0.01-0.53-0.04-0.79c-0.13-1.23-0.08-2.46-0.06-3.69C49.42,168.05,49.47,167.83,49.31,167.62"/>
	<path d="M124.06,167.61c-0.06,1.92-0.14,3.78-0.04,5.66c0.29,0.17,0.6,0.07,0.89,0.08c0.3,0.01,0.6-0.01,0.94-0.02
		c0.06-0.24,0.11-0.45,0.17-0.67c0.07-0.29,0.33-0.43,0.61-0.32c0.08,0.03,0.15,0.12,0.18,0.2c0.1,0.29,0.09,1.16-0.01,1.6
		c-0.08,0.01-0.17,0.05-0.25,0.05c-1.27,0.03-2.54,0.05-3.8,0.08c-0.04,0-0.08,0-0.11,0c-0.3-0.01-0.39-0.06-0.43-0.26
		c-0.06-0.29,0.03-0.44,0.34-0.55c0.07-0.02,0.14-0.04,0.25-0.07c0.11-0.96,0.13-1.91,0.08-2.88c-0.05-0.94-0.01-1.89-0.01-2.85
		c-0.17-0.05-0.31-0.08-0.45-0.13c-0.13-0.04-0.25-0.11-0.25-0.27c0-0.17,0.03-0.35,0.21-0.43c0.12-0.05,0.26-0.07,0.38-0.08
		c0.41-0.04,0.83-0.08,1.24-0.11c0.13-0.01,0.27,0,0.4,0.02c0.35,0.05,0.52,0.31,0.42,0.65c-0.02,0.08-0.11,0.17-0.18,0.19
		C124.46,167.56,124.29,167.58,124.06,167.61"/>
	<path d="M131.68,173.31c0.64,0.07,1.24,0.06,1.81,0.06c0.22-0.22,0.13-0.47,0.19-0.68c0.07-0.26,0.14-0.34,0.36-0.37
		c0.29-0.03,0.43,0.07,0.43,0.37c0.01,0.4,0,0.8-0.01,1.19c-0.01,0.26-0.1,0.35-0.34,0.35c-0.89,0.02-1.78,0.04-2.67,0.05
		c-0.17,0-0.34-0.01-0.51-0.02c-0.34-0.02-0.68-0.04-1.03-0.07c-0.21-0.43-0.16-0.52,0.48-0.67c0.16-0.14,0.15-0.33,0.13-0.52
		c-0.13-1.19-0.04-2.39-0.05-3.58c0-0.44,0-0.87-0.01-1.31c0-0.17-0.04-0.33-0.06-0.51c-0.18-0.06-0.34-0.11-0.51-0.16
		c-0.03-0.1-0.07-0.19-0.07-0.28c-0.01-0.22,0.06-0.32,0.26-0.38c0.05-0.02,0.11-0.03,0.17-0.03c0.68-0.02,1.36-0.04,2.02-0.06
		c0.24,0.56,0.2,0.63-0.5,0.79c-0.03,0.06-0.08,0.15-0.09,0.23c-0.04,0.54-0.13,1.08-0.1,1.64c0.04,0.79,0.01,1.59,0,2.39
		C131.57,172.26,131.55,172.75,131.68,173.31"/>
	<path d="M78.07,167.92c-0.29-0.18-0.52-0.33-0.77-0.47c-0.46-0.26-0.85-0.21-1.25,0.13c-0.21,0.18-0.35,0.4-0.42,0.66
		c-0.05,0.18-0.1,0.37-0.12,0.55c-0.07,0.69,0.01,1.36,0.29,2c0.14,0.32,0.36,0.53,0.72,0.56c0.23,0.02,0.45,0.06,0.68,0.04
		c0.45-0.03,0.66-0.24,0.8-0.67C78.31,169.8,78.23,168.87,78.07,167.92 M79.09,169.37c-0.08,0.46-0.13,0.94-0.25,1.39
		c-0.13,0.51-0.38,0.94-0.9,1.17c-0.86,0.39-1.97,0.19-2.63-0.48c-0.24-0.24-0.37-0.54-0.42-0.86c-0.07-0.47-0.08-0.94-0.15-1.41
		c-0.04-0.33,0.01-0.64,0.08-0.96c0.2-1,0.83-1.52,1.82-1.68c0.83-0.13,1.47,0.17,1.93,0.8c0.24,0.32,0.33,0.76,0.43,1.16
		C79.08,168.79,79.07,169.08,79.09,169.37"/>
	<path d="M82.47,169.75v1.61c0.21,0.2,0.45,0.16,0.67,0.2c0.14,0.03,0.29,0.07,0.42,0.15c0.06,0.04,0.1,0.17,0.09,0.25
		c-0.02,0.07-0.12,0.16-0.2,0.16c-0.24,0.02-0.49,0.02-0.74,0.02c-0.3,0-0.61,0.01-0.91,0c-0.11,0-0.23-0.01-0.33-0.05
		c-0.2-0.07-0.24-0.31-0.07-0.45c0.04-0.03,0.1-0.05,0.15-0.08c0.05-0.03,0.09-0.07,0.13-0.11c0.01-0.07,0.03-0.15,0.03-0.22
		c0.01-1.15,0.02-2.31,0.03-3.46c0-0.3-0.01-0.56-0.38-0.67c-0.19-0.06-0.23-0.23-0.11-0.45c0.99-0.13,2.01,0.06,3.04-0.06
		c0.12,0.35,0.17,0.66,0.16,0.98c-0.01,0.16-0.05,0.31-0.24,0.33c-0.18,0.02-0.28-0.08-0.34-0.24c-0.05-0.12-0.11-0.24-0.17-0.38
		c-0.43-0.05-0.86-0.07-1.33,0.03c0.01,0.32,0.03,0.61,0.04,0.91c0.01,0.28,0,0.56,0,0.87c0.37-0.02,0.74-0.04,1.11-0.05
		c0.22,0,0.32,0.11,0.31,0.31c-0.01,0.15-0.08,0.26-0.23,0.27c-0.15,0.01-0.3,0-0.45,0.02C82.94,169.68,82.74,169.71,82.47,169.75"
		/>
	<path d="M84.01,174.15c-0.07,0.29-0.27,0.32-0.49,0.31c-0.43-0.01-0.87-0.04-1.3-0.04c-0.49,0-0.98,0.04-1.47,0.05
		c-0.3,0-0.6-0.04-0.9-0.04c-0.93,0.01-1.85,0.04-2.78,0.06c-0.45,0.01-0.91,0.04-1.36,0.04c-0.21,0-0.41-0.03-0.61-0.08
		c-0.07-0.02-0.15-0.14-0.15-0.21c0-0.07,0.08-0.19,0.15-0.21c0.14-0.04,0.3-0.05,0.45-0.05c1.3,0.03,2.61,0.06,3.91-0.01
		c1.04-0.06,2.08-0.03,3.12-0.03c0.28,0,0.57-0.02,0.85-0.02C83.63,173.92,83.84,173.93,84.01,174.15"/>
	<path class="st0" d="M148.91,33.49c-6.76,1.99-10.78,6.61-11.29,11.95c-1.83-1.87-3.78-3.63-5.83-5.24
		c0.04-4.22,0.8-9.12,4.41-13.76c3.58-4.6,24.29-17.34,19.05-6.14c9.31-1.02,21.43,0.09,26.45,8.74c0.59,1.01-2.14,0.95-3.21,1.43
		c11.56,4.32,11.29,22.54,10.5,30.94c-1.26,13.38-2.94,13.08-8.03,8.95c0.63,1.81-1.64,14.82-5.75,7.89
		c-1.13,2.36-5.85,8.57-5.55,1.81c-7.37,10.09-7.49,2.76-10.68,2.96c-1.38,1.82-3.15,2.99-4.89,2.99c-0.29,0,0.01-9.41-0.26-9.47
		c-1.36-0.31-1.98-9-2.22-10.17c-0.77-3.82-2.06-7.5-3.88-10.94c-2.04-3.86-6.86-6.41-4.04-11.03c2.95-4.83,8.54-6.93,13.99-7.24
		c7.52-0.43,15.46,2.28,21.38,6.77c-0.06-0.09-0.11-0.18-0.17-0.26C172.98,34.9,159.56,30.36,148.91,33.49 M44.18,33.49
		c6.47,1.91,10.42,6.21,11.2,11.25c1.4-1.38,2.85-2.7,4.38-3.93c0.01-4.21-0.65-9.16-4.29-13.85c-3.48-4.48-23.64-16.88-18.55-5.97
		C27.86,20,16.06,21.08,11.18,29.5c-0.06,0.11-0.09,0.21-0.08,0.29c0.18,1.58-2.58,3.73-3.54,5C-0.61,45.69,0.94,52.62,1.57,59.3
		c1.23,13.02,4.49,16.54,9.45,12.52c-0.61,1.77,1.6,14.42,5.6,7.67c1.1,2.29,5.69,8.34,5.4,1.76c7.18,9.82,7.29,2.69,10.39,2.88
		c1.47,0.09,3.21,4.52,5.62,2.68c1.14-0.87,1.29-16.34,1.67-17.81c0.64-2.41,0.91-5.2,1.84-7.58c1.15-2.93,2.5-5.91,4.36-8.46
		c1.75-2.4,5.01-3.29,4.59-6.09c-0.99-6.51-9.58-9.42-15.07-9.74c-7.52-0.43-15.46,2.28-21.38,6.77c0,0,0,0,0,0
		C19.84,34.99,33.43,30.33,44.18,33.49"/>
	<path class="st0" d="M93.2,82.42c-0.38,0.14-0.7,0.26-0.93,0.33c-4.04,1.24-5.96,3.61-6.39,7.83c-0.12,1.2,0.13,2.43,0.05,3.63
		c-0.1,1.54-0.9,2.63-1.49,0.47c-0.56-2.05-0.4-4.51-0.3-6.61c0.05-1.02,0.19-2.03,0.56-3.08c0.04-0.13,0.11-0.27,0.16-0.4
		c0.06-0.14,0.13-0.28,0.21-0.41c0.09-0.15,0.16-0.28,0.29-0.44c0.12-0.16,0.25-0.28,0.38-0.41c0.26-0.21,0.51-0.39,0.75-0.53
		c0.12-0.07,0.24-0.14,0.37-0.2c0.12-0.06,0.24-0.12,0.37-0.17c0.49-0.22,0.97-0.38,1.46-0.52c0.49-0.14,0.98-0.24,1.48-0.32
		c0.5-0.08,1-0.13,1.5-0.14c0.49-0.01,0.96,0,1.44,0.01c0.96,0.03,1.92,0.07,2.89,0.2C95.47,81.6,94.18,82.06,93.2,82.42
		 M105.12,80.55l-5.45-0.89c-2.35-0.38-6.19-0.44-8.55-0.13l-5.04,0.67c-2.36,0.31-4.19,2.51-4.07,4.88l0.94,19.26
		c0.12,2.37,1.51,5.48,3.1,6.9c1.59,1.42,4.49,2.85,6.46,3.18c1.96,0.33,5.23,0.22,7.25-0.24c2.03-0.46,4.72-1.88,5.98-3.16
		s2.39-4.27,2.51-6.65l0.93-18.81C109.28,83.19,107.46,80.93,105.12,80.55"/>
	<path class="st0" d="M71.96,75.89c-1.09,1.53-3.17,4.61-4.31,3.08c-1.07-1.44,1.2-4.87,2.11-6.42c-0.92-1.09-2.39-1.96-3.83-1.91
		c-1.7,0.07-2.91,1.7-3.67,3.06c-1.69,3.02-1.49,6.68,0.51,9.5c1.88,2.65,5.74,4.83,8.65,2.25c1.37-1.21,1.26-3.53,1.21-5.2
		C72.58,78.83,72.62,77.18,71.96,75.89"/>
	<path class="st0" d="M124.36,77.72c-0.27-0.36-0.33-0.85-0.25-1.41c0.08-0.55,1.18-3.27,1.58-3.9c0.28-0.45,0.51-0.84,0.51-1.12
		c-2.68-3.34-7.36,0.67-8.13,4.08c-0.24,0.65-0.4,1.31-0.49,1.97c-0.27,1.99-0.49,4.17,0.2,6.06c0.19,0.58,0.48,1.11,0.93,1.51
		c2.91,2.57,6.77,0.4,8.65-2.25c1.65-2.33,2.07-5.24,1.21-7.89C127.46,76.33,125.46,79.2,124.36,77.72"/>
</g>
</svg>
