<svg xmlns="http://www.w3.org/2000/svg" width="67.31" height="55.27" viewBox="0 0 67.31 55.27">
  <defs>
    <style>
      .a {
        isolation: isolate;
      }

      .b {
        mix-blend-mode: multiply;
      }

      .c {
        fill: #333;
      }
    </style>
  </defs>
  <title>Asset 2</title>
  <g class="a">
    <g class="b">
      <g>
        <path class="c" d="M29.42,4.48a4.23,4.23,0,1,1,8.44,0,4.23,4.23,0,1,1-8.44,0"/>
        <path class="c" d="M66.49,22.21a4.16,4.16,0,0,1-4.26,4.32,4.35,4.35,0,1,1,4.26-4.32"/>
        <path class="c" d="M47.63,11.48a4.14,4.14,0,0,1,4.14-4.3,4.23,4.23,0,0,1,4.06,4.31,4.28,4.28,0,0,1-4.15,4.37,4.21,4.21,0,0,1-4-4.38"/>
        <path class="c" d="M.79,22.19a4.23,4.23,0,0,1,4-4.34,4.35,4.35,0,0,1,.1,8.68A4.16,4.16,0,0,1,.79,22.19"/>
        <path class="c" d="M19.65,11.52a4.22,4.22,0,0,1-4.09,4.34,4.26,4.26,0,0,1-4.1-4.41,4.25,4.25,0,0,1,4.26-4.29,4.24,4.24,0,0,1,3.93,4.36"/>
        <path class="c" d="M65.91,51.51A4.1,4.1,0,0,1,62,54.21h-.47c-2.55,0-5.09,0-7.63,0-2.7,0-5.4,0-8.1,0-.56,0-10.09,0-12.14,0s-11.22,0-12.14,0H5.42a4.13,4.13,0,0,1-4-2.72h0a4.52,4.52,0,0,1,.91-5.13c3-3.28,6.11-6.52,9.17-9.79,2.41-2.58,4.84-5.15,7.22-7.76a8.11,8.11,0,0,1,4.85-3,8.42,8.42,0,0,1,1.12-.07H42.5a7.05,7.05,0,0,1,5.33,2.4c3,3.22,6.05,6.41,9.07,9.61C59,40,61,42.15,63.07,44.34c.68.72,1.4,1.41,2.05,2.17A5.26,5.26,0,0,1,66,48a4.55,4.55,0,0,1-.1,3.56M26.75,21.17V18.35c0-.48.16-.85.66-.84s.6.4.6.83c0,1.93,0,3.85,0,5.77,0,.49-.2.62-.61.62s-.68-.08-.67-.61c0-1,0-2,0-2.95m12.41.06V18.41c0-.46.1-.87.61-.9s.63.42.64.85c0,1.94,0,3.88,0,5.82,0,.53-.28.55-.65.55s-.64,0-.63-.56c0-1,0-2,0-2.94M66.87,47.46a6.22,6.22,0,0,1-.5-2.54c0-4.3,0-8.61,0-12.92a4.13,4.13,0,0,0-4.22-4,4.26,4.26,0,0,0-3.84,4.49c0,1.4,0,2.8,0,4.2,0,.22,0,.44,0,.81a4,4,0,0,1-.59-.43c-.5-.5-1-1.05-1.47-1.54a1.5,1.5,0,0,1-.48-1.21q0-6.33,0-12.67a4,4,0,1,0-8.08,0c0,1.32,0,2.64,0,4a2.88,2.88,0,0,1-.15.63c-.18-.07-.36-.12-.53-.2-.72-.34-1.42-.73-2.16-1a.66.66,0,0,1-.56-.76q0-3.8,0-7.59a8,8,0,0,0-.18-1.55,5.55,5.55,0,0,0-5.3-4.42H28.69a5.7,5.7,0,0,0-5.64,6q0,3.77,0,7.53c0,.21-.09.55-.22.62-1,.48-2.09.91-3.16,1.36a.43.43,0,0,1,0-.15c0-1.52-.07-3-.1-4.57a4.14,4.14,0,0,0-3.88-4.15,4.2,4.2,0,0,0-4.19,4.36c0,4.1,0,8.2,0,12.29a2.25,2.25,0,0,1-.68,1.82c-.59.57-1.14,1.17-1.71,1.76l-.18-.1c0-.22,0-.44,0-.67,0-1.54,0-3.09,0-4.64a4.06,4.06,0,0,0-5.6-3.78,4.11,4.11,0,0,0-2.48,4c0,4.5,0,9,0,13.49A6.76,6.76,0,0,1,.5,47.22,11.92,11.92,0,0,0,0,49.45a5.41,5.41,0,0,0,5.39,5.81H46c5.38,0,10.77,0,16.15,0,3.69,0,6.27-4.22,4.75-7.8"/>
      </g>
    </g>
  </g>
</svg>
