<svg xmlns="http://www.w3.org/2000/svg" width="56.13" height="68.38" viewBox="0 0 56.13 68.38">
  <defs>
    <style>
      .a {
        isolation: isolate;
      }

      .b {
        mix-blend-mode: multiply;
      }

      .c {
        fill: #333;
      }
    </style>
  </defs>
  <title>Asset 1</title>
  <g class="a">
    <g class="b">
      <g>
        <path class="c" d="M12.51,52.79a3,3,0,1,1-3.06,3,3,3,0,0,1,3.06-3m42.26,8.76H17.83a7.69,7.69,0,0,0,2.61-5.76,7.43,7.43,0,0,0-.51-2.72l30.66-16a1.32,1.32,0,0,0,.57-1.8l-.42-.77A1.38,1.38,0,0,0,48.9,34l-31,16.12a8,8,0,0,0-9.1-1.2A19.67,19.67,0,0,1,6.08,38.85,20.15,20.15,0,0,1,15.8,21.72L20.28,30l13.43-7L24,5,10.56,12,13,16.45A26.08,26.08,0,0,0,0,38.85a25.57,25.57,0,0,0,4.83,15,7.66,7.66,0,0,0,2.36,7.7H2.72a1.35,1.35,0,0,0-1.36,1.33V67a1.35,1.35,0,0,0,1.36,1.34H54.77A1.35,1.35,0,0,0,56.13,67V62.88a1.35,1.35,0,0,0-1.36-1.33"/>
        <path class="c" d="M23.57,36.09a1.68,1.68,0,0,0,2.27.33L36,31.13c.9-.47,1.35-1.38,1-2l-2.33-4.29-13.43,7Z"/>
        <path class="c" d="M11.49,8.87,20.82,4,19,.73A1.33,1.33,0,0,0,17.27.14L10.2,3.82a1.28,1.28,0,0,0-.49,1.76Z"/>
      </g>
    </g>
  </g>
</svg>
