<svg xmlns="http://www.w3.org/2000/svg" width="67.05" height="72.03" viewBox="0 0 67.05 72.03">
  <defs>
    <style>
      .a {
        isolation: isolate;
      }

      .b {
        mix-blend-mode: multiply;
      }

      .c {
        fill: #333;
      }
    </style>
  </defs>
  <title>Asset 3</title>
  <g class="a">
    <g class="b">
      <g>
        <path class="c" d="M29.36,50a1.26,1.26,0,0,0-.19.14h4.61a1.82,1.82,0,0,0-1.14-1.57,2.78,2.78,0,0,0-1.38-.22.42.42,0,0,0-.26.16A5.83,5.83,0,0,1,29.36,50M39.9,26.63c.09.31-.09.55-.49.51s-1.08-.44-1.12-.8a.56.56,0,0,1,.66-.6,1.37,1.37,0,0,1,.95.89m-1.35-3.57h0a9.51,9.51,0,0,0-2-.69l-.12,0a.27.27,0,0,1-.2-.3A4.75,4.75,0,0,0,35,21.24a5.86,5.86,0,0,0-4.41-.51c-.12,0-.23,0-.31,0s-.22.21-.38.26-.4,0-.56,0-.16.15-.23.25a.58.58,0,0,0-.15.16c-.15.1-.39.08-.52.2a.42.42,0,0,0-.09.16l-.1.06a1.11,1.11,0,0,0-.17.43.69.69,0,0,0-.28.25s0,0,0,0a.49.49,0,0,0-.17.18c-.08.17,0,.41,0,.59s-.22.35-.23.54.18.36.21.55-.09.4,0,.59.28.28.36.46,0,.41.13.57.34.22.45.37.11.4.23.54.38.14.52.27.16.38.31.5.43,0,.55.19c.29.36.56.7.84,1l-.41.43h0a48.78,48.78,0,0,0-7.63,8.76,11.55,11.55,0,0,0-1.93,6.83,5.4,5.4,0,0,0,1.74,3.94,5.06,5.06,0,0,0,2.9,1.22,5.14,5.14,0,0,0,5.33-2.57,6.59,6.59,0,0,0,.82-3.44c0-.72-.46-1.13-.29-1.3.48-.51,1,.8,1,1.48a8.52,8.52,0,0,1-.87,3.42,2.73,2.73,0,0,1,2.85,2.45h3.31a2.07,2.07,0,0,0-2.52-2.07c-.17,0-.35.14-.5,0s0-.36,0-.53a25,25,0,0,0,1-2.5,5.77,5.77,0,0,0,.18-2c0-.25-.25-1.26.3-1,.37.16.44,1.27.43,1.62a6.62,6.62,0,0,1-.36,1.79c-.17.64-.46,1.19-.68,1.81a1.36,1.36,0,0,1,0,.17,2.76,2.76,0,0,1,2.34,1.2.35.35,0,0,0,.24.1h2.55l.17,0a2.94,2.94,0,0,0-1.3-2.2.83.83,0,0,0-.46-.11c-.37,0-.49-.14-.37-.52.06-.21.19-.56.25-.77a31,31,0,0,0,1.17-10c0-.53-.1-2.17-.13-2.48a8.92,8.92,0,0,1-2.51.14,14.26,14.26,0,0,1-3-.59.42.42,0,0,1,.21-.47,9.87,9.87,0,0,0,4.6.5c.36,0,.72-.12,1.09-.2h0c1.58-.39,2.88-1,3-1.43a0,0,0,0,1,0,0,2.38,2.38,0,0,1-.84.05c-.67-.05-1.16-1.05-1.07-2.24a2.68,2.68,0,0,1,.78-1.84,8.91,8.91,0,0,0-3.73-3.39M46,24.87c0-.17.09-.37,0-.53s-.25-.24-.33-.38-.05-.36-.15-.49-.32-.13-.45-.23-.16-.33-.3-.41-.34,0-.49-.09-.17-.21-.32-.28-.17,0-.27,0a5.26,5.26,0,0,0-4,0,4.07,4.07,0,0,0-.67.31,9.48,9.48,0,0,1,4.71,5.86l0,0c.14-.09.2-.32.33-.41s.36-.09.49-.2.14-.33.26-.45.34-.15.44-.28.08-.36.17-.5.3-.23.37-.38,0-.37,0-.53.23-.3.24-.46S46,25,46,24.87"/>
        <path class="c" d="M33.54,0a5.11,5.11,0,0,1,5,5.31,5.06,5.06,0,0,1-5,5.11A5.21,5.21,0,0,1,33.54,0"/>
        <path class="c" d="M33.49,72a5.17,5.17,0,0,1-5-5.22,5.25,5.25,0,0,1,5.05-5.2,5.15,5.15,0,0,1,5,5.33A5,5,0,0,1,33.49,72"/>
        <path class="c" d="M67.05,36.35a5,5,0,0,1-5,5.09,5.13,5.13,0,0,1-5-5.22,5.2,5.2,0,0,1,5-5.2,5.12,5.12,0,0,1,5,5.33"/>
        <path class="c" d="M10,36.32a5,5,0,0,1-5,5.12,5.12,5.12,0,0,1-5-5.23A5.2,5.2,0,0,1,5.05,31a5.11,5.11,0,0,1,5,5.3"/>
        <path class="c" d="M56.35,28.19c0,.57-.41.87-.79.67a2.22,2.22,0,0,1-.47-.4L40.78,13.83a1.48,1.48,0,0,1-.39-.48.78.78,0,0,1,.07-.61.84.84,0,0,1,.65-.15c.15,0,.29.21.42.34Q48.75,20.31,56,27.7c.16.17.29.38.38.49"/>
        <path class="c" d="M11.3,43.32a6,6,0,0,1,.52.42q3.5,3.56,7,7.11l7.4,7.56c.13.13.33.26.36.41a1,1,0,0,1-.07.73c-.13.13-.47.09-.71.06s-.21-.18-.31-.28L11.05,44.61a2.05,2.05,0,0,1-.36-.42.6.6,0,0,1,.61-.87"/>
        <path class="c" d="M40.87,59.68a.59.59,0,0,1-.56-.86,2.55,2.55,0,0,1,.4-.47L54.93,43.8c.12-.12.23-.3.36-.33s.61-.1.7,0a1.05,1.05,0,0,1,.07.77c0,.16-.23.28-.36.41q-7.14,7.26-14.27,14.51a6.71,6.71,0,0,1-.56.49"/>
        <path class="c" d="M26.89,13.05a7.63,7.63,0,0,1-.53.68L16.19,24.13C14.8,25.55,13.41,27,12,28.4c-.13.13-.26.34-.41.35a.92.92,0,0,1-.7-.13c-.11-.1,0-.44,0-.66s.19-.21.29-.32L25.56,12.89c.11-.12.22-.29.36-.33a1,1,0,0,1,.63,0c.13,0,.2.28.34.5"/>
      </g>
    </g>
  </g>
</svg>
